G04 #@! TF.GenerationSoftware,KiCad,Pcbnew,5.1.9*
G04 #@! TF.CreationDate,2021-05-01T23:47:32-07:00*
G04 #@! TF.ProjectId,P80C550-EVN,50383043-3535-4302-9d45-564e2e6b6963,rev?*
G04 #@! TF.SameCoordinates,Original*
G04 #@! TF.FileFunction,Paste,Bot*
G04 #@! TF.FilePolarity,Positive*
%FSLAX46Y46*%
G04 Gerber Fmt 4.6, Leading zero omitted, Abs format (unit mm)*
G04 Created by KiCad (PCBNEW 5.1.9) date 2021-05-01 23:47:32*
%MOMM*%
%LPD*%
G01*
G04 APERTURE LIST*
%ADD10R,0.900000X0.800000*%
%ADD11R,1.220000X0.650000*%
%ADD12R,2.000000X0.650000*%
%ADD13R,0.800000X0.900000*%
%ADD14R,1.980000X3.000000*%
%ADD15R,0.900000X1.750000*%
G04 APERTURE END LIST*
G36*
G01*
X107298500Y-120478500D02*
X106823500Y-120478500D01*
G75*
G02*
X106586000Y-120241000I0J237500D01*
G01*
X106586000Y-119641000D01*
G75*
G02*
X106823500Y-119403500I237500J0D01*
G01*
X107298500Y-119403500D01*
G75*
G02*
X107536000Y-119641000I0J-237500D01*
G01*
X107536000Y-120241000D01*
G75*
G02*
X107298500Y-120478500I-237500J0D01*
G01*
G37*
G36*
G01*
X107298500Y-122203500D02*
X106823500Y-122203500D01*
G75*
G02*
X106586000Y-121966000I0J237500D01*
G01*
X106586000Y-121366000D01*
G75*
G02*
X106823500Y-121128500I237500J0D01*
G01*
X107298500Y-121128500D01*
G75*
G02*
X107536000Y-121366000I0J-237500D01*
G01*
X107536000Y-121966000D01*
G75*
G02*
X107298500Y-122203500I-237500J0D01*
G01*
G37*
D10*
X112109000Y-133893600D03*
X110109000Y-132943600D03*
X110109000Y-134843600D03*
G36*
G01*
X107911000Y-124238600D02*
X106211000Y-124238600D01*
G75*
G02*
X105961000Y-123988600I0J250000D01*
G01*
X105961000Y-123063600D01*
G75*
G02*
X106211000Y-122813600I250000J0D01*
G01*
X107911000Y-122813600D01*
G75*
G02*
X108161000Y-123063600I0J-250000D01*
G01*
X108161000Y-123988600D01*
G75*
G02*
X107911000Y-124238600I-250000J0D01*
G01*
G37*
G36*
G01*
X107911000Y-126563600D02*
X106211000Y-126563600D01*
G75*
G02*
X105961000Y-126313600I0J250000D01*
G01*
X105961000Y-125388600D01*
G75*
G02*
X106211000Y-125138600I250000J0D01*
G01*
X107911000Y-125138600D01*
G75*
G02*
X108161000Y-125388600I0J-250000D01*
G01*
X108161000Y-126313600D01*
G75*
G02*
X107911000Y-126563600I-250000J0D01*
G01*
G37*
G36*
G01*
X108372900Y-132416000D02*
X108847900Y-132416000D01*
G75*
G02*
X109085400Y-132653500I0J-237500D01*
G01*
X109085400Y-133228500D01*
G75*
G02*
X108847900Y-133466000I-237500J0D01*
G01*
X108372900Y-133466000D01*
G75*
G02*
X108135400Y-133228500I0J237500D01*
G01*
X108135400Y-132653500D01*
G75*
G02*
X108372900Y-132416000I237500J0D01*
G01*
G37*
G36*
G01*
X108372900Y-130666000D02*
X108847900Y-130666000D01*
G75*
G02*
X109085400Y-130903500I0J-237500D01*
G01*
X109085400Y-131478500D01*
G75*
G02*
X108847900Y-131716000I-237500J0D01*
G01*
X108372900Y-131716000D01*
G75*
G02*
X108135400Y-131478500I0J237500D01*
G01*
X108135400Y-130903500D01*
G75*
G02*
X108372900Y-130666000I237500J0D01*
G01*
G37*
G36*
G01*
X109062500Y-125142500D02*
X110012500Y-125142500D01*
G75*
G02*
X110262500Y-125392500I0J-250000D01*
G01*
X110262500Y-126067500D01*
G75*
G02*
X110012500Y-126317500I-250000J0D01*
G01*
X109062500Y-126317500D01*
G75*
G02*
X108812500Y-126067500I0J250000D01*
G01*
X108812500Y-125392500D01*
G75*
G02*
X109062500Y-125142500I250000J0D01*
G01*
G37*
G36*
G01*
X109062500Y-123067500D02*
X110012500Y-123067500D01*
G75*
G02*
X110262500Y-123317500I0J-250000D01*
G01*
X110262500Y-123992500D01*
G75*
G02*
X110012500Y-124242500I-250000J0D01*
G01*
X109062500Y-124242500D01*
G75*
G02*
X108812500Y-123992500I0J250000D01*
G01*
X108812500Y-123317500D01*
G75*
G02*
X109062500Y-123067500I250000J0D01*
G01*
G37*
G36*
G01*
X110876100Y-128344600D02*
X109926100Y-128344600D01*
G75*
G02*
X109676100Y-128094600I0J250000D01*
G01*
X109676100Y-127419600D01*
G75*
G02*
X109926100Y-127169600I250000J0D01*
G01*
X110876100Y-127169600D01*
G75*
G02*
X111126100Y-127419600I0J-250000D01*
G01*
X111126100Y-128094600D01*
G75*
G02*
X110876100Y-128344600I-250000J0D01*
G01*
G37*
G36*
G01*
X110876100Y-130419600D02*
X109926100Y-130419600D01*
G75*
G02*
X109676100Y-130169600I0J250000D01*
G01*
X109676100Y-129494600D01*
G75*
G02*
X109926100Y-129244600I250000J0D01*
G01*
X110876100Y-129244600D01*
G75*
G02*
X111126100Y-129494600I0J-250000D01*
G01*
X111126100Y-130169600D01*
G75*
G02*
X110876100Y-130419600I-250000J0D01*
G01*
G37*
G36*
G01*
X103940600Y-127109100D02*
X104415600Y-127109100D01*
G75*
G02*
X104653100Y-127346600I0J-237500D01*
G01*
X104653100Y-127946600D01*
G75*
G02*
X104415600Y-128184100I-237500J0D01*
G01*
X103940600Y-128184100D01*
G75*
G02*
X103703100Y-127946600I0J237500D01*
G01*
X103703100Y-127346600D01*
G75*
G02*
X103940600Y-127109100I237500J0D01*
G01*
G37*
G36*
G01*
X103940600Y-125384100D02*
X104415600Y-125384100D01*
G75*
G02*
X104653100Y-125621600I0J-237500D01*
G01*
X104653100Y-126221600D01*
G75*
G02*
X104415600Y-126459100I-237500J0D01*
G01*
X103940600Y-126459100D01*
G75*
G02*
X103703100Y-126221600I0J237500D01*
G01*
X103703100Y-125621600D01*
G75*
G02*
X103940600Y-125384100I237500J0D01*
G01*
G37*
D11*
X108472600Y-127675600D03*
X108472600Y-128625600D03*
X108472600Y-129575600D03*
X105852600Y-129575600D03*
X105852600Y-128625600D03*
X105852600Y-127675600D03*
G36*
G01*
X106155500Y-131629600D02*
X105680500Y-131629600D01*
G75*
G02*
X105443000Y-131392100I0J237500D01*
G01*
X105443000Y-130892100D01*
G75*
G02*
X105680500Y-130654600I237500J0D01*
G01*
X106155500Y-130654600D01*
G75*
G02*
X106393000Y-130892100I0J-237500D01*
G01*
X106393000Y-131392100D01*
G75*
G02*
X106155500Y-131629600I-237500J0D01*
G01*
G37*
G36*
G01*
X106155500Y-133454600D02*
X105680500Y-133454600D01*
G75*
G02*
X105443000Y-133217100I0J237500D01*
G01*
X105443000Y-132717100D01*
G75*
G02*
X105680500Y-132479600I237500J0D01*
G01*
X106155500Y-132479600D01*
G75*
G02*
X106393000Y-132717100I0J-237500D01*
G01*
X106393000Y-133217100D01*
G75*
G02*
X106155500Y-133454600I-237500J0D01*
G01*
G37*
G36*
G01*
X104156500Y-132481340D02*
X104631500Y-132481340D01*
G75*
G02*
X104869000Y-132718840I0J-237500D01*
G01*
X104869000Y-133218840D01*
G75*
G02*
X104631500Y-133456340I-237500J0D01*
G01*
X104156500Y-133456340D01*
G75*
G02*
X103919000Y-133218840I0J237500D01*
G01*
X103919000Y-132718840D01*
G75*
G02*
X104156500Y-132481340I237500J0D01*
G01*
G37*
G36*
G01*
X104156500Y-130656340D02*
X104631500Y-130656340D01*
G75*
G02*
X104869000Y-130893840I0J-237500D01*
G01*
X104869000Y-131393840D01*
G75*
G02*
X104631500Y-131631340I-237500J0D01*
G01*
X104156500Y-131631340D01*
G75*
G02*
X103919000Y-131393840I0J237500D01*
G01*
X103919000Y-130893840D01*
G75*
G02*
X104156500Y-130656340I237500J0D01*
G01*
G37*
G36*
G01*
X138096000Y-117605000D02*
X137621000Y-117605000D01*
G75*
G02*
X137383500Y-117367500I0J237500D01*
G01*
X137383500Y-116867500D01*
G75*
G02*
X137621000Y-116630000I237500J0D01*
G01*
X138096000Y-116630000D01*
G75*
G02*
X138333500Y-116867500I0J-237500D01*
G01*
X138333500Y-117367500D01*
G75*
G02*
X138096000Y-117605000I-237500J0D01*
G01*
G37*
G36*
G01*
X138096000Y-115780000D02*
X137621000Y-115780000D01*
G75*
G02*
X137383500Y-115542500I0J237500D01*
G01*
X137383500Y-115042500D01*
G75*
G02*
X137621000Y-114805000I237500J0D01*
G01*
X138096000Y-114805000D01*
G75*
G02*
X138333500Y-115042500I0J-237500D01*
G01*
X138333500Y-115542500D01*
G75*
G02*
X138096000Y-115780000I-237500J0D01*
G01*
G37*
G36*
G01*
X146181100Y-98187500D02*
X146181100Y-98662500D01*
G75*
G02*
X145943600Y-98900000I-237500J0D01*
G01*
X145343600Y-98900000D01*
G75*
G02*
X145106100Y-98662500I0J237500D01*
G01*
X145106100Y-98187500D01*
G75*
G02*
X145343600Y-97950000I237500J0D01*
G01*
X145943600Y-97950000D01*
G75*
G02*
X146181100Y-98187500I0J-237500D01*
G01*
G37*
G36*
G01*
X147906100Y-98187500D02*
X147906100Y-98662500D01*
G75*
G02*
X147668600Y-98900000I-237500J0D01*
G01*
X147068600Y-98900000D01*
G75*
G02*
X146831100Y-98662500I0J237500D01*
G01*
X146831100Y-98187500D01*
G75*
G02*
X147068600Y-97950000I237500J0D01*
G01*
X147668600Y-97950000D01*
G75*
G02*
X147906100Y-98187500I0J-237500D01*
G01*
G37*
D12*
X146613300Y-91803100D03*
X146613300Y-93703100D03*
X150033300Y-93703100D03*
X150033300Y-92753100D03*
X150033300Y-91803100D03*
X146630500Y-88140500D03*
X146630500Y-90040500D03*
X150050500Y-90040500D03*
X150050500Y-89090500D03*
X150050500Y-88140500D03*
G36*
G01*
X145562500Y-140699500D02*
X145562500Y-140224500D01*
G75*
G02*
X145800000Y-139987000I237500J0D01*
G01*
X146300000Y-139987000D01*
G75*
G02*
X146537500Y-140224500I0J-237500D01*
G01*
X146537500Y-140699500D01*
G75*
G02*
X146300000Y-140937000I-237500J0D01*
G01*
X145800000Y-140937000D01*
G75*
G02*
X145562500Y-140699500I0J237500D01*
G01*
G37*
G36*
G01*
X143737500Y-140699500D02*
X143737500Y-140224500D01*
G75*
G02*
X143975000Y-139987000I237500J0D01*
G01*
X144475000Y-139987000D01*
G75*
G02*
X144712500Y-140224500I0J-237500D01*
G01*
X144712500Y-140699500D01*
G75*
G02*
X144475000Y-140937000I-237500J0D01*
G01*
X143975000Y-140937000D01*
G75*
G02*
X143737500Y-140699500I0J237500D01*
G01*
G37*
G36*
G01*
X149054000Y-140224500D02*
X149054000Y-140699500D01*
G75*
G02*
X148816500Y-140937000I-237500J0D01*
G01*
X148316500Y-140937000D01*
G75*
G02*
X148079000Y-140699500I0J237500D01*
G01*
X148079000Y-140224500D01*
G75*
G02*
X148316500Y-139987000I237500J0D01*
G01*
X148816500Y-139987000D01*
G75*
G02*
X149054000Y-140224500I0J-237500D01*
G01*
G37*
G36*
G01*
X150879000Y-140224500D02*
X150879000Y-140699500D01*
G75*
G02*
X150641500Y-140937000I-237500J0D01*
G01*
X150141500Y-140937000D01*
G75*
G02*
X149904000Y-140699500I0J237500D01*
G01*
X149904000Y-140224500D01*
G75*
G02*
X150141500Y-139987000I237500J0D01*
G01*
X150641500Y-139987000D01*
G75*
G02*
X150879000Y-140224500I0J-237500D01*
G01*
G37*
D13*
X183515000Y-129302000D03*
X182565000Y-131302000D03*
X184465000Y-131302000D03*
G36*
G01*
X175839000Y-124189500D02*
X175839000Y-123714500D01*
G75*
G02*
X176076500Y-123477000I237500J0D01*
G01*
X176676500Y-123477000D01*
G75*
G02*
X176914000Y-123714500I0J-237500D01*
G01*
X176914000Y-124189500D01*
G75*
G02*
X176676500Y-124427000I-237500J0D01*
G01*
X176076500Y-124427000D01*
G75*
G02*
X175839000Y-124189500I0J237500D01*
G01*
G37*
G36*
G01*
X174114000Y-124189500D02*
X174114000Y-123714500D01*
G75*
G02*
X174351500Y-123477000I237500J0D01*
G01*
X174951500Y-123477000D01*
G75*
G02*
X175189000Y-123714500I0J-237500D01*
G01*
X175189000Y-124189500D01*
G75*
G02*
X174951500Y-124427000I-237500J0D01*
G01*
X174351500Y-124427000D01*
G75*
G02*
X174114000Y-124189500I0J237500D01*
G01*
G37*
G36*
G01*
X176613000Y-122190500D02*
X176613000Y-122665500D01*
G75*
G02*
X176375500Y-122903000I-237500J0D01*
G01*
X175875500Y-122903000D01*
G75*
G02*
X175638000Y-122665500I0J237500D01*
G01*
X175638000Y-122190500D01*
G75*
G02*
X175875500Y-121953000I237500J0D01*
G01*
X176375500Y-121953000D01*
G75*
G02*
X176613000Y-122190500I0J-237500D01*
G01*
G37*
G36*
G01*
X178438000Y-122190500D02*
X178438000Y-122665500D01*
G75*
G02*
X178200500Y-122903000I-237500J0D01*
G01*
X177700500Y-122903000D01*
G75*
G02*
X177463000Y-122665500I0J237500D01*
G01*
X177463000Y-122190500D01*
G75*
G02*
X177700500Y-121953000I237500J0D01*
G01*
X178200500Y-121953000D01*
G75*
G02*
X178438000Y-122190500I0J-237500D01*
G01*
G37*
G36*
G01*
X174481000Y-125713500D02*
X174481000Y-125238500D01*
G75*
G02*
X174718500Y-125001000I237500J0D01*
G01*
X175293500Y-125001000D01*
G75*
G02*
X175531000Y-125238500I0J-237500D01*
G01*
X175531000Y-125713500D01*
G75*
G02*
X175293500Y-125951000I-237500J0D01*
G01*
X174718500Y-125951000D01*
G75*
G02*
X174481000Y-125713500I0J237500D01*
G01*
G37*
G36*
G01*
X172731000Y-125713500D02*
X172731000Y-125238500D01*
G75*
G02*
X172968500Y-125001000I237500J0D01*
G01*
X173543500Y-125001000D01*
G75*
G02*
X173781000Y-125238500I0J-237500D01*
G01*
X173781000Y-125713500D01*
G75*
G02*
X173543500Y-125951000I-237500J0D01*
G01*
X172968500Y-125951000D01*
G75*
G02*
X172731000Y-125713500I0J237500D01*
G01*
G37*
D14*
X171360000Y-98291000D03*
X176620000Y-98291000D03*
X176620000Y-93091000D03*
X171360000Y-93091000D03*
D15*
X117830000Y-85365000D03*
X117830000Y-88265000D03*
X119380000Y-88265000D03*
X119380000Y-85365000D03*
G36*
G01*
X120717500Y-83168500D02*
X120717500Y-82693500D01*
G75*
G02*
X120955000Y-82456000I237500J0D01*
G01*
X121455000Y-82456000D01*
G75*
G02*
X121692500Y-82693500I0J-237500D01*
G01*
X121692500Y-83168500D01*
G75*
G02*
X121455000Y-83406000I-237500J0D01*
G01*
X120955000Y-83406000D01*
G75*
G02*
X120717500Y-83168500I0J237500D01*
G01*
G37*
G36*
G01*
X118892500Y-83168500D02*
X118892500Y-82693500D01*
G75*
G02*
X119130000Y-82456000I237500J0D01*
G01*
X119630000Y-82456000D01*
G75*
G02*
X119867500Y-82693500I0J-237500D01*
G01*
X119867500Y-83168500D01*
G75*
G02*
X119630000Y-83406000I-237500J0D01*
G01*
X119130000Y-83406000D01*
G75*
G02*
X118892500Y-83168500I0J237500D01*
G01*
G37*
G36*
G01*
X120618300Y-81644500D02*
X120618300Y-81169500D01*
G75*
G02*
X120855800Y-80932000I237500J0D01*
G01*
X121455800Y-80932000D01*
G75*
G02*
X121693300Y-81169500I0J-237500D01*
G01*
X121693300Y-81644500D01*
G75*
G02*
X121455800Y-81882000I-237500J0D01*
G01*
X120855800Y-81882000D01*
G75*
G02*
X120618300Y-81644500I0J237500D01*
G01*
G37*
G36*
G01*
X118893300Y-81644500D02*
X118893300Y-81169500D01*
G75*
G02*
X119130800Y-80932000I237500J0D01*
G01*
X119730800Y-80932000D01*
G75*
G02*
X119968300Y-81169500I0J-237500D01*
G01*
X119968300Y-81644500D01*
G75*
G02*
X119730800Y-81882000I-237500J0D01*
G01*
X119130800Y-81882000D01*
G75*
G02*
X118893300Y-81644500I0J237500D01*
G01*
G37*
G36*
G01*
X136327000Y-135017500D02*
X136327000Y-135492500D01*
G75*
G02*
X136089500Y-135730000I-237500J0D01*
G01*
X135489500Y-135730000D01*
G75*
G02*
X135252000Y-135492500I0J237500D01*
G01*
X135252000Y-135017500D01*
G75*
G02*
X135489500Y-134780000I237500J0D01*
G01*
X136089500Y-134780000D01*
G75*
G02*
X136327000Y-135017500I0J-237500D01*
G01*
G37*
G36*
G01*
X138052000Y-135017500D02*
X138052000Y-135492500D01*
G75*
G02*
X137814500Y-135730000I-237500J0D01*
G01*
X137214500Y-135730000D01*
G75*
G02*
X136977000Y-135492500I0J237500D01*
G01*
X136977000Y-135017500D01*
G75*
G02*
X137214500Y-134780000I237500J0D01*
G01*
X137814500Y-134780000D01*
G75*
G02*
X138052000Y-135017500I0J-237500D01*
G01*
G37*
G36*
G01*
X120920500Y-87166500D02*
X121395500Y-87166500D01*
G75*
G02*
X121633000Y-87404000I0J-237500D01*
G01*
X121633000Y-88004000D01*
G75*
G02*
X121395500Y-88241500I-237500J0D01*
G01*
X120920500Y-88241500D01*
G75*
G02*
X120683000Y-88004000I0J237500D01*
G01*
X120683000Y-87404000D01*
G75*
G02*
X120920500Y-87166500I237500J0D01*
G01*
G37*
G36*
G01*
X120920500Y-85441500D02*
X121395500Y-85441500D01*
G75*
G02*
X121633000Y-85679000I0J-237500D01*
G01*
X121633000Y-86279000D01*
G75*
G02*
X121395500Y-86516500I-237500J0D01*
G01*
X120920500Y-86516500D01*
G75*
G02*
X120683000Y-86279000I0J237500D01*
G01*
X120683000Y-85679000D01*
G75*
G02*
X120920500Y-85441500I237500J0D01*
G01*
G37*
G36*
G01*
X115840500Y-87219500D02*
X116315500Y-87219500D01*
G75*
G02*
X116553000Y-87457000I0J-237500D01*
G01*
X116553000Y-88057000D01*
G75*
G02*
X116315500Y-88294500I-237500J0D01*
G01*
X115840500Y-88294500D01*
G75*
G02*
X115603000Y-88057000I0J237500D01*
G01*
X115603000Y-87457000D01*
G75*
G02*
X115840500Y-87219500I237500J0D01*
G01*
G37*
G36*
G01*
X115840500Y-85494500D02*
X116315500Y-85494500D01*
G75*
G02*
X116553000Y-85732000I0J-237500D01*
G01*
X116553000Y-86332000D01*
G75*
G02*
X116315500Y-86569500I-237500J0D01*
G01*
X115840500Y-86569500D01*
G75*
G02*
X115603000Y-86332000I0J237500D01*
G01*
X115603000Y-85732000D01*
G75*
G02*
X115840500Y-85494500I237500J0D01*
G01*
G37*
G36*
G01*
X109518500Y-94852500D02*
X109518500Y-94377500D01*
G75*
G02*
X109756000Y-94140000I237500J0D01*
G01*
X110356000Y-94140000D01*
G75*
G02*
X110593500Y-94377500I0J-237500D01*
G01*
X110593500Y-94852500D01*
G75*
G02*
X110356000Y-95090000I-237500J0D01*
G01*
X109756000Y-95090000D01*
G75*
G02*
X109518500Y-94852500I0J237500D01*
G01*
G37*
G36*
G01*
X107793500Y-94852500D02*
X107793500Y-94377500D01*
G75*
G02*
X108031000Y-94140000I237500J0D01*
G01*
X108631000Y-94140000D01*
G75*
G02*
X108868500Y-94377500I0J-237500D01*
G01*
X108868500Y-94852500D01*
G75*
G02*
X108631000Y-95090000I-237500J0D01*
G01*
X108031000Y-95090000D01*
G75*
G02*
X107793500Y-94852500I0J237500D01*
G01*
G37*
G36*
G01*
X163012000Y-108949500D02*
X163012000Y-108474500D01*
G75*
G02*
X163249500Y-108237000I237500J0D01*
G01*
X163849500Y-108237000D01*
G75*
G02*
X164087000Y-108474500I0J-237500D01*
G01*
X164087000Y-108949500D01*
G75*
G02*
X163849500Y-109187000I-237500J0D01*
G01*
X163249500Y-109187000D01*
G75*
G02*
X163012000Y-108949500I0J237500D01*
G01*
G37*
G36*
G01*
X161287000Y-108949500D02*
X161287000Y-108474500D01*
G75*
G02*
X161524500Y-108237000I237500J0D01*
G01*
X162124500Y-108237000D01*
G75*
G02*
X162362000Y-108474500I0J-237500D01*
G01*
X162362000Y-108949500D01*
G75*
G02*
X162124500Y-109187000I-237500J0D01*
G01*
X161524500Y-109187000D01*
G75*
G02*
X161287000Y-108949500I0J237500D01*
G01*
G37*
G36*
G01*
X175585000Y-131682500D02*
X175585000Y-131207500D01*
G75*
G02*
X175822500Y-130970000I237500J0D01*
G01*
X176422500Y-130970000D01*
G75*
G02*
X176660000Y-131207500I0J-237500D01*
G01*
X176660000Y-131682500D01*
G75*
G02*
X176422500Y-131920000I-237500J0D01*
G01*
X175822500Y-131920000D01*
G75*
G02*
X175585000Y-131682500I0J237500D01*
G01*
G37*
G36*
G01*
X173860000Y-131682500D02*
X173860000Y-131207500D01*
G75*
G02*
X174097500Y-130970000I237500J0D01*
G01*
X174697500Y-130970000D01*
G75*
G02*
X174935000Y-131207500I0J-237500D01*
G01*
X174935000Y-131682500D01*
G75*
G02*
X174697500Y-131920000I-237500J0D01*
G01*
X174097500Y-131920000D01*
G75*
G02*
X173860000Y-131682500I0J237500D01*
G01*
G37*
G36*
G01*
X157877500Y-88590000D02*
X158352500Y-88590000D01*
G75*
G02*
X158590000Y-88827500I0J-237500D01*
G01*
X158590000Y-89427500D01*
G75*
G02*
X158352500Y-89665000I-237500J0D01*
G01*
X157877500Y-89665000D01*
G75*
G02*
X157640000Y-89427500I0J237500D01*
G01*
X157640000Y-88827500D01*
G75*
G02*
X157877500Y-88590000I237500J0D01*
G01*
G37*
G36*
G01*
X157877500Y-86865000D02*
X158352500Y-86865000D01*
G75*
G02*
X158590000Y-87102500I0J-237500D01*
G01*
X158590000Y-87702500D01*
G75*
G02*
X158352500Y-87940000I-237500J0D01*
G01*
X157877500Y-87940000D01*
G75*
G02*
X157640000Y-87702500I0J237500D01*
G01*
X157640000Y-87102500D01*
G75*
G02*
X157877500Y-86865000I237500J0D01*
G01*
G37*
G36*
G01*
X169053500Y-97633500D02*
X169528500Y-97633500D01*
G75*
G02*
X169766000Y-97871000I0J-237500D01*
G01*
X169766000Y-98471000D01*
G75*
G02*
X169528500Y-98708500I-237500J0D01*
G01*
X169053500Y-98708500D01*
G75*
G02*
X168816000Y-98471000I0J237500D01*
G01*
X168816000Y-97871000D01*
G75*
G02*
X169053500Y-97633500I237500J0D01*
G01*
G37*
G36*
G01*
X169053500Y-95908500D02*
X169528500Y-95908500D01*
G75*
G02*
X169766000Y-96146000I0J-237500D01*
G01*
X169766000Y-96746000D01*
G75*
G02*
X169528500Y-96983500I-237500J0D01*
G01*
X169053500Y-96983500D01*
G75*
G02*
X168816000Y-96746000I0J237500D01*
G01*
X168816000Y-96146000D01*
G75*
G02*
X169053500Y-95908500I237500J0D01*
G01*
G37*
G36*
G01*
X178926500Y-96983500D02*
X178451500Y-96983500D01*
G75*
G02*
X178214000Y-96746000I0J237500D01*
G01*
X178214000Y-96146000D01*
G75*
G02*
X178451500Y-95908500I237500J0D01*
G01*
X178926500Y-95908500D01*
G75*
G02*
X179164000Y-96146000I0J-237500D01*
G01*
X179164000Y-96746000D01*
G75*
G02*
X178926500Y-96983500I-237500J0D01*
G01*
G37*
G36*
G01*
X178926500Y-98708500D02*
X178451500Y-98708500D01*
G75*
G02*
X178214000Y-98471000I0J237500D01*
G01*
X178214000Y-97871000D01*
G75*
G02*
X178451500Y-97633500I237500J0D01*
G01*
X178926500Y-97633500D01*
G75*
G02*
X179164000Y-97871000I0J-237500D01*
G01*
X179164000Y-98471000D01*
G75*
G02*
X178926500Y-98708500I-237500J0D01*
G01*
G37*
G36*
G01*
X125111500Y-86457500D02*
X125586500Y-86457500D01*
G75*
G02*
X125824000Y-86695000I0J-237500D01*
G01*
X125824000Y-87295000D01*
G75*
G02*
X125586500Y-87532500I-237500J0D01*
G01*
X125111500Y-87532500D01*
G75*
G02*
X124874000Y-87295000I0J237500D01*
G01*
X124874000Y-86695000D01*
G75*
G02*
X125111500Y-86457500I237500J0D01*
G01*
G37*
G36*
G01*
X125111500Y-84732500D02*
X125586500Y-84732500D01*
G75*
G02*
X125824000Y-84970000I0J-237500D01*
G01*
X125824000Y-85570000D01*
G75*
G02*
X125586500Y-85807500I-237500J0D01*
G01*
X125111500Y-85807500D01*
G75*
G02*
X124874000Y-85570000I0J237500D01*
G01*
X124874000Y-84970000D01*
G75*
G02*
X125111500Y-84732500I237500J0D01*
G01*
G37*
M02*
