G04 #@! TF.GenerationSoftware,KiCad,Pcbnew,5.1.9*
G04 #@! TF.CreationDate,2021-05-01T23:47:32-07:00*
G04 #@! TF.ProjectId,P80C550-EVN,50383043-3535-4302-9d45-564e2e6b6963,rev?*
G04 #@! TF.SameCoordinates,Original*
G04 #@! TF.FileFunction,Legend,Top*
G04 #@! TF.FilePolarity,Positive*
%FSLAX46Y46*%
G04 Gerber Fmt 4.6, Leading zero omitted, Abs format (unit mm)*
G04 Created by KiCad (PCBNEW 5.1.9) date 2021-05-01 23:47:32*
%MOMM*%
%LPD*%
G01*
G04 APERTURE LIST*
%ADD10C,0.150000*%
%ADD11C,0.101600*%
%ADD12C,0.190500*%
%ADD13C,0.222250*%
%ADD14C,0.152400*%
%ADD15C,0.165100*%
%ADD16C,0.127000*%
%ADD17C,0.203200*%
%ADD18C,0.254000*%
%ADD19C,0.120000*%
%ADD20O,1.700000X1.700000*%
%ADD21R,1.700000X1.700000*%
%ADD22R,3.000000X3.000000*%
%ADD23C,3.000000*%
%ADD24R,0.400000X1.500000*%
%ADD25R,2.000000X0.650000*%
%ADD26R,1.560000X0.650000*%
%ADD27R,1.500000X0.400000*%
%ADD28R,0.650000X3.000000*%
%ADD29R,1.600000X1.500000*%
%ADD30R,1.200000X1.200000*%
%ADD31R,0.800000X0.900000*%
%ADD32R,4.100000X4.100000*%
%ADD33R,1.422400X1.422400*%
%ADD34C,1.422400*%
%ADD35O,1.600000X1.600000*%
%ADD36R,1.600000X1.600000*%
%ADD37C,2.100000*%
%ADD38C,1.750000*%
%ADD39C,1.600000*%
%ADD40R,4.099999X4.099999*%
G04 APERTURE END LIST*
D10*
X106553047Y-133167428D02*
X107314952Y-133167428D01*
D11*
X99217238Y-90145809D02*
X98975333Y-90145809D01*
X98975333Y-89637809D01*
X99459142Y-90145809D02*
X99410761Y-90121619D01*
X99386571Y-90097428D01*
X99362380Y-90049047D01*
X99362380Y-89903904D01*
X99386571Y-89855523D01*
X99410761Y-89831333D01*
X99459142Y-89807142D01*
X99531714Y-89807142D01*
X99580095Y-89831333D01*
X99604285Y-89855523D01*
X99628476Y-89903904D01*
X99628476Y-90049047D01*
X99604285Y-90097428D01*
X99580095Y-90121619D01*
X99531714Y-90145809D01*
X99459142Y-90145809D01*
X99797809Y-89807142D02*
X99894571Y-90145809D01*
X99991333Y-89903904D01*
X100088095Y-90145809D01*
X100184857Y-89807142D01*
X100934761Y-89879714D02*
X101007333Y-89903904D01*
X101031523Y-89928095D01*
X101055714Y-89976476D01*
X101055714Y-90049047D01*
X101031523Y-90097428D01*
X101007333Y-90121619D01*
X100958952Y-90145809D01*
X100765428Y-90145809D01*
X100765428Y-89637809D01*
X100934761Y-89637809D01*
X100983142Y-89662000D01*
X101007333Y-89686190D01*
X101031523Y-89734571D01*
X101031523Y-89782952D01*
X101007333Y-89831333D01*
X100983142Y-89855523D01*
X100934761Y-89879714D01*
X100765428Y-89879714D01*
X101491142Y-90145809D02*
X101491142Y-89879714D01*
X101466952Y-89831333D01*
X101418571Y-89807142D01*
X101321809Y-89807142D01*
X101273428Y-89831333D01*
X101491142Y-90121619D02*
X101442761Y-90145809D01*
X101321809Y-90145809D01*
X101273428Y-90121619D01*
X101249238Y-90073238D01*
X101249238Y-90024857D01*
X101273428Y-89976476D01*
X101321809Y-89952285D01*
X101442761Y-89952285D01*
X101491142Y-89928095D01*
X101660476Y-89807142D02*
X101854000Y-89807142D01*
X101733047Y-89637809D02*
X101733047Y-90073238D01*
X101757238Y-90121619D01*
X101805619Y-90145809D01*
X101854000Y-90145809D01*
X101950761Y-89807142D02*
X102144285Y-89807142D01*
X102023333Y-89637809D02*
X102023333Y-90073238D01*
X102047523Y-90121619D01*
X102095904Y-90145809D01*
X102144285Y-90145809D01*
X102507142Y-90121619D02*
X102458761Y-90145809D01*
X102362000Y-90145809D01*
X102313619Y-90121619D01*
X102289428Y-90073238D01*
X102289428Y-89879714D01*
X102313619Y-89831333D01*
X102362000Y-89807142D01*
X102458761Y-89807142D01*
X102507142Y-89831333D01*
X102531333Y-89879714D01*
X102531333Y-89928095D01*
X102289428Y-89976476D01*
X102749047Y-90145809D02*
X102749047Y-89807142D01*
X102749047Y-89903904D02*
X102773238Y-89855523D01*
X102797428Y-89831333D01*
X102845809Y-89807142D01*
X102894190Y-89807142D01*
X103015142Y-89807142D02*
X103136095Y-90145809D01*
X103257047Y-89807142D02*
X103136095Y-90145809D01*
X103087714Y-90266761D01*
X103063523Y-90290952D01*
X103015142Y-90315142D01*
X99837119Y-85758261D02*
X99837119Y-85123261D01*
X100079023Y-85123261D01*
X100139500Y-85153500D01*
X100169738Y-85183738D01*
X100199976Y-85244214D01*
X100199976Y-85334928D01*
X100169738Y-85395404D01*
X100139500Y-85425642D01*
X100079023Y-85455880D01*
X99837119Y-85455880D01*
X100562833Y-85758261D02*
X100502357Y-85728023D01*
X100472119Y-85697785D01*
X100441880Y-85637309D01*
X100441880Y-85455880D01*
X100472119Y-85395404D01*
X100502357Y-85365166D01*
X100562833Y-85334928D01*
X100653547Y-85334928D01*
X100714023Y-85365166D01*
X100744261Y-85395404D01*
X100774500Y-85455880D01*
X100774500Y-85637309D01*
X100744261Y-85697785D01*
X100714023Y-85728023D01*
X100653547Y-85758261D01*
X100562833Y-85758261D01*
X100986166Y-85334928D02*
X101107119Y-85758261D01*
X101228071Y-85455880D01*
X101349023Y-85758261D01*
X101469976Y-85334928D01*
X101953785Y-85728023D02*
X101893309Y-85758261D01*
X101772357Y-85758261D01*
X101711880Y-85728023D01*
X101681642Y-85667547D01*
X101681642Y-85425642D01*
X101711880Y-85365166D01*
X101772357Y-85334928D01*
X101893309Y-85334928D01*
X101953785Y-85365166D01*
X101984023Y-85425642D01*
X101984023Y-85486119D01*
X101681642Y-85546595D01*
X102256166Y-85758261D02*
X102256166Y-85334928D01*
X102256166Y-85455880D02*
X102286404Y-85395404D01*
X102316642Y-85365166D01*
X102377119Y-85334928D01*
X102437595Y-85334928D01*
D12*
X154903714Y-92038714D02*
X154831142Y-92183857D01*
X155629428Y-92800714D02*
X155194000Y-92800714D01*
X155411714Y-92800714D02*
X155411714Y-92038714D01*
X155339142Y-92147571D01*
X155266571Y-92220142D01*
X155194000Y-92256428D01*
X155883428Y-92038714D02*
X156355142Y-92038714D01*
X156101142Y-92329000D01*
X156210000Y-92329000D01*
X156282571Y-92365285D01*
X156318857Y-92401571D01*
X156355142Y-92474142D01*
X156355142Y-92655571D01*
X156318857Y-92728142D01*
X156282571Y-92764428D01*
X156210000Y-92800714D01*
X155992285Y-92800714D01*
X155919714Y-92764428D01*
X155883428Y-92728142D01*
X156790571Y-92365285D02*
X156718000Y-92329000D01*
X156681714Y-92292714D01*
X156645428Y-92220142D01*
X156645428Y-92183857D01*
X156681714Y-92111285D01*
X156718000Y-92075000D01*
X156790571Y-92038714D01*
X156935714Y-92038714D01*
X157008285Y-92075000D01*
X157044571Y-92111285D01*
X157080857Y-92183857D01*
X157080857Y-92220142D01*
X157044571Y-92292714D01*
X157008285Y-92329000D01*
X156935714Y-92365285D01*
X156790571Y-92365285D01*
X156718000Y-92401571D01*
X156681714Y-92437857D01*
X156645428Y-92510428D01*
X156645428Y-92655571D01*
X156681714Y-92728142D01*
X156718000Y-92764428D01*
X156790571Y-92800714D01*
X156935714Y-92800714D01*
X157008285Y-92764428D01*
X157044571Y-92728142D01*
X157080857Y-92655571D01*
X157080857Y-92510428D01*
X157044571Y-92437857D01*
X157008285Y-92401571D01*
X156935714Y-92365285D01*
X156681714Y-117293571D02*
X155919714Y-117293571D01*
X155919714Y-117003285D01*
X155956000Y-116930714D01*
X155992285Y-116894428D01*
X156064857Y-116858142D01*
X156173714Y-116858142D01*
X156246285Y-116894428D01*
X156282571Y-116930714D01*
X156318857Y-117003285D01*
X156318857Y-117293571D01*
X156609142Y-116096142D02*
X156645428Y-116132428D01*
X156681714Y-116241285D01*
X156681714Y-116313857D01*
X156645428Y-116422714D01*
X156572857Y-116495285D01*
X156500285Y-116531571D01*
X156355142Y-116567857D01*
X156246285Y-116567857D01*
X156101142Y-116531571D01*
X156028571Y-116495285D01*
X155956000Y-116422714D01*
X155919714Y-116313857D01*
X155919714Y-116241285D01*
X155956000Y-116132428D01*
X155992285Y-116096142D01*
X156282571Y-115515571D02*
X156282571Y-115769571D01*
X156681714Y-115769571D02*
X155919714Y-115769571D01*
X155919714Y-115406714D01*
X156246285Y-115007571D02*
X156210000Y-115080142D01*
X156173714Y-115116428D01*
X156101142Y-115152714D01*
X156064857Y-115152714D01*
X155992285Y-115116428D01*
X155956000Y-115080142D01*
X155919714Y-115007571D01*
X155919714Y-114862428D01*
X155956000Y-114789857D01*
X155992285Y-114753571D01*
X156064857Y-114717285D01*
X156101142Y-114717285D01*
X156173714Y-114753571D01*
X156210000Y-114789857D01*
X156246285Y-114862428D01*
X156246285Y-115007571D01*
X156282571Y-115080142D01*
X156318857Y-115116428D01*
X156391428Y-115152714D01*
X156536571Y-115152714D01*
X156609142Y-115116428D01*
X156645428Y-115080142D01*
X156681714Y-115007571D01*
X156681714Y-114862428D01*
X156645428Y-114789857D01*
X156609142Y-114753571D01*
X156536571Y-114717285D01*
X156391428Y-114717285D01*
X156318857Y-114753571D01*
X156282571Y-114789857D01*
X156246285Y-114862428D01*
X155919714Y-114027857D02*
X155919714Y-114390714D01*
X156282571Y-114427000D01*
X156246285Y-114390714D01*
X156210000Y-114318142D01*
X156210000Y-114136714D01*
X156246285Y-114064142D01*
X156282571Y-114027857D01*
X156355142Y-113991571D01*
X156536571Y-113991571D01*
X156609142Y-114027857D01*
X156645428Y-114064142D01*
X156681714Y-114136714D01*
X156681714Y-114318142D01*
X156645428Y-114390714D01*
X156609142Y-114427000D01*
X156246285Y-113556142D02*
X156210000Y-113628714D01*
X156173714Y-113665000D01*
X156101142Y-113701285D01*
X156064857Y-113701285D01*
X155992285Y-113665000D01*
X155956000Y-113628714D01*
X155919714Y-113556142D01*
X155919714Y-113411000D01*
X155956000Y-113338428D01*
X155992285Y-113302142D01*
X156064857Y-113265857D01*
X156101142Y-113265857D01*
X156173714Y-113302142D01*
X156210000Y-113338428D01*
X156246285Y-113411000D01*
X156246285Y-113556142D01*
X156282571Y-113628714D01*
X156318857Y-113665000D01*
X156391428Y-113701285D01*
X156536571Y-113701285D01*
X156609142Y-113665000D01*
X156645428Y-113628714D01*
X156681714Y-113556142D01*
X156681714Y-113411000D01*
X156645428Y-113338428D01*
X156609142Y-113302142D01*
X156536571Y-113265857D01*
X156391428Y-113265857D01*
X156318857Y-113302142D01*
X156282571Y-113338428D01*
X156246285Y-113411000D01*
X156173714Y-112612714D02*
X156681714Y-112612714D01*
X155883428Y-112794142D02*
X156427714Y-112975571D01*
X156427714Y-112503857D01*
D13*
X140991166Y-106447166D02*
X140694833Y-106023833D01*
X140483166Y-106447166D02*
X140483166Y-105558166D01*
X140821833Y-105558166D01*
X140906500Y-105600500D01*
X140948833Y-105642833D01*
X140991166Y-105727500D01*
X140991166Y-105854500D01*
X140948833Y-105939166D01*
X140906500Y-105981500D01*
X140821833Y-106023833D01*
X140483166Y-106023833D01*
X141329833Y-106193166D02*
X141753166Y-106193166D01*
X141245166Y-106447166D02*
X141541500Y-105558166D01*
X141837833Y-106447166D01*
X142134166Y-106447166D02*
X142134166Y-105558166D01*
X142430500Y-106193166D01*
X142726833Y-105558166D01*
X142726833Y-106447166D01*
X122491500Y-106447166D02*
X122195166Y-106023833D01*
X121983500Y-106447166D02*
X121983500Y-105558166D01*
X122322166Y-105558166D01*
X122406833Y-105600500D01*
X122449166Y-105642833D01*
X122491500Y-105727500D01*
X122491500Y-105854500D01*
X122449166Y-105939166D01*
X122406833Y-105981500D01*
X122322166Y-106023833D01*
X121983500Y-106023833D01*
X123041833Y-105558166D02*
X123211166Y-105558166D01*
X123295833Y-105600500D01*
X123380500Y-105685166D01*
X123422833Y-105854500D01*
X123422833Y-106150833D01*
X123380500Y-106320166D01*
X123295833Y-106404833D01*
X123211166Y-106447166D01*
X123041833Y-106447166D01*
X122957166Y-106404833D01*
X122872500Y-106320166D01*
X122830166Y-106150833D01*
X122830166Y-105854500D01*
X122872500Y-105685166D01*
X122957166Y-105600500D01*
X123041833Y-105558166D01*
X123803833Y-106447166D02*
X123803833Y-105558166D01*
X124100166Y-106193166D01*
X124396500Y-105558166D01*
X124396500Y-106447166D01*
D12*
X107405714Y-105246714D02*
X107333142Y-105391857D01*
X108095142Y-105246714D02*
X107732285Y-105246714D01*
X107696000Y-105609571D01*
X107732285Y-105573285D01*
X107804857Y-105537000D01*
X107986285Y-105537000D01*
X108058857Y-105573285D01*
X108095142Y-105609571D01*
X108131428Y-105682142D01*
X108131428Y-105863571D01*
X108095142Y-105936142D01*
X108058857Y-105972428D01*
X107986285Y-106008714D01*
X107804857Y-106008714D01*
X107732285Y-105972428D01*
X107696000Y-105936142D01*
X108385428Y-105246714D02*
X108893428Y-105246714D01*
X108566857Y-106008714D01*
X109111142Y-105246714D02*
X109582857Y-105246714D01*
X109328857Y-105537000D01*
X109437714Y-105537000D01*
X109510285Y-105573285D01*
X109546571Y-105609571D01*
X109582857Y-105682142D01*
X109582857Y-105863571D01*
X109546571Y-105936142D01*
X109510285Y-105972428D01*
X109437714Y-106008714D01*
X109220000Y-106008714D01*
X109147428Y-105972428D01*
X109111142Y-105936142D01*
X108276571Y-82767714D02*
X108204000Y-82912857D01*
X108748285Y-82767714D02*
X108820857Y-82767714D01*
X108893428Y-82804000D01*
X108929714Y-82840285D01*
X108966000Y-82912857D01*
X109002285Y-83058000D01*
X109002285Y-83239428D01*
X108966000Y-83384571D01*
X108929714Y-83457142D01*
X108893428Y-83493428D01*
X108820857Y-83529714D01*
X108748285Y-83529714D01*
X108675714Y-83493428D01*
X108639428Y-83457142D01*
X108603142Y-83384571D01*
X108566857Y-83239428D01*
X108566857Y-83058000D01*
X108603142Y-82912857D01*
X108639428Y-82840285D01*
X108675714Y-82804000D01*
X108748285Y-82767714D01*
X109474000Y-82767714D02*
X109546571Y-82767714D01*
X109619142Y-82804000D01*
X109655428Y-82840285D01*
X109691714Y-82912857D01*
X109728000Y-83058000D01*
X109728000Y-83239428D01*
X109691714Y-83384571D01*
X109655428Y-83457142D01*
X109619142Y-83493428D01*
X109546571Y-83529714D01*
X109474000Y-83529714D01*
X109401428Y-83493428D01*
X109365142Y-83457142D01*
X109328857Y-83384571D01*
X109292571Y-83239428D01*
X109292571Y-83058000D01*
X109328857Y-82912857D01*
X109365142Y-82840285D01*
X109401428Y-82804000D01*
X109474000Y-82767714D01*
D14*
X132562600Y-90745733D02*
X132325533Y-90407066D01*
X132156200Y-90745733D02*
X132156200Y-90034533D01*
X132427133Y-90034533D01*
X132494866Y-90068400D01*
X132528733Y-90102266D01*
X132562600Y-90170000D01*
X132562600Y-90271600D01*
X132528733Y-90339333D01*
X132494866Y-90373200D01*
X132427133Y-90407066D01*
X132156200Y-90407066D01*
X132765800Y-90034533D02*
X133172200Y-90034533D01*
X132969000Y-90745733D02*
X132969000Y-90034533D01*
X133815666Y-90678000D02*
X133781800Y-90711866D01*
X133680200Y-90745733D01*
X133612466Y-90745733D01*
X133510866Y-90711866D01*
X133443133Y-90644133D01*
X133409266Y-90576400D01*
X133375400Y-90440933D01*
X133375400Y-90339333D01*
X133409266Y-90203866D01*
X133443133Y-90136133D01*
X133510866Y-90068400D01*
X133612466Y-90034533D01*
X133680200Y-90034533D01*
X133781800Y-90068400D01*
X133815666Y-90102266D01*
D15*
X109455857Y-126963714D02*
X109709857Y-127725714D01*
X109963857Y-126963714D01*
X110217857Y-127725714D02*
X110217857Y-127217714D01*
X110217857Y-126963714D02*
X110181571Y-127000000D01*
X110217857Y-127036285D01*
X110254142Y-127000000D01*
X110217857Y-126963714D01*
X110217857Y-127036285D01*
X110580714Y-127217714D02*
X110580714Y-127725714D01*
X110580714Y-127290285D02*
X110617000Y-127254000D01*
X110689571Y-127217714D01*
X110798428Y-127217714D01*
X110871000Y-127254000D01*
X110907285Y-127326571D01*
X110907285Y-127725714D01*
X106534857Y-126963714D02*
X106172000Y-126963714D01*
X106135714Y-127326571D01*
X106172000Y-127290285D01*
X106244571Y-127254000D01*
X106426000Y-127254000D01*
X106498571Y-127290285D01*
X106534857Y-127326571D01*
X106571142Y-127399142D01*
X106571142Y-127580571D01*
X106534857Y-127653142D01*
X106498571Y-127689428D01*
X106426000Y-127725714D01*
X106244571Y-127725714D01*
X106172000Y-127689428D01*
X106135714Y-127653142D01*
X106788857Y-126963714D02*
X107042857Y-127725714D01*
X107296857Y-126963714D01*
D12*
X104002114Y-125947714D02*
X104002114Y-125185714D01*
X104292400Y-125185714D01*
X104364971Y-125222000D01*
X104401257Y-125258285D01*
X104437542Y-125330857D01*
X104437542Y-125439714D01*
X104401257Y-125512285D01*
X104364971Y-125548571D01*
X104292400Y-125584857D01*
X104002114Y-125584857D01*
X105018114Y-125548571D02*
X104764114Y-125548571D01*
X104764114Y-125947714D02*
X104764114Y-125185714D01*
X105126971Y-125185714D01*
X105417257Y-125947714D02*
X105417257Y-125185714D01*
X106360685Y-125947714D02*
X106360685Y-125185714D01*
X106723542Y-125439714D02*
X106723542Y-125947714D01*
X106723542Y-125512285D02*
X106759828Y-125476000D01*
X106832400Y-125439714D01*
X106941257Y-125439714D01*
X107013828Y-125476000D01*
X107050114Y-125548571D01*
X107050114Y-125947714D01*
X107412971Y-125439714D02*
X107412971Y-126201714D01*
X107412971Y-125476000D02*
X107485542Y-125439714D01*
X107630685Y-125439714D01*
X107703257Y-125476000D01*
X107739542Y-125512285D01*
X107775828Y-125584857D01*
X107775828Y-125802571D01*
X107739542Y-125875142D01*
X107703257Y-125911428D01*
X107630685Y-125947714D01*
X107485542Y-125947714D01*
X107412971Y-125911428D01*
X108428971Y-125439714D02*
X108428971Y-125947714D01*
X108102400Y-125439714D02*
X108102400Y-125838857D01*
X108138685Y-125911428D01*
X108211257Y-125947714D01*
X108320114Y-125947714D01*
X108392685Y-125911428D01*
X108428971Y-125875142D01*
X108682971Y-125439714D02*
X108973257Y-125439714D01*
X108791828Y-125185714D02*
X108791828Y-125838857D01*
X108828114Y-125911428D01*
X108900685Y-125947714D01*
X108973257Y-125947714D01*
X109771542Y-125911428D02*
X109880400Y-125947714D01*
X110061828Y-125947714D01*
X110134400Y-125911428D01*
X110170685Y-125875142D01*
X110206971Y-125802571D01*
X110206971Y-125730000D01*
X110170685Y-125657428D01*
X110134400Y-125621142D01*
X110061828Y-125584857D01*
X109916685Y-125548571D01*
X109844114Y-125512285D01*
X109807828Y-125476000D01*
X109771542Y-125403428D01*
X109771542Y-125330857D01*
X109807828Y-125258285D01*
X109844114Y-125222000D01*
X109916685Y-125185714D01*
X110098114Y-125185714D01*
X110206971Y-125222000D01*
X110823828Y-125911428D02*
X110751257Y-125947714D01*
X110606114Y-125947714D01*
X110533542Y-125911428D01*
X110497257Y-125838857D01*
X110497257Y-125548571D01*
X110533542Y-125476000D01*
X110606114Y-125439714D01*
X110751257Y-125439714D01*
X110823828Y-125476000D01*
X110860114Y-125548571D01*
X110860114Y-125621142D01*
X110497257Y-125693714D01*
X111295542Y-125947714D02*
X111222971Y-125911428D01*
X111186685Y-125838857D01*
X111186685Y-125185714D01*
X111876114Y-125911428D02*
X111803542Y-125947714D01*
X111658400Y-125947714D01*
X111585828Y-125911428D01*
X111549542Y-125838857D01*
X111549542Y-125548571D01*
X111585828Y-125476000D01*
X111658400Y-125439714D01*
X111803542Y-125439714D01*
X111876114Y-125476000D01*
X111912400Y-125548571D01*
X111912400Y-125621142D01*
X111549542Y-125693714D01*
X112565542Y-125911428D02*
X112492971Y-125947714D01*
X112347828Y-125947714D01*
X112275257Y-125911428D01*
X112238971Y-125875142D01*
X112202685Y-125802571D01*
X112202685Y-125584857D01*
X112238971Y-125512285D01*
X112275257Y-125476000D01*
X112347828Y-125439714D01*
X112492971Y-125439714D01*
X112565542Y-125476000D01*
X112783257Y-125439714D02*
X113073542Y-125439714D01*
X112892114Y-125185714D02*
X112892114Y-125838857D01*
X112928400Y-125911428D01*
X113000971Y-125947714D01*
X113073542Y-125947714D01*
D16*
X119942428Y-139917714D02*
X119942428Y-139155714D01*
X120232714Y-139155714D01*
X120305285Y-139192000D01*
X120341571Y-139228285D01*
X120377857Y-139300857D01*
X120377857Y-139409714D01*
X120341571Y-139482285D01*
X120305285Y-139518571D01*
X120232714Y-139554857D01*
X119942428Y-139554857D01*
X120813285Y-139917714D02*
X120740714Y-139881428D01*
X120704428Y-139845142D01*
X120668142Y-139772571D01*
X120668142Y-139554857D01*
X120704428Y-139482285D01*
X120740714Y-139446000D01*
X120813285Y-139409714D01*
X120922142Y-139409714D01*
X120994714Y-139446000D01*
X121031000Y-139482285D01*
X121067285Y-139554857D01*
X121067285Y-139772571D01*
X121031000Y-139845142D01*
X120994714Y-139881428D01*
X120922142Y-139917714D01*
X120813285Y-139917714D01*
X121321285Y-139409714D02*
X121466428Y-139917714D01*
X121611571Y-139554857D01*
X121756714Y-139917714D01*
X121901857Y-139409714D01*
X122482428Y-139881428D02*
X122409857Y-139917714D01*
X122264714Y-139917714D01*
X122192142Y-139881428D01*
X122155857Y-139808857D01*
X122155857Y-139518571D01*
X122192142Y-139446000D01*
X122264714Y-139409714D01*
X122409857Y-139409714D01*
X122482428Y-139446000D01*
X122518714Y-139518571D01*
X122518714Y-139591142D01*
X122155857Y-139663714D01*
X122845285Y-139917714D02*
X122845285Y-139409714D01*
X122845285Y-139554857D02*
X122881571Y-139482285D01*
X122917857Y-139446000D01*
X122990428Y-139409714D01*
X123063000Y-139409714D01*
X124151571Y-139518571D02*
X123897571Y-139518571D01*
X123897571Y-139917714D02*
X123897571Y-139155714D01*
X124260428Y-139155714D01*
X124877285Y-139917714D02*
X124877285Y-139518571D01*
X124841000Y-139446000D01*
X124768428Y-139409714D01*
X124623285Y-139409714D01*
X124550714Y-139446000D01*
X124877285Y-139881428D02*
X124804714Y-139917714D01*
X124623285Y-139917714D01*
X124550714Y-139881428D01*
X124514428Y-139808857D01*
X124514428Y-139736285D01*
X124550714Y-139663714D01*
X124623285Y-139627428D01*
X124804714Y-139627428D01*
X124877285Y-139591142D01*
X125240142Y-139917714D02*
X125240142Y-139409714D01*
X125240142Y-139155714D02*
X125203857Y-139192000D01*
X125240142Y-139228285D01*
X125276428Y-139192000D01*
X125240142Y-139155714D01*
X125240142Y-139228285D01*
X125711857Y-139917714D02*
X125639285Y-139881428D01*
X125603000Y-139808857D01*
X125603000Y-139155714D01*
X126328714Y-139409714D02*
X126328714Y-139917714D01*
X126002142Y-139409714D02*
X126002142Y-139808857D01*
X126038428Y-139881428D01*
X126111000Y-139917714D01*
X126219857Y-139917714D01*
X126292428Y-139881428D01*
X126328714Y-139845142D01*
X126691571Y-139917714D02*
X126691571Y-139409714D01*
X126691571Y-139554857D02*
X126727857Y-139482285D01*
X126764142Y-139446000D01*
X126836714Y-139409714D01*
X126909285Y-139409714D01*
X127453571Y-139881428D02*
X127381000Y-139917714D01*
X127235857Y-139917714D01*
X127163285Y-139881428D01*
X127127000Y-139808857D01*
X127127000Y-139518571D01*
X127163285Y-139446000D01*
X127235857Y-139409714D01*
X127381000Y-139409714D01*
X127453571Y-139446000D01*
X127489857Y-139518571D01*
X127489857Y-139591142D01*
X127127000Y-139663714D01*
X119652142Y-140425714D02*
X119906142Y-141187714D01*
X120160142Y-140425714D01*
X120523000Y-141187714D02*
X120450428Y-141151428D01*
X120414142Y-141115142D01*
X120377857Y-141042571D01*
X120377857Y-140824857D01*
X120414142Y-140752285D01*
X120450428Y-140716000D01*
X120523000Y-140679714D01*
X120631857Y-140679714D01*
X120704428Y-140716000D01*
X120740714Y-140752285D01*
X120777000Y-140824857D01*
X120777000Y-141042571D01*
X120740714Y-141115142D01*
X120704428Y-141151428D01*
X120631857Y-141187714D01*
X120523000Y-141187714D01*
X121212428Y-141187714D02*
X121139857Y-141151428D01*
X121103571Y-141078857D01*
X121103571Y-140425714D01*
X121393857Y-140679714D02*
X121684142Y-140679714D01*
X121502714Y-140425714D02*
X121502714Y-141078857D01*
X121539000Y-141151428D01*
X121611571Y-141187714D01*
X121684142Y-141187714D01*
X122264714Y-141187714D02*
X122264714Y-140788571D01*
X122228428Y-140716000D01*
X122155857Y-140679714D01*
X122010714Y-140679714D01*
X121938142Y-140716000D01*
X122264714Y-141151428D02*
X122192142Y-141187714D01*
X122010714Y-141187714D01*
X121938142Y-141151428D01*
X121901857Y-141078857D01*
X121901857Y-141006285D01*
X121938142Y-140933714D01*
X122010714Y-140897428D01*
X122192142Y-140897428D01*
X122264714Y-140861142D01*
X122954142Y-140679714D02*
X122954142Y-141296571D01*
X122917857Y-141369142D01*
X122881571Y-141405428D01*
X122809000Y-141441714D01*
X122700142Y-141441714D01*
X122627571Y-141405428D01*
X122954142Y-141151428D02*
X122881571Y-141187714D01*
X122736428Y-141187714D01*
X122663857Y-141151428D01*
X122627571Y-141115142D01*
X122591285Y-141042571D01*
X122591285Y-140824857D01*
X122627571Y-140752285D01*
X122663857Y-140716000D01*
X122736428Y-140679714D01*
X122881571Y-140679714D01*
X122954142Y-140716000D01*
X123607285Y-141151428D02*
X123534714Y-141187714D01*
X123389571Y-141187714D01*
X123317000Y-141151428D01*
X123280714Y-141078857D01*
X123280714Y-140788571D01*
X123317000Y-140716000D01*
X123389571Y-140679714D01*
X123534714Y-140679714D01*
X123607285Y-140716000D01*
X123643571Y-140788571D01*
X123643571Y-140861142D01*
X123280714Y-140933714D01*
X124514428Y-140970000D02*
X124877285Y-140970000D01*
X124441857Y-141187714D02*
X124695857Y-140425714D01*
X124949857Y-141187714D01*
X125530428Y-141187714D02*
X125530428Y-140425714D01*
X125530428Y-141151428D02*
X125457857Y-141187714D01*
X125312714Y-141187714D01*
X125240142Y-141151428D01*
X125203857Y-141115142D01*
X125167571Y-141042571D01*
X125167571Y-140824857D01*
X125203857Y-140752285D01*
X125240142Y-140716000D01*
X125312714Y-140679714D01*
X125457857Y-140679714D01*
X125530428Y-140716000D01*
X125893285Y-140679714D02*
X125893285Y-141332857D01*
X125857000Y-141405428D01*
X125784428Y-141441714D01*
X125748142Y-141441714D01*
X125893285Y-140425714D02*
X125857000Y-140462000D01*
X125893285Y-140498285D01*
X125929571Y-140462000D01*
X125893285Y-140425714D01*
X125893285Y-140498285D01*
X126582714Y-140679714D02*
X126582714Y-141187714D01*
X126256142Y-140679714D02*
X126256142Y-141078857D01*
X126292428Y-141151428D01*
X126365000Y-141187714D01*
X126473857Y-141187714D01*
X126546428Y-141151428D01*
X126582714Y-141115142D01*
X126909285Y-141151428D02*
X126981857Y-141187714D01*
X127127000Y-141187714D01*
X127199571Y-141151428D01*
X127235857Y-141078857D01*
X127235857Y-141042571D01*
X127199571Y-140970000D01*
X127127000Y-140933714D01*
X127018142Y-140933714D01*
X126945571Y-140897428D01*
X126909285Y-140824857D01*
X126909285Y-140788571D01*
X126945571Y-140716000D01*
X127018142Y-140679714D01*
X127127000Y-140679714D01*
X127199571Y-140716000D01*
X127453571Y-140679714D02*
X127743857Y-140679714D01*
X127562428Y-140425714D02*
X127562428Y-141078857D01*
X127598714Y-141151428D01*
X127671285Y-141187714D01*
X127743857Y-141187714D01*
D17*
X104366785Y-76336071D02*
X103822500Y-76336071D01*
X103822500Y-75193071D01*
X105400928Y-76227214D02*
X105346500Y-76281642D01*
X105183214Y-76336071D01*
X105074357Y-76336071D01*
X104911071Y-76281642D01*
X104802214Y-76172785D01*
X104747785Y-76063928D01*
X104693357Y-75846214D01*
X104693357Y-75682928D01*
X104747785Y-75465214D01*
X104802214Y-75356357D01*
X104911071Y-75247500D01*
X105074357Y-75193071D01*
X105183214Y-75193071D01*
X105346500Y-75247500D01*
X105400928Y-75301928D01*
X105890785Y-76336071D02*
X105890785Y-75193071D01*
X106162928Y-75193071D01*
X106326214Y-75247500D01*
X106435071Y-75356357D01*
X106489500Y-75465214D01*
X106543928Y-75682928D01*
X106543928Y-75846214D01*
X106489500Y-76063928D01*
X106435071Y-76172785D01*
X106326214Y-76281642D01*
X106162928Y-76336071D01*
X105890785Y-76336071D01*
D16*
X99376592Y-79266142D02*
X99340307Y-79302428D01*
X99231450Y-79338714D01*
X99158878Y-79338714D01*
X99050021Y-79302428D01*
X98977450Y-79229857D01*
X98941164Y-79157285D01*
X98904878Y-79012142D01*
X98904878Y-78903285D01*
X98941164Y-78758142D01*
X98977450Y-78685571D01*
X99050021Y-78613000D01*
X99158878Y-78576714D01*
X99231450Y-78576714D01*
X99340307Y-78613000D01*
X99376592Y-78649285D01*
X99812021Y-79338714D02*
X99739450Y-79302428D01*
X99703164Y-79266142D01*
X99666878Y-79193571D01*
X99666878Y-78975857D01*
X99703164Y-78903285D01*
X99739450Y-78867000D01*
X99812021Y-78830714D01*
X99920878Y-78830714D01*
X99993450Y-78867000D01*
X100029735Y-78903285D01*
X100066021Y-78975857D01*
X100066021Y-79193571D01*
X100029735Y-79266142D01*
X99993450Y-79302428D01*
X99920878Y-79338714D01*
X99812021Y-79338714D01*
X100392592Y-78830714D02*
X100392592Y-79338714D01*
X100392592Y-78903285D02*
X100428878Y-78867000D01*
X100501450Y-78830714D01*
X100610307Y-78830714D01*
X100682878Y-78867000D01*
X100719164Y-78939571D01*
X100719164Y-79338714D01*
X100973164Y-78830714D02*
X101263450Y-78830714D01*
X101082021Y-78576714D02*
X101082021Y-79229857D01*
X101118307Y-79302428D01*
X101190878Y-79338714D01*
X101263450Y-79338714D01*
X101517450Y-79338714D02*
X101517450Y-78830714D01*
X101517450Y-78975857D02*
X101553735Y-78903285D01*
X101590021Y-78867000D01*
X101662592Y-78830714D01*
X101735164Y-78830714D01*
X102315735Y-79338714D02*
X102315735Y-78939571D01*
X102279450Y-78867000D01*
X102206878Y-78830714D01*
X102061735Y-78830714D01*
X101989164Y-78867000D01*
X102315735Y-79302428D02*
X102243164Y-79338714D01*
X102061735Y-79338714D01*
X101989164Y-79302428D01*
X101952878Y-79229857D01*
X101952878Y-79157285D01*
X101989164Y-79084714D01*
X102061735Y-79048428D01*
X102243164Y-79048428D01*
X102315735Y-79012142D01*
X102642307Y-79302428D02*
X102714878Y-79338714D01*
X102860021Y-79338714D01*
X102932592Y-79302428D01*
X102968878Y-79229857D01*
X102968878Y-79193571D01*
X102932592Y-79121000D01*
X102860021Y-79084714D01*
X102751164Y-79084714D01*
X102678592Y-79048428D01*
X102642307Y-78975857D01*
X102642307Y-78939571D01*
X102678592Y-78867000D01*
X102751164Y-78830714D01*
X102860021Y-78830714D01*
X102932592Y-78867000D01*
X103186592Y-78830714D02*
X103476878Y-78830714D01*
X103295450Y-78576714D02*
X103295450Y-79229857D01*
X103331735Y-79302428D01*
X103404307Y-79338714D01*
X103476878Y-79338714D01*
D12*
X192024000Y-134710714D02*
X192532000Y-134710714D01*
X192205428Y-135472714D01*
X167603714Y-135472714D02*
X167603714Y-134710714D01*
X167966571Y-135472714D02*
X167966571Y-134710714D01*
X168402000Y-135472714D01*
X168402000Y-134710714D01*
X169490571Y-134710714D02*
X169563142Y-134710714D01*
X169635714Y-134747000D01*
X169672000Y-134783285D01*
X169708285Y-134855857D01*
X169744571Y-135001000D01*
X169744571Y-135182428D01*
X169708285Y-135327571D01*
X169672000Y-135400142D01*
X169635714Y-135436428D01*
X169563142Y-135472714D01*
X169490571Y-135472714D01*
X169418000Y-135436428D01*
X169381714Y-135400142D01*
X169345428Y-135327571D01*
X169309142Y-135182428D01*
X169309142Y-135001000D01*
X169345428Y-134855857D01*
X169381714Y-134783285D01*
X169418000Y-134747000D01*
X169490571Y-134710714D01*
X168202428Y-139827000D02*
X168129857Y-139790714D01*
X168021000Y-139790714D01*
X167912142Y-139827000D01*
X167839571Y-139899571D01*
X167803285Y-139972142D01*
X167767000Y-140117285D01*
X167767000Y-140226142D01*
X167803285Y-140371285D01*
X167839571Y-140443857D01*
X167912142Y-140516428D01*
X168021000Y-140552714D01*
X168093571Y-140552714D01*
X168202428Y-140516428D01*
X168238714Y-140480142D01*
X168238714Y-140226142D01*
X168093571Y-140226142D01*
X168565285Y-140552714D02*
X168565285Y-139790714D01*
X169000714Y-140552714D01*
X169000714Y-139790714D01*
X169363571Y-140552714D02*
X169363571Y-139790714D01*
X169545000Y-139790714D01*
X169653857Y-139827000D01*
X169726428Y-139899571D01*
X169762714Y-139972142D01*
X169799000Y-140117285D01*
X169799000Y-140226142D01*
X169762714Y-140371285D01*
X169726428Y-140443857D01*
X169653857Y-140516428D01*
X169545000Y-140552714D01*
X169363571Y-140552714D01*
X167676285Y-137722428D02*
X168256857Y-137722428D01*
X167966571Y-138012714D02*
X167966571Y-137432142D01*
X168982571Y-137250714D02*
X168619714Y-137250714D01*
X168583428Y-137613571D01*
X168619714Y-137577285D01*
X168692285Y-137541000D01*
X168873714Y-137541000D01*
X168946285Y-137577285D01*
X168982571Y-137613571D01*
X169018857Y-137686142D01*
X169018857Y-137867571D01*
X168982571Y-137940142D01*
X168946285Y-137976428D01*
X168873714Y-138012714D01*
X168692285Y-138012714D01*
X168619714Y-137976428D01*
X168583428Y-137940142D01*
X169236571Y-137250714D02*
X169490571Y-138012714D01*
X169744571Y-137250714D01*
X150549428Y-140716000D02*
X150476857Y-140679714D01*
X150368000Y-140679714D01*
X150259142Y-140716000D01*
X150186571Y-140788571D01*
X150150285Y-140861142D01*
X150114000Y-141006285D01*
X150114000Y-141115142D01*
X150150285Y-141260285D01*
X150186571Y-141332857D01*
X150259142Y-141405428D01*
X150368000Y-141441714D01*
X150440571Y-141441714D01*
X150549428Y-141405428D01*
X150585714Y-141369142D01*
X150585714Y-141115142D01*
X150440571Y-141115142D01*
X150912285Y-141441714D02*
X150912285Y-140679714D01*
X151347714Y-141441714D01*
X151347714Y-140679714D01*
X151710571Y-141441714D02*
X151710571Y-140679714D01*
X151892000Y-140679714D01*
X152000857Y-140716000D01*
X152073428Y-140788571D01*
X152109714Y-140861142D01*
X152146000Y-141006285D01*
X152146000Y-141115142D01*
X152109714Y-141260285D01*
X152073428Y-141332857D01*
X152000857Y-141405428D01*
X151892000Y-141441714D01*
X151710571Y-141441714D01*
X147682857Y-141405428D02*
X147791714Y-141441714D01*
X147973142Y-141441714D01*
X148045714Y-141405428D01*
X148082000Y-141369142D01*
X148118285Y-141296571D01*
X148118285Y-141224000D01*
X148082000Y-141151428D01*
X148045714Y-141115142D01*
X147973142Y-141078857D01*
X147828000Y-141042571D01*
X147755428Y-141006285D01*
X147719142Y-140970000D01*
X147682857Y-140897428D01*
X147682857Y-140824857D01*
X147719142Y-140752285D01*
X147755428Y-140716000D01*
X147828000Y-140679714D01*
X148009428Y-140679714D01*
X148118285Y-140716000D01*
X148880285Y-141369142D02*
X148844000Y-141405428D01*
X148735142Y-141441714D01*
X148662571Y-141441714D01*
X148553714Y-141405428D01*
X148481142Y-141332857D01*
X148444857Y-141260285D01*
X148408571Y-141115142D01*
X148408571Y-141006285D01*
X148444857Y-140861142D01*
X148481142Y-140788571D01*
X148553714Y-140716000D01*
X148662571Y-140679714D01*
X148735142Y-140679714D01*
X148844000Y-140716000D01*
X148880285Y-140752285D01*
X149569714Y-141441714D02*
X149206857Y-141441714D01*
X149206857Y-140679714D01*
X145124714Y-141405428D02*
X145233571Y-141441714D01*
X145415000Y-141441714D01*
X145487571Y-141405428D01*
X145523857Y-141369142D01*
X145560142Y-141296571D01*
X145560142Y-141224000D01*
X145523857Y-141151428D01*
X145487571Y-141115142D01*
X145415000Y-141078857D01*
X145269857Y-141042571D01*
X145197285Y-141006285D01*
X145161000Y-140970000D01*
X145124714Y-140897428D01*
X145124714Y-140824857D01*
X145161000Y-140752285D01*
X145197285Y-140716000D01*
X145269857Y-140679714D01*
X145451285Y-140679714D01*
X145560142Y-140716000D01*
X145886714Y-141441714D02*
X145886714Y-140679714D01*
X146068142Y-140679714D01*
X146177000Y-140716000D01*
X146249571Y-140788571D01*
X146285857Y-140861142D01*
X146322142Y-141006285D01*
X146322142Y-141115142D01*
X146285857Y-141260285D01*
X146249571Y-141332857D01*
X146177000Y-141405428D01*
X146068142Y-141441714D01*
X145886714Y-141441714D01*
X146612428Y-141224000D02*
X146975285Y-141224000D01*
X146539857Y-141441714D02*
X146793857Y-140679714D01*
X147047857Y-141441714D01*
X142530285Y-141151428D02*
X143110857Y-141151428D01*
X142820571Y-141441714D02*
X142820571Y-140861142D01*
X143836571Y-140679714D02*
X143473714Y-140679714D01*
X143437428Y-141042571D01*
X143473714Y-141006285D01*
X143546285Y-140970000D01*
X143727714Y-140970000D01*
X143800285Y-141006285D01*
X143836571Y-141042571D01*
X143872857Y-141115142D01*
X143872857Y-141296571D01*
X143836571Y-141369142D01*
X143800285Y-141405428D01*
X143727714Y-141441714D01*
X143546285Y-141441714D01*
X143473714Y-141405428D01*
X143437428Y-141369142D01*
X144090571Y-140679714D02*
X144344571Y-141441714D01*
X144598571Y-140679714D01*
D18*
X152621947Y-79949523D02*
X152621947Y-78679523D01*
X153105757Y-78679523D01*
X153226709Y-78740000D01*
X153287185Y-78800476D01*
X153347661Y-78921428D01*
X153347661Y-79102857D01*
X153287185Y-79223809D01*
X153226709Y-79284285D01*
X153105757Y-79344761D01*
X152621947Y-79344761D01*
X154073376Y-79223809D02*
X153952423Y-79163333D01*
X153891947Y-79102857D01*
X153831471Y-78981904D01*
X153831471Y-78921428D01*
X153891947Y-78800476D01*
X153952423Y-78740000D01*
X154073376Y-78679523D01*
X154315280Y-78679523D01*
X154436233Y-78740000D01*
X154496709Y-78800476D01*
X154557185Y-78921428D01*
X154557185Y-78981904D01*
X154496709Y-79102857D01*
X154436233Y-79163333D01*
X154315280Y-79223809D01*
X154073376Y-79223809D01*
X153952423Y-79284285D01*
X153891947Y-79344761D01*
X153831471Y-79465714D01*
X153831471Y-79707619D01*
X153891947Y-79828571D01*
X153952423Y-79889047D01*
X154073376Y-79949523D01*
X154315280Y-79949523D01*
X154436233Y-79889047D01*
X154496709Y-79828571D01*
X154557185Y-79707619D01*
X154557185Y-79465714D01*
X154496709Y-79344761D01*
X154436233Y-79284285D01*
X154315280Y-79223809D01*
X155343376Y-78679523D02*
X155464328Y-78679523D01*
X155585280Y-78740000D01*
X155645757Y-78800476D01*
X155706233Y-78921428D01*
X155766709Y-79163333D01*
X155766709Y-79465714D01*
X155706233Y-79707619D01*
X155645757Y-79828571D01*
X155585280Y-79889047D01*
X155464328Y-79949523D01*
X155343376Y-79949523D01*
X155222423Y-79889047D01*
X155161947Y-79828571D01*
X155101471Y-79707619D01*
X155040995Y-79465714D01*
X155040995Y-79163333D01*
X155101471Y-78921428D01*
X155161947Y-78800476D01*
X155222423Y-78740000D01*
X155343376Y-78679523D01*
X157036709Y-79828571D02*
X156976233Y-79889047D01*
X156794804Y-79949523D01*
X156673852Y-79949523D01*
X156492423Y-79889047D01*
X156371471Y-79768095D01*
X156310995Y-79647142D01*
X156250519Y-79405238D01*
X156250519Y-79223809D01*
X156310995Y-78981904D01*
X156371471Y-78860952D01*
X156492423Y-78740000D01*
X156673852Y-78679523D01*
X156794804Y-78679523D01*
X156976233Y-78740000D01*
X157036709Y-78800476D01*
X158185757Y-78679523D02*
X157580995Y-78679523D01*
X157520519Y-79284285D01*
X157580995Y-79223809D01*
X157701947Y-79163333D01*
X158004328Y-79163333D01*
X158125280Y-79223809D01*
X158185757Y-79284285D01*
X158246233Y-79405238D01*
X158246233Y-79707619D01*
X158185757Y-79828571D01*
X158125280Y-79889047D01*
X158004328Y-79949523D01*
X157701947Y-79949523D01*
X157580995Y-79889047D01*
X157520519Y-79828571D01*
X159395280Y-78679523D02*
X158790519Y-78679523D01*
X158730042Y-79284285D01*
X158790519Y-79223809D01*
X158911471Y-79163333D01*
X159213852Y-79163333D01*
X159334804Y-79223809D01*
X159395280Y-79284285D01*
X159455757Y-79405238D01*
X159455757Y-79707619D01*
X159395280Y-79828571D01*
X159334804Y-79889047D01*
X159213852Y-79949523D01*
X158911471Y-79949523D01*
X158790519Y-79889047D01*
X158730042Y-79828571D01*
X160241947Y-78679523D02*
X160362900Y-78679523D01*
X160483852Y-78740000D01*
X160544328Y-78800476D01*
X160604804Y-78921428D01*
X160665280Y-79163333D01*
X160665280Y-79465714D01*
X160604804Y-79707619D01*
X160544328Y-79828571D01*
X160483852Y-79889047D01*
X160362900Y-79949523D01*
X160241947Y-79949523D01*
X160120995Y-79889047D01*
X160060519Y-79828571D01*
X160000042Y-79707619D01*
X159939566Y-79465714D01*
X159939566Y-79163333D01*
X160000042Y-78921428D01*
X160060519Y-78800476D01*
X160120995Y-78740000D01*
X160241947Y-78679523D01*
X161209566Y-79284285D02*
X161632900Y-79284285D01*
X161814328Y-79949523D02*
X161209566Y-79949523D01*
X161209566Y-78679523D01*
X161814328Y-78679523D01*
X162781947Y-79284285D02*
X162963376Y-79344761D01*
X163023852Y-79405238D01*
X163084328Y-79526190D01*
X163084328Y-79707619D01*
X163023852Y-79828571D01*
X162963376Y-79889047D01*
X162842423Y-79949523D01*
X162358614Y-79949523D01*
X162358614Y-78679523D01*
X162781947Y-78679523D01*
X162902900Y-78740000D01*
X162963376Y-78800476D01*
X163023852Y-78921428D01*
X163023852Y-79042380D01*
X162963376Y-79163333D01*
X162902900Y-79223809D01*
X162781947Y-79284285D01*
X162358614Y-79284285D01*
X163568138Y-79586666D02*
X164172900Y-79586666D01*
X163447185Y-79949523D02*
X163870519Y-78679523D01*
X164293852Y-79949523D01*
X164656709Y-79586666D02*
X165261471Y-79586666D01*
X164535757Y-79949523D02*
X164959090Y-78679523D01*
X165382423Y-79949523D01*
X167499090Y-79828571D02*
X167438614Y-79889047D01*
X167257185Y-79949523D01*
X167136233Y-79949523D01*
X166954804Y-79889047D01*
X166833852Y-79768095D01*
X166773376Y-79647142D01*
X166712900Y-79405238D01*
X166712900Y-79223809D01*
X166773376Y-78981904D01*
X166833852Y-78860952D01*
X166954804Y-78740000D01*
X167136233Y-78679523D01*
X167257185Y-78679523D01*
X167438614Y-78740000D01*
X167499090Y-78800476D01*
X168587661Y-79949523D02*
X168587661Y-79284285D01*
X168527185Y-79163333D01*
X168406233Y-79102857D01*
X168164328Y-79102857D01*
X168043376Y-79163333D01*
X168587661Y-79889047D02*
X168466709Y-79949523D01*
X168164328Y-79949523D01*
X168043376Y-79889047D01*
X167982900Y-79768095D01*
X167982900Y-79647142D01*
X168043376Y-79526190D01*
X168164328Y-79465714D01*
X168466709Y-79465714D01*
X168587661Y-79405238D01*
X169192423Y-79949523D02*
X169192423Y-79102857D01*
X169192423Y-79344761D02*
X169252900Y-79223809D01*
X169313376Y-79163333D01*
X169434328Y-79102857D01*
X169555280Y-79102857D01*
X169978614Y-79949523D02*
X169978614Y-79102857D01*
X169978614Y-79344761D02*
X170039090Y-79223809D01*
X170099566Y-79163333D01*
X170220519Y-79102857D01*
X170341471Y-79102857D01*
X170764804Y-79949523D02*
X170764804Y-79102857D01*
X170764804Y-78679523D02*
X170704328Y-78740000D01*
X170764804Y-78800476D01*
X170825280Y-78740000D01*
X170764804Y-78679523D01*
X170764804Y-78800476D01*
X171853376Y-79889047D02*
X171732423Y-79949523D01*
X171490519Y-79949523D01*
X171369566Y-79889047D01*
X171309090Y-79768095D01*
X171309090Y-79284285D01*
X171369566Y-79163333D01*
X171490519Y-79102857D01*
X171732423Y-79102857D01*
X171853376Y-79163333D01*
X171913852Y-79284285D01*
X171913852Y-79405238D01*
X171309090Y-79526190D01*
X172458138Y-79949523D02*
X172458138Y-79102857D01*
X172458138Y-79344761D02*
X172518614Y-79223809D01*
X172579090Y-79163333D01*
X172700042Y-79102857D01*
X172820995Y-79102857D01*
X174635280Y-79284285D02*
X174816709Y-79344761D01*
X174877185Y-79405238D01*
X174937661Y-79526190D01*
X174937661Y-79707619D01*
X174877185Y-79828571D01*
X174816709Y-79889047D01*
X174695757Y-79949523D01*
X174211947Y-79949523D01*
X174211947Y-78679523D01*
X174635280Y-78679523D01*
X174756233Y-78740000D01*
X174816709Y-78800476D01*
X174877185Y-78921428D01*
X174877185Y-79042380D01*
X174816709Y-79163333D01*
X174756233Y-79223809D01*
X174635280Y-79284285D01*
X174211947Y-79284285D01*
X175663376Y-79949523D02*
X175542423Y-79889047D01*
X175481947Y-79828571D01*
X175421471Y-79707619D01*
X175421471Y-79344761D01*
X175481947Y-79223809D01*
X175542423Y-79163333D01*
X175663376Y-79102857D01*
X175844804Y-79102857D01*
X175965757Y-79163333D01*
X176026233Y-79223809D01*
X176086709Y-79344761D01*
X176086709Y-79707619D01*
X176026233Y-79828571D01*
X175965757Y-79889047D01*
X175844804Y-79949523D01*
X175663376Y-79949523D01*
X177175280Y-79949523D02*
X177175280Y-79284285D01*
X177114804Y-79163333D01*
X176993852Y-79102857D01*
X176751947Y-79102857D01*
X176630995Y-79163333D01*
X177175280Y-79889047D02*
X177054328Y-79949523D01*
X176751947Y-79949523D01*
X176630995Y-79889047D01*
X176570519Y-79768095D01*
X176570519Y-79647142D01*
X176630995Y-79526190D01*
X176751947Y-79465714D01*
X177054328Y-79465714D01*
X177175280Y-79405238D01*
X177780042Y-79949523D02*
X177780042Y-79102857D01*
X177780042Y-79344761D02*
X177840519Y-79223809D01*
X177900995Y-79163333D01*
X178021947Y-79102857D01*
X178142900Y-79102857D01*
X179110519Y-79949523D02*
X179110519Y-78679523D01*
X179110519Y-79889047D02*
X178989566Y-79949523D01*
X178747661Y-79949523D01*
X178626709Y-79889047D01*
X178566233Y-79828571D01*
X178505757Y-79707619D01*
X178505757Y-79344761D01*
X178566233Y-79223809D01*
X178626709Y-79163333D01*
X178747661Y-79102857D01*
X178989566Y-79102857D01*
X179110519Y-79163333D01*
D10*
X156948571Y-135486666D02*
X157424761Y-135486666D01*
X156853333Y-135772380D02*
X157186666Y-134772380D01*
X157520000Y-135772380D01*
X157853333Y-135772380D02*
X157853333Y-134772380D01*
X158091428Y-134772380D01*
X158234285Y-134820000D01*
X158329523Y-134915238D01*
X158377142Y-135010476D01*
X158424761Y-135200952D01*
X158424761Y-135343809D01*
X158377142Y-135534285D01*
X158329523Y-135629523D01*
X158234285Y-135724761D01*
X158091428Y-135772380D01*
X157853333Y-135772380D01*
X159424761Y-135677142D02*
X159377142Y-135724761D01*
X159234285Y-135772380D01*
X159139047Y-135772380D01*
X158996190Y-135724761D01*
X158900952Y-135629523D01*
X158853333Y-135534285D01*
X158805714Y-135343809D01*
X158805714Y-135200952D01*
X158853333Y-135010476D01*
X158900952Y-134915238D01*
X158996190Y-134820000D01*
X159139047Y-134772380D01*
X159234285Y-134772380D01*
X159377142Y-134820000D01*
X159424761Y-134867619D01*
X160472380Y-134772380D02*
X160805714Y-135772380D01*
X161139047Y-134772380D01*
X161472380Y-135772380D02*
X161472380Y-135105714D01*
X161472380Y-135296190D02*
X161520000Y-135200952D01*
X161567619Y-135153333D01*
X161662857Y-135105714D01*
X161758095Y-135105714D01*
X162472380Y-135724761D02*
X162377142Y-135772380D01*
X162186666Y-135772380D01*
X162091428Y-135724761D01*
X162043809Y-135629523D01*
X162043809Y-135248571D01*
X162091428Y-135153333D01*
X162186666Y-135105714D01*
X162377142Y-135105714D01*
X162472380Y-135153333D01*
X162520000Y-135248571D01*
X162520000Y-135343809D01*
X162043809Y-135439047D01*
X162805714Y-135105714D02*
X163186666Y-135105714D01*
X162948571Y-135772380D02*
X162948571Y-134915238D01*
X162996190Y-134820000D01*
X163091428Y-134772380D01*
X163186666Y-134772380D01*
X155686666Y-137374761D02*
X155591428Y-137422380D01*
X155400952Y-137422380D01*
X155305714Y-137374761D01*
X155258095Y-137327142D01*
X155210476Y-137231904D01*
X155210476Y-136946190D01*
X155258095Y-136850952D01*
X155305714Y-136803333D01*
X155400952Y-136755714D01*
X155591428Y-136755714D01*
X155686666Y-136803333D01*
X156258095Y-137422380D02*
X156162857Y-137374761D01*
X156115238Y-137327142D01*
X156067619Y-137231904D01*
X156067619Y-136946190D01*
X156115238Y-136850952D01*
X156162857Y-136803333D01*
X156258095Y-136755714D01*
X156400952Y-136755714D01*
X156496190Y-136803333D01*
X156543809Y-136850952D01*
X156591428Y-136946190D01*
X156591428Y-137231904D01*
X156543809Y-137327142D01*
X156496190Y-137374761D01*
X156400952Y-137422380D01*
X156258095Y-137422380D01*
X157020000Y-136755714D02*
X157020000Y-137422380D01*
X157020000Y-136850952D02*
X157067619Y-136803333D01*
X157162857Y-136755714D01*
X157305714Y-136755714D01*
X157400952Y-136803333D01*
X157448571Y-136898571D01*
X157448571Y-137422380D01*
X157781904Y-136755714D02*
X158162857Y-136755714D01*
X157924761Y-136422380D02*
X157924761Y-137279523D01*
X157972380Y-137374761D01*
X158067619Y-137422380D01*
X158162857Y-137422380D01*
X158496190Y-137422380D02*
X158496190Y-136755714D01*
X158496190Y-136946190D02*
X158543809Y-136850952D01*
X158591428Y-136803333D01*
X158686666Y-136755714D01*
X158781904Y-136755714D01*
X159258095Y-137422380D02*
X159162857Y-137374761D01*
X159115238Y-137327142D01*
X159067619Y-137231904D01*
X159067619Y-136946190D01*
X159115238Y-136850952D01*
X159162857Y-136803333D01*
X159258095Y-136755714D01*
X159400952Y-136755714D01*
X159496190Y-136803333D01*
X159543809Y-136850952D01*
X159591428Y-136946190D01*
X159591428Y-137231904D01*
X159543809Y-137327142D01*
X159496190Y-137374761D01*
X159400952Y-137422380D01*
X159258095Y-137422380D01*
X160162857Y-137422380D02*
X160067619Y-137374761D01*
X160020000Y-137279523D01*
X160020000Y-136422380D01*
X160686666Y-137422380D02*
X160591428Y-137374761D01*
X160543809Y-137279523D01*
X160543809Y-136422380D01*
X161448571Y-137374761D02*
X161353333Y-137422380D01*
X161162857Y-137422380D01*
X161067619Y-137374761D01*
X161020000Y-137279523D01*
X161020000Y-136898571D01*
X161067619Y-136803333D01*
X161162857Y-136755714D01*
X161353333Y-136755714D01*
X161448571Y-136803333D01*
X161496190Y-136898571D01*
X161496190Y-136993809D01*
X161020000Y-137089047D01*
X162353333Y-137422380D02*
X162353333Y-136422380D01*
X162353333Y-137374761D02*
X162258095Y-137422380D01*
X162067619Y-137422380D01*
X161972380Y-137374761D01*
X161924761Y-137327142D01*
X161877142Y-137231904D01*
X161877142Y-136946190D01*
X161924761Y-136850952D01*
X161972380Y-136803333D01*
X162067619Y-136755714D01*
X162258095Y-136755714D01*
X162353333Y-136803333D01*
X163591428Y-137422380D02*
X163591428Y-136422380D01*
X163591428Y-136803333D02*
X163686666Y-136755714D01*
X163877142Y-136755714D01*
X163972380Y-136803333D01*
X164020000Y-136850952D01*
X164067619Y-136946190D01*
X164067619Y-137231904D01*
X164020000Y-137327142D01*
X163972380Y-137374761D01*
X163877142Y-137422380D01*
X163686666Y-137422380D01*
X163591428Y-137374761D01*
X164400952Y-136755714D02*
X164639047Y-137422380D01*
X164877142Y-136755714D02*
X164639047Y-137422380D01*
X164543809Y-137660476D01*
X164496190Y-137708095D01*
X164400952Y-137755714D01*
X154377142Y-138405714D02*
X154900952Y-138405714D01*
X154377142Y-139072380D01*
X154900952Y-139072380D01*
X155662857Y-139024761D02*
X155567619Y-139072380D01*
X155377142Y-139072380D01*
X155281904Y-139024761D01*
X155234285Y-138929523D01*
X155234285Y-138548571D01*
X155281904Y-138453333D01*
X155377142Y-138405714D01*
X155567619Y-138405714D01*
X155662857Y-138453333D01*
X155710476Y-138548571D01*
X155710476Y-138643809D01*
X155234285Y-138739047D01*
X156139047Y-138405714D02*
X156139047Y-139072380D01*
X156139047Y-138500952D02*
X156186666Y-138453333D01*
X156281904Y-138405714D01*
X156424761Y-138405714D01*
X156520000Y-138453333D01*
X156567619Y-138548571D01*
X156567619Y-139072380D01*
X157424761Y-139024761D02*
X157329523Y-139072380D01*
X157139047Y-139072380D01*
X157043809Y-139024761D01*
X156996190Y-138929523D01*
X156996190Y-138548571D01*
X157043809Y-138453333D01*
X157139047Y-138405714D01*
X157329523Y-138405714D01*
X157424761Y-138453333D01*
X157472380Y-138548571D01*
X157472380Y-138643809D01*
X156996190Y-138739047D01*
X157900952Y-139072380D02*
X157900952Y-138405714D01*
X157900952Y-138596190D02*
X157948571Y-138500952D01*
X157996190Y-138453333D01*
X158091428Y-138405714D01*
X158186666Y-138405714D01*
X159710476Y-139072380D02*
X159710476Y-138072380D01*
X159710476Y-139024761D02*
X159615238Y-139072380D01*
X159424761Y-139072380D01*
X159329523Y-139024761D01*
X159281904Y-138977142D01*
X159234285Y-138881904D01*
X159234285Y-138596190D01*
X159281904Y-138500952D01*
X159329523Y-138453333D01*
X159424761Y-138405714D01*
X159615238Y-138405714D01*
X159710476Y-138453333D01*
X160186666Y-139072380D02*
X160186666Y-138405714D01*
X160186666Y-138072380D02*
X160139047Y-138120000D01*
X160186666Y-138167619D01*
X160234285Y-138120000D01*
X160186666Y-138072380D01*
X160186666Y-138167619D01*
X160805714Y-139072380D02*
X160710476Y-139024761D01*
X160662857Y-138977142D01*
X160615238Y-138881904D01*
X160615238Y-138596190D01*
X160662857Y-138500952D01*
X160710476Y-138453333D01*
X160805714Y-138405714D01*
X160948571Y-138405714D01*
X161043809Y-138453333D01*
X161091428Y-138500952D01*
X161139047Y-138596190D01*
X161139047Y-138881904D01*
X161091428Y-138977142D01*
X161043809Y-139024761D01*
X160948571Y-139072380D01*
X160805714Y-139072380D01*
X161996190Y-139072380D02*
X161996190Y-138072380D01*
X161996190Y-139024761D02*
X161900952Y-139072380D01*
X161710476Y-139072380D01*
X161615238Y-139024761D01*
X161567619Y-138977142D01*
X161520000Y-138881904D01*
X161520000Y-138596190D01*
X161567619Y-138500952D01*
X161615238Y-138453333D01*
X161710476Y-138405714D01*
X161900952Y-138405714D01*
X161996190Y-138453333D01*
X162853333Y-139024761D02*
X162758095Y-139072380D01*
X162567619Y-139072380D01*
X162472380Y-139024761D01*
X162424761Y-138929523D01*
X162424761Y-138548571D01*
X162472380Y-138453333D01*
X162567619Y-138405714D01*
X162758095Y-138405714D01*
X162853333Y-138453333D01*
X162900952Y-138548571D01*
X162900952Y-138643809D01*
X162424761Y-138739047D01*
X164091428Y-139072380D02*
X164091428Y-138072380D01*
X164329523Y-138072380D01*
X164472380Y-138120000D01*
X164567619Y-138215238D01*
X164615238Y-138310476D01*
X164662857Y-138500952D01*
X164662857Y-138643809D01*
X164615238Y-138834285D01*
X164567619Y-138929523D01*
X164472380Y-139024761D01*
X164329523Y-139072380D01*
X164091428Y-139072380D01*
X165615238Y-139072380D02*
X165043809Y-139072380D01*
X165329523Y-139072380D02*
X165329523Y-138072380D01*
X165234285Y-138215238D01*
X165139047Y-138310476D01*
X165043809Y-138358095D01*
X155686666Y-140722380D02*
X155686666Y-139722380D01*
X155686666Y-140674761D02*
X155591428Y-140722380D01*
X155400952Y-140722380D01*
X155305714Y-140674761D01*
X155258095Y-140627142D01*
X155210476Y-140531904D01*
X155210476Y-140246190D01*
X155258095Y-140150952D01*
X155305714Y-140103333D01*
X155400952Y-140055714D01*
X155591428Y-140055714D01*
X155686666Y-140103333D01*
X156543809Y-140674761D02*
X156448571Y-140722380D01*
X156258095Y-140722380D01*
X156162857Y-140674761D01*
X156115238Y-140579523D01*
X156115238Y-140198571D01*
X156162857Y-140103333D01*
X156258095Y-140055714D01*
X156448571Y-140055714D01*
X156543809Y-140103333D01*
X156591428Y-140198571D01*
X156591428Y-140293809D01*
X156115238Y-140389047D01*
X156877142Y-140055714D02*
X157258095Y-140055714D01*
X157020000Y-140722380D02*
X157020000Y-139865238D01*
X157067619Y-139770000D01*
X157162857Y-139722380D01*
X157258095Y-139722380D01*
X158020000Y-140722380D02*
X158020000Y-140198571D01*
X157972380Y-140103333D01*
X157877142Y-140055714D01*
X157686666Y-140055714D01*
X157591428Y-140103333D01*
X158020000Y-140674761D02*
X157924761Y-140722380D01*
X157686666Y-140722380D01*
X157591428Y-140674761D01*
X157543809Y-140579523D01*
X157543809Y-140484285D01*
X157591428Y-140389047D01*
X157686666Y-140341428D01*
X157924761Y-140341428D01*
X158020000Y-140293809D01*
X158924761Y-140055714D02*
X158924761Y-140722380D01*
X158496190Y-140055714D02*
X158496190Y-140579523D01*
X158543809Y-140674761D01*
X158639047Y-140722380D01*
X158781904Y-140722380D01*
X158877142Y-140674761D01*
X158924761Y-140627142D01*
X159543809Y-140722380D02*
X159448571Y-140674761D01*
X159400952Y-140579523D01*
X159400952Y-139722380D01*
X159781904Y-140055714D02*
X160162857Y-140055714D01*
X159924761Y-139722380D02*
X159924761Y-140579523D01*
X159972380Y-140674761D01*
X160067619Y-140722380D01*
X160162857Y-140722380D01*
X161162857Y-139722380D02*
X161781904Y-139722380D01*
X161448571Y-140103333D01*
X161591428Y-140103333D01*
X161686666Y-140150952D01*
X161734285Y-140198571D01*
X161781904Y-140293809D01*
X161781904Y-140531904D01*
X161734285Y-140627142D01*
X161686666Y-140674761D01*
X161591428Y-140722380D01*
X161305714Y-140722380D01*
X161210476Y-140674761D01*
X161162857Y-140627142D01*
X162210476Y-140627142D02*
X162258095Y-140674761D01*
X162210476Y-140722380D01*
X162162857Y-140674761D01*
X162210476Y-140627142D01*
X162210476Y-140722380D01*
X163115238Y-139722380D02*
X162924761Y-139722380D01*
X162829523Y-139770000D01*
X162781904Y-139817619D01*
X162686666Y-139960476D01*
X162639047Y-140150952D01*
X162639047Y-140531904D01*
X162686666Y-140627142D01*
X162734285Y-140674761D01*
X162829523Y-140722380D01*
X163020000Y-140722380D01*
X163115238Y-140674761D01*
X163162857Y-140627142D01*
X163210476Y-140531904D01*
X163210476Y-140293809D01*
X163162857Y-140198571D01*
X163115238Y-140150952D01*
X163020000Y-140103333D01*
X162829523Y-140103333D01*
X162734285Y-140150952D01*
X162686666Y-140198571D01*
X162639047Y-140293809D01*
X164258095Y-139722380D02*
X164591428Y-140722380D01*
X164924761Y-139722380D01*
X135286904Y-141676380D02*
X134953571Y-141200190D01*
X134715476Y-141676380D02*
X134715476Y-140676380D01*
X135096428Y-140676380D01*
X135191666Y-140724000D01*
X135239285Y-140771619D01*
X135286904Y-140866857D01*
X135286904Y-141009714D01*
X135239285Y-141104952D01*
X135191666Y-141152571D01*
X135096428Y-141200190D01*
X134715476Y-141200190D01*
X136096428Y-141628761D02*
X136001190Y-141676380D01*
X135810714Y-141676380D01*
X135715476Y-141628761D01*
X135667857Y-141533523D01*
X135667857Y-141152571D01*
X135715476Y-141057333D01*
X135810714Y-141009714D01*
X136001190Y-141009714D01*
X136096428Y-141057333D01*
X136144047Y-141152571D01*
X136144047Y-141247809D01*
X135667857Y-141343047D01*
X136525000Y-141628761D02*
X136620238Y-141676380D01*
X136810714Y-141676380D01*
X136905952Y-141628761D01*
X136953571Y-141533523D01*
X136953571Y-141485904D01*
X136905952Y-141390666D01*
X136810714Y-141343047D01*
X136667857Y-141343047D01*
X136572619Y-141295428D01*
X136525000Y-141200190D01*
X136525000Y-141152571D01*
X136572619Y-141057333D01*
X136667857Y-141009714D01*
X136810714Y-141009714D01*
X136905952Y-141057333D01*
X137763095Y-141628761D02*
X137667857Y-141676380D01*
X137477380Y-141676380D01*
X137382142Y-141628761D01*
X137334523Y-141533523D01*
X137334523Y-141152571D01*
X137382142Y-141057333D01*
X137477380Y-141009714D01*
X137667857Y-141009714D01*
X137763095Y-141057333D01*
X137810714Y-141152571D01*
X137810714Y-141247809D01*
X137334523Y-141343047D01*
X138096428Y-141009714D02*
X138477380Y-141009714D01*
X138239285Y-140676380D02*
X138239285Y-141533523D01*
X138286904Y-141628761D01*
X138382142Y-141676380D01*
X138477380Y-141676380D01*
X111633047Y-133167428D02*
X112394952Y-133167428D01*
X112014000Y-133548380D02*
X112014000Y-132786476D01*
D19*
X102435000Y-125309000D02*
X99775000Y-125309000D01*
X102435000Y-125309000D02*
X102435000Y-94769000D01*
X102435000Y-94769000D02*
X99775000Y-94769000D01*
X99775000Y-125309000D02*
X99775000Y-94769000D01*
X99775000Y-127909000D02*
X99775000Y-126579000D01*
X101105000Y-127909000D02*
X99775000Y-127909000D01*
X104394000Y-141859000D02*
X114554000Y-141859000D01*
X104394000Y-134239000D02*
X104394000Y-141859000D01*
X114554000Y-134239000D02*
X104394000Y-134239000D01*
X114554000Y-141859000D02*
X114554000Y-134239000D01*
X114554000Y-140589000D02*
X104394000Y-140589000D01*
X134114000Y-87508000D02*
X134114000Y-86108000D01*
X131794000Y-86108000D02*
X131794000Y-88008000D01*
X137423000Y-91984000D02*
X139183000Y-91984000D01*
X139183000Y-88914000D02*
X136753000Y-88914000D01*
X137423000Y-88428000D02*
X139183000Y-88428000D01*
X139183000Y-85358000D02*
X136753000Y-85358000D01*
X139203000Y-81575000D02*
X137403000Y-81575000D01*
X137403000Y-84795000D02*
X140353000Y-84795000D01*
X108520000Y-91965000D02*
X110420000Y-91965000D01*
X109920000Y-89645000D02*
X108520000Y-89645000D01*
X106518400Y-130370600D02*
X106518400Y-128150600D01*
X110448400Y-130370600D02*
X110448400Y-128150600D01*
X106528400Y-128150600D02*
X107898400Y-128150600D01*
X106628400Y-130370600D02*
X106628400Y-132200600D01*
X106518400Y-130370600D02*
X106628400Y-130370600D01*
X110338400Y-128150600D02*
X110448400Y-128150600D01*
X109068400Y-128150600D02*
X110438400Y-128150600D01*
X107798400Y-130370600D02*
X109168400Y-130370600D01*
X102376500Y-91820276D02*
X102376500Y-92329724D01*
X101331500Y-91820276D02*
X101331500Y-92329724D01*
X102376500Y-87502276D02*
X102376500Y-88011724D01*
X101331500Y-87502276D02*
X101331500Y-88011724D01*
X101065000Y-92911800D02*
X101065000Y-90451800D01*
X101065000Y-90451800D02*
X99595000Y-90451800D01*
X99595000Y-90451800D02*
X99595000Y-92911800D01*
X99595000Y-86111000D02*
X99595000Y-88571000D01*
X101065000Y-86111000D02*
X99595000Y-86111000D01*
X101065000Y-88571000D02*
X101065000Y-86111000D01*
X99292000Y-84896000D02*
X99992000Y-84896000D01*
X99292000Y-84196000D02*
X99292000Y-84896000D01*
X102692000Y-80396000D02*
X102092000Y-80396000D01*
X102692000Y-83296000D02*
X102692000Y-80396000D01*
X99492000Y-80396000D02*
X100092000Y-80396000D01*
X99492000Y-83296000D02*
X99492000Y-80396000D01*
X100892000Y-84396000D02*
X101292000Y-84396000D01*
X126929000Y-135368000D02*
X125999000Y-135368000D01*
X123769000Y-135368000D02*
X124699000Y-135368000D01*
X123769000Y-135368000D02*
X123769000Y-137528000D01*
X126929000Y-135368000D02*
X126929000Y-136828000D01*
X192545000Y-112549000D02*
X193875000Y-112549000D01*
X193875000Y-112549000D02*
X193875000Y-113879000D01*
X191275000Y-112549000D02*
X191275000Y-115149000D01*
X191275000Y-115149000D02*
X193875000Y-115149000D01*
X193875000Y-115149000D02*
X193875000Y-125369000D01*
X188675000Y-125369000D02*
X193875000Y-125369000D01*
X188675000Y-112549000D02*
X188675000Y-125369000D01*
X188675000Y-112549000D02*
X191275000Y-112549000D01*
X142180000Y-139887000D02*
X142180000Y-138557000D01*
X143510000Y-139887000D02*
X142180000Y-139887000D01*
X142180000Y-137287000D02*
X142180000Y-134687000D01*
X144780000Y-137287000D02*
X142180000Y-137287000D01*
X144780000Y-139887000D02*
X144780000Y-137287000D01*
X142180000Y-134687000D02*
X152460000Y-134687000D01*
X144780000Y-139887000D02*
X152460000Y-139887000D01*
X152460000Y-139887000D02*
X152460000Y-134687000D01*
X192194000Y-78680000D02*
X192194000Y-94040000D01*
X192194000Y-94040000D02*
X194854000Y-94040000D01*
X194854000Y-94040000D02*
X194854000Y-78680000D01*
X194854000Y-78680000D02*
X192194000Y-78680000D01*
X194854000Y-79630000D02*
X200854000Y-79630000D01*
X200854000Y-79630000D02*
X200854000Y-80390000D01*
X200854000Y-80390000D02*
X194854000Y-80390000D01*
X194854000Y-79690000D02*
X200854000Y-79690000D01*
X194854000Y-79810000D02*
X200854000Y-79810000D01*
X194854000Y-79930000D02*
X200854000Y-79930000D01*
X194854000Y-80050000D02*
X200854000Y-80050000D01*
X194854000Y-80170000D02*
X200854000Y-80170000D01*
X194854000Y-80290000D02*
X200854000Y-80290000D01*
X191796929Y-79630000D02*
X192194000Y-79630000D01*
X191796929Y-80390000D02*
X192194000Y-80390000D01*
X189324000Y-79630000D02*
X189711071Y-79630000D01*
X189324000Y-80390000D02*
X189711071Y-80390000D01*
X192194000Y-81280000D02*
X194854000Y-81280000D01*
X194854000Y-82170000D02*
X200854000Y-82170000D01*
X200854000Y-82170000D02*
X200854000Y-82930000D01*
X200854000Y-82930000D02*
X194854000Y-82930000D01*
X191796929Y-82170000D02*
X192194000Y-82170000D01*
X191796929Y-82930000D02*
X192194000Y-82930000D01*
X189256929Y-82170000D02*
X189711071Y-82170000D01*
X189256929Y-82930000D02*
X189711071Y-82930000D01*
X192194000Y-83820000D02*
X194854000Y-83820000D01*
X194854000Y-84710000D02*
X200854000Y-84710000D01*
X200854000Y-84710000D02*
X200854000Y-85470000D01*
X200854000Y-85470000D02*
X194854000Y-85470000D01*
X191796929Y-84710000D02*
X192194000Y-84710000D01*
X191796929Y-85470000D02*
X192194000Y-85470000D01*
X189256929Y-84710000D02*
X189711071Y-84710000D01*
X189256929Y-85470000D02*
X189711071Y-85470000D01*
X192194000Y-86360000D02*
X194854000Y-86360000D01*
X194854000Y-87250000D02*
X200854000Y-87250000D01*
X200854000Y-87250000D02*
X200854000Y-88010000D01*
X200854000Y-88010000D02*
X194854000Y-88010000D01*
X191796929Y-87250000D02*
X192194000Y-87250000D01*
X191796929Y-88010000D02*
X192194000Y-88010000D01*
X189256929Y-87250000D02*
X189711071Y-87250000D01*
X189256929Y-88010000D02*
X189711071Y-88010000D01*
X192194000Y-88900000D02*
X194854000Y-88900000D01*
X194854000Y-89790000D02*
X200854000Y-89790000D01*
X200854000Y-89790000D02*
X200854000Y-90550000D01*
X200854000Y-90550000D02*
X194854000Y-90550000D01*
X191796929Y-89790000D02*
X192194000Y-89790000D01*
X191796929Y-90550000D02*
X192194000Y-90550000D01*
X189256929Y-89790000D02*
X189711071Y-89790000D01*
X189256929Y-90550000D02*
X189711071Y-90550000D01*
X192194000Y-91440000D02*
X194854000Y-91440000D01*
X194854000Y-92330000D02*
X200854000Y-92330000D01*
X200854000Y-92330000D02*
X200854000Y-93090000D01*
X200854000Y-93090000D02*
X194854000Y-93090000D01*
X191796929Y-92330000D02*
X192194000Y-92330000D01*
X191796929Y-93090000D02*
X192194000Y-93090000D01*
X189256929Y-92330000D02*
X189711071Y-92330000D01*
X189256929Y-93090000D02*
X189711071Y-93090000D01*
X186944000Y-80010000D02*
X186944000Y-78740000D01*
X186944000Y-78740000D02*
X188214000Y-78740000D01*
X174990000Y-132627000D02*
X184840000Y-132627000D01*
X184840000Y-132627000D02*
X185840000Y-131627000D01*
X185840000Y-131627000D02*
X185840000Y-108927000D01*
X185840000Y-108927000D02*
X162140000Y-108927000D01*
X162140000Y-108927000D02*
X162140000Y-132627000D01*
X162140000Y-132627000D02*
X172990000Y-132627000D01*
X190941000Y-138878000D02*
X190941000Y-140208000D01*
X189611000Y-138878000D02*
X190941000Y-138878000D01*
X188341000Y-138878000D02*
X188341000Y-141538000D01*
X188341000Y-141538000D02*
X170501000Y-141538000D01*
X188341000Y-138878000D02*
X170501000Y-138878000D01*
X170501000Y-138878000D02*
X170501000Y-141538000D01*
X162140000Y-107989000D02*
X172990000Y-107989000D01*
X162140000Y-84289000D02*
X162140000Y-107989000D01*
X185840000Y-84289000D02*
X162140000Y-84289000D01*
X185840000Y-106989000D02*
X185840000Y-84289000D01*
X184840000Y-107989000D02*
X185840000Y-106989000D01*
X174990000Y-107989000D02*
X184840000Y-107989000D01*
X115002000Y-87868000D02*
X115002000Y-93328000D01*
X115002000Y-93328000D02*
X145602000Y-93328000D01*
X145602000Y-93328000D02*
X145602000Y-80408000D01*
X145602000Y-80408000D02*
X115002000Y-80408000D01*
X115002000Y-80408000D02*
X115002000Y-85868000D01*
X114942000Y-95818000D02*
X145662000Y-95818000D01*
X145662000Y-95818000D02*
X145662000Y-77918000D01*
X145662000Y-77918000D02*
X114942000Y-77918000D01*
X114942000Y-77918000D02*
X114942000Y-95818000D01*
X115002000Y-85868000D02*
G75*
G02*
X115002000Y-87868000I0J-1000000D01*
G01*
X119485000Y-138543000D02*
X120185000Y-138543000D01*
X119485000Y-137843000D02*
X119485000Y-138543000D01*
X122885000Y-134043000D02*
X122285000Y-134043000D01*
X122885000Y-136943000D02*
X122885000Y-134043000D01*
X119685000Y-134043000D02*
X120285000Y-134043000D01*
X119685000Y-136943000D02*
X119685000Y-134043000D01*
X121085000Y-138043000D02*
X121485000Y-138043000D01*
X170501000Y-136338000D02*
X170501000Y-138998000D01*
X188341000Y-136338000D02*
X170501000Y-136338000D01*
X188341000Y-138998000D02*
X170501000Y-138998000D01*
X188341000Y-136338000D02*
X188341000Y-138998000D01*
X189611000Y-136338000D02*
X190941000Y-136338000D01*
X190941000Y-136338000D02*
X190941000Y-137668000D01*
X170501000Y-133798000D02*
X170501000Y-136458000D01*
X188341000Y-133798000D02*
X170501000Y-133798000D01*
X188341000Y-136458000D02*
X170501000Y-136458000D01*
X188341000Y-133798000D02*
X188341000Y-136458000D01*
X189611000Y-133798000D02*
X190941000Y-133798000D01*
X190941000Y-133798000D02*
X190941000Y-135128000D01*
X150529600Y-97035000D02*
X132629600Y-97035000D01*
X150529600Y-132835000D02*
X150529600Y-97035000D01*
X132629600Y-132835000D02*
X150529600Y-132835000D01*
X132629600Y-97035000D02*
X132629600Y-132835000D01*
X148039600Y-97095000D02*
X142579600Y-97095000D01*
X148039600Y-132775000D02*
X148039600Y-97095000D01*
X135119600Y-132775000D02*
X148039600Y-132775000D01*
X135119600Y-97095000D02*
X135119600Y-132775000D01*
X140579600Y-97095000D02*
X135119600Y-97095000D01*
X142579600Y-97095000D02*
G75*
G02*
X140579600Y-97095000I-1000000J0D01*
G01*
X138388000Y-136648000D02*
X134988000Y-136648000D01*
X140028000Y-136648000D02*
X139488000Y-136648000D01*
X132828000Y-133818000D02*
X132828000Y-133308000D01*
X133348000Y-133308000D02*
X132828000Y-133308000D01*
X133348000Y-133818000D02*
X133348000Y-133308000D01*
X133888000Y-136648000D02*
X133348000Y-136648000D01*
X140548000Y-133818000D02*
X140548000Y-133308000D01*
X140028000Y-133818000D02*
X140028000Y-133308000D01*
X133348000Y-136648000D02*
X133348000Y-136418000D01*
X140548000Y-140318000D02*
X140548000Y-136418000D01*
X140548000Y-133308000D02*
X140028000Y-133308000D01*
X132828000Y-140318000D02*
X132828000Y-136418000D01*
X140548000Y-140318000D02*
X132828000Y-140318000D01*
X140028000Y-136648000D02*
X140028000Y-136418000D01*
X186944000Y-95250000D02*
X188214000Y-95250000D01*
X186944000Y-96520000D02*
X186944000Y-95250000D01*
X189256929Y-109600000D02*
X189711071Y-109600000D01*
X189256929Y-108840000D02*
X189711071Y-108840000D01*
X191796929Y-109600000D02*
X192194000Y-109600000D01*
X191796929Y-108840000D02*
X192194000Y-108840000D01*
X200854000Y-109600000D02*
X194854000Y-109600000D01*
X200854000Y-108840000D02*
X200854000Y-109600000D01*
X194854000Y-108840000D02*
X200854000Y-108840000D01*
X192194000Y-107950000D02*
X194854000Y-107950000D01*
X189256929Y-107060000D02*
X189711071Y-107060000D01*
X189256929Y-106300000D02*
X189711071Y-106300000D01*
X191796929Y-107060000D02*
X192194000Y-107060000D01*
X191796929Y-106300000D02*
X192194000Y-106300000D01*
X200854000Y-107060000D02*
X194854000Y-107060000D01*
X200854000Y-106300000D02*
X200854000Y-107060000D01*
X194854000Y-106300000D02*
X200854000Y-106300000D01*
X192194000Y-105410000D02*
X194854000Y-105410000D01*
X189256929Y-104520000D02*
X189711071Y-104520000D01*
X189256929Y-103760000D02*
X189711071Y-103760000D01*
X191796929Y-104520000D02*
X192194000Y-104520000D01*
X191796929Y-103760000D02*
X192194000Y-103760000D01*
X200854000Y-104520000D02*
X194854000Y-104520000D01*
X200854000Y-103760000D02*
X200854000Y-104520000D01*
X194854000Y-103760000D02*
X200854000Y-103760000D01*
X192194000Y-102870000D02*
X194854000Y-102870000D01*
X189256929Y-101980000D02*
X189711071Y-101980000D01*
X189256929Y-101220000D02*
X189711071Y-101220000D01*
X191796929Y-101980000D02*
X192194000Y-101980000D01*
X191796929Y-101220000D02*
X192194000Y-101220000D01*
X200854000Y-101980000D02*
X194854000Y-101980000D01*
X200854000Y-101220000D02*
X200854000Y-101980000D01*
X194854000Y-101220000D02*
X200854000Y-101220000D01*
X192194000Y-100330000D02*
X194854000Y-100330000D01*
X189256929Y-99440000D02*
X189711071Y-99440000D01*
X189256929Y-98680000D02*
X189711071Y-98680000D01*
X191796929Y-99440000D02*
X192194000Y-99440000D01*
X191796929Y-98680000D02*
X192194000Y-98680000D01*
X200854000Y-99440000D02*
X194854000Y-99440000D01*
X200854000Y-98680000D02*
X200854000Y-99440000D01*
X194854000Y-98680000D02*
X200854000Y-98680000D01*
X192194000Y-97790000D02*
X194854000Y-97790000D01*
X189324000Y-96900000D02*
X189711071Y-96900000D01*
X189324000Y-96140000D02*
X189711071Y-96140000D01*
X191796929Y-96900000D02*
X192194000Y-96900000D01*
X191796929Y-96140000D02*
X192194000Y-96140000D01*
X194854000Y-96800000D02*
X200854000Y-96800000D01*
X194854000Y-96680000D02*
X200854000Y-96680000D01*
X194854000Y-96560000D02*
X200854000Y-96560000D01*
X194854000Y-96440000D02*
X200854000Y-96440000D01*
X194854000Y-96320000D02*
X200854000Y-96320000D01*
X194854000Y-96200000D02*
X200854000Y-96200000D01*
X200854000Y-96900000D02*
X194854000Y-96900000D01*
X200854000Y-96140000D02*
X200854000Y-96900000D01*
X194854000Y-96140000D02*
X200854000Y-96140000D01*
X194854000Y-95190000D02*
X192194000Y-95190000D01*
X194854000Y-110550000D02*
X194854000Y-95190000D01*
X192194000Y-110550000D02*
X194854000Y-110550000D01*
X192194000Y-95190000D02*
X192194000Y-110550000D01*
X127119767Y-100455000D02*
X126827233Y-100455000D01*
X127119767Y-101475000D02*
X126827233Y-101475000D01*
X148614000Y-79280000D02*
X148944000Y-79280000D01*
X148944000Y-79280000D02*
X148944000Y-85820000D01*
X148944000Y-85820000D02*
X148614000Y-85820000D01*
X146534000Y-79280000D02*
X146204000Y-79280000D01*
X146204000Y-79280000D02*
X146204000Y-85820000D01*
X146204000Y-85820000D02*
X146534000Y-85820000D01*
X150575000Y-75779000D02*
X150575000Y-74449000D01*
X150575000Y-74449000D02*
X151905000Y-74449000D01*
X153175000Y-74449000D02*
X181175000Y-74449000D01*
X181175000Y-77109000D02*
X181175000Y-74449000D01*
X153175000Y-77109000D02*
X181175000Y-77109000D01*
X153175000Y-77109000D02*
X153175000Y-74449000D01*
X132013000Y-97035000D02*
X114113000Y-97035000D01*
X132013000Y-132835000D02*
X132013000Y-97035000D01*
X114113000Y-132835000D02*
X132013000Y-132835000D01*
X114113000Y-97035000D02*
X114113000Y-132835000D01*
X129523000Y-97095000D02*
X124063000Y-97095000D01*
X129523000Y-132775000D02*
X129523000Y-97095000D01*
X116603000Y-132775000D02*
X129523000Y-132775000D01*
X116603000Y-97095000D02*
X116603000Y-132775000D01*
X122063000Y-97095000D02*
X116603000Y-97095000D01*
X124063000Y-97095000D02*
G75*
G02*
X122063000Y-97095000I-1000000J0D01*
G01*
X103318000Y-124834000D02*
X113598000Y-124834000D01*
X103318000Y-99194000D02*
X103318000Y-124834000D01*
X113598000Y-99194000D02*
X103318000Y-99194000D01*
X113598000Y-124834000D02*
X113598000Y-99194000D01*
X105808000Y-124774000D02*
X107458000Y-124774000D01*
X105808000Y-99254000D02*
X105808000Y-124774000D01*
X111108000Y-99254000D02*
X105808000Y-99254000D01*
X111108000Y-124774000D02*
X111108000Y-99254000D01*
X109458000Y-124774000D02*
X111108000Y-124774000D01*
X107458000Y-124774000D02*
G75*
G02*
X109458000Y-124774000I1000000J0D01*
G01*
X118819000Y-86995000D02*
X118819000Y-90855000D01*
X118819000Y-90855000D02*
X119074000Y-90855000D01*
X118819000Y-86995000D02*
X118819000Y-83135000D01*
X118819000Y-83135000D02*
X119074000Y-83135000D01*
X129339000Y-86995000D02*
X129339000Y-90855000D01*
X129339000Y-90855000D02*
X129084000Y-90855000D01*
X129339000Y-86995000D02*
X129339000Y-83135000D01*
X129339000Y-83135000D02*
X129084000Y-83135000D01*
X129084000Y-83135000D02*
X129084000Y-81320000D01*
X161400800Y-107195000D02*
X151120800Y-107195000D01*
X161400800Y-132835000D02*
X161400800Y-107195000D01*
X151120800Y-132835000D02*
X161400800Y-132835000D01*
X151120800Y-107195000D02*
X151120800Y-132835000D01*
X158910800Y-107255000D02*
X157260800Y-107255000D01*
X158910800Y-132775000D02*
X158910800Y-107255000D01*
X153610800Y-132775000D02*
X158910800Y-132775000D01*
X153610800Y-107255000D02*
X153610800Y-132775000D01*
X155260800Y-107255000D02*
X153610800Y-107255000D01*
X157260800Y-107255000D02*
G75*
G02*
X155260800Y-107255000I-1000000J0D01*
G01*
X104080000Y-96005000D02*
X114360000Y-96005000D01*
X104080000Y-77985000D02*
X104080000Y-96005000D01*
X114360000Y-77985000D02*
X104080000Y-77985000D01*
X114360000Y-96005000D02*
X114360000Y-77985000D01*
X106570000Y-95945000D02*
X108220000Y-95945000D01*
X106570000Y-78045000D02*
X106570000Y-95945000D01*
X111870000Y-78045000D02*
X106570000Y-78045000D01*
X111870000Y-95945000D02*
X111870000Y-78045000D01*
X110220000Y-95945000D02*
X111870000Y-95945000D01*
X108220000Y-95945000D02*
G75*
G02*
X110220000Y-95945000I1000000J0D01*
G01*
X109995000Y-77109000D02*
X109995000Y-74449000D01*
X109995000Y-77109000D02*
X148155000Y-77109000D01*
X148155000Y-77109000D02*
X148155000Y-74449000D01*
X109995000Y-74449000D02*
X148155000Y-74449000D01*
X107395000Y-74449000D02*
X108725000Y-74449000D01*
X107395000Y-75779000D02*
X107395000Y-74449000D01*
X161350000Y-85986000D02*
X151070000Y-85986000D01*
X161350000Y-106546000D02*
X161350000Y-85986000D01*
X151070000Y-106546000D02*
X161350000Y-106546000D01*
X151070000Y-85986000D02*
X151070000Y-106546000D01*
X158860000Y-86046000D02*
X157210000Y-86046000D01*
X158860000Y-106486000D02*
X158860000Y-86046000D01*
X153560000Y-106486000D02*
X158860000Y-106486000D01*
X153560000Y-86046000D02*
X153560000Y-106486000D01*
X155210000Y-86046000D02*
X153560000Y-86046000D01*
X157210000Y-86046000D02*
G75*
G02*
X155210000Y-86046000I-1000000J0D01*
G01*
D10*
X131730904Y-83145380D02*
X131730904Y-83954904D01*
X131778523Y-84050142D01*
X131826142Y-84097761D01*
X131921380Y-84145380D01*
X132111857Y-84145380D01*
X132207095Y-84097761D01*
X132254714Y-84050142D01*
X132302333Y-83954904D01*
X132302333Y-83145380D01*
X133302333Y-84145380D02*
X132730904Y-84145380D01*
X133016619Y-84145380D02*
X133016619Y-83145380D01*
X132921380Y-83288238D01*
X132826142Y-83383476D01*
X132730904Y-83431095D01*
X133873761Y-83573952D02*
X133778523Y-83526333D01*
X133730904Y-83478714D01*
X133683285Y-83383476D01*
X133683285Y-83335857D01*
X133730904Y-83240619D01*
X133778523Y-83193000D01*
X133873761Y-83145380D01*
X134064238Y-83145380D01*
X134159476Y-83193000D01*
X134207095Y-83240619D01*
X134254714Y-83335857D01*
X134254714Y-83383476D01*
X134207095Y-83478714D01*
X134159476Y-83526333D01*
X134064238Y-83573952D01*
X133873761Y-83573952D01*
X133778523Y-83621571D01*
X133730904Y-83669190D01*
X133683285Y-83764428D01*
X133683285Y-83954904D01*
X133730904Y-84050142D01*
X133778523Y-84097761D01*
X133873761Y-84145380D01*
X134064238Y-84145380D01*
X134159476Y-84097761D01*
X134207095Y-84050142D01*
X134254714Y-83954904D01*
X134254714Y-83764428D01*
X134207095Y-83669190D01*
X134159476Y-83621571D01*
X134064238Y-83573952D01*
X141382904Y-89876380D02*
X141382904Y-90685904D01*
X141430523Y-90781142D01*
X141478142Y-90828761D01*
X141573380Y-90876380D01*
X141763857Y-90876380D01*
X141859095Y-90828761D01*
X141906714Y-90781142D01*
X141954333Y-90685904D01*
X141954333Y-89876380D01*
X142954333Y-90876380D02*
X142382904Y-90876380D01*
X142668619Y-90876380D02*
X142668619Y-89876380D01*
X142573380Y-90019238D01*
X142478142Y-90114476D01*
X142382904Y-90162095D01*
X143811476Y-90209714D02*
X143811476Y-90876380D01*
X143573380Y-89828761D02*
X143335285Y-90543047D01*
X143954333Y-90543047D01*
X141382904Y-86320380D02*
X141382904Y-87129904D01*
X141430523Y-87225142D01*
X141478142Y-87272761D01*
X141573380Y-87320380D01*
X141763857Y-87320380D01*
X141859095Y-87272761D01*
X141906714Y-87225142D01*
X141954333Y-87129904D01*
X141954333Y-86320380D01*
X142954333Y-87320380D02*
X142382904Y-87320380D01*
X142668619Y-87320380D02*
X142668619Y-86320380D01*
X142573380Y-86463238D01*
X142478142Y-86558476D01*
X142382904Y-86606095D01*
X143811476Y-86320380D02*
X143621000Y-86320380D01*
X143525761Y-86368000D01*
X143478142Y-86415619D01*
X143382904Y-86558476D01*
X143335285Y-86748952D01*
X143335285Y-87129904D01*
X143382904Y-87225142D01*
X143430523Y-87272761D01*
X143525761Y-87320380D01*
X143716238Y-87320380D01*
X143811476Y-87272761D01*
X143859095Y-87225142D01*
X143906714Y-87129904D01*
X143906714Y-86891809D01*
X143859095Y-86796571D01*
X143811476Y-86748952D01*
X143716238Y-86701333D01*
X143525761Y-86701333D01*
X143430523Y-86748952D01*
X143382904Y-86796571D01*
X143335285Y-86891809D01*
X141382904Y-82637380D02*
X141382904Y-83446904D01*
X141430523Y-83542142D01*
X141478142Y-83589761D01*
X141573380Y-83637380D01*
X141763857Y-83637380D01*
X141859095Y-83589761D01*
X141906714Y-83542142D01*
X141954333Y-83446904D01*
X141954333Y-82637380D01*
X142954333Y-83637380D02*
X142382904Y-83637380D01*
X142668619Y-83637380D02*
X142668619Y-82637380D01*
X142573380Y-82780238D01*
X142478142Y-82875476D01*
X142382904Y-82923095D01*
X143859095Y-82637380D02*
X143382904Y-82637380D01*
X143335285Y-83113571D01*
X143382904Y-83065952D01*
X143478142Y-83018333D01*
X143716238Y-83018333D01*
X143811476Y-83065952D01*
X143859095Y-83113571D01*
X143906714Y-83208809D01*
X143906714Y-83446904D01*
X143859095Y-83542142D01*
X143811476Y-83589761D01*
X143716238Y-83637380D01*
X143478142Y-83637380D01*
X143382904Y-83589761D01*
X143335285Y-83542142D01*
X107981904Y-88225380D02*
X107981904Y-89034904D01*
X108029523Y-89130142D01*
X108077142Y-89177761D01*
X108172380Y-89225380D01*
X108362857Y-89225380D01*
X108458095Y-89177761D01*
X108505714Y-89130142D01*
X108553333Y-89034904D01*
X108553333Y-88225380D01*
X109553333Y-89225380D02*
X108981904Y-89225380D01*
X109267619Y-89225380D02*
X109267619Y-88225380D01*
X109172380Y-88368238D01*
X109077142Y-88463476D01*
X108981904Y-88511095D01*
X109886666Y-88225380D02*
X110553333Y-88225380D01*
X110124761Y-89225380D01*
X173228095Y-120229380D02*
X173228095Y-121038904D01*
X173275714Y-121134142D01*
X173323333Y-121181761D01*
X173418571Y-121229380D01*
X173609047Y-121229380D01*
X173704285Y-121181761D01*
X173751904Y-121134142D01*
X173799523Y-121038904D01*
X173799523Y-120229380D01*
X174799523Y-121229380D02*
X174228095Y-121229380D01*
X174513809Y-121229380D02*
X174513809Y-120229380D01*
X174418571Y-120372238D01*
X174323333Y-120467476D01*
X174228095Y-120515095D01*
X173228095Y-95591380D02*
X173228095Y-96400904D01*
X173275714Y-96496142D01*
X173323333Y-96543761D01*
X173418571Y-96591380D01*
X173609047Y-96591380D01*
X173704285Y-96543761D01*
X173751904Y-96496142D01*
X173799523Y-96400904D01*
X173799523Y-95591380D01*
X174704285Y-95591380D02*
X174513809Y-95591380D01*
X174418571Y-95639000D01*
X174370952Y-95686619D01*
X174275714Y-95829476D01*
X174228095Y-96019952D01*
X174228095Y-96400904D01*
X174275714Y-96496142D01*
X174323333Y-96543761D01*
X174418571Y-96591380D01*
X174609047Y-96591380D01*
X174704285Y-96543761D01*
X174751904Y-96496142D01*
X174799523Y-96400904D01*
X174799523Y-96162809D01*
X174751904Y-96067571D01*
X174704285Y-96019952D01*
X174609047Y-95972333D01*
X174418571Y-95972333D01*
X174323333Y-96019952D01*
X174275714Y-96067571D01*
X174228095Y-96162809D01*
X124139833Y-101322142D02*
X124092214Y-101369761D01*
X123949357Y-101417380D01*
X123854119Y-101417380D01*
X123711261Y-101369761D01*
X123616023Y-101274523D01*
X123568404Y-101179285D01*
X123520785Y-100988809D01*
X123520785Y-100845952D01*
X123568404Y-100655476D01*
X123616023Y-100560238D01*
X123711261Y-100465000D01*
X123854119Y-100417380D01*
X123949357Y-100417380D01*
X124092214Y-100465000D01*
X124139833Y-100512619D01*
X124711261Y-100845952D02*
X124616023Y-100798333D01*
X124568404Y-100750714D01*
X124520785Y-100655476D01*
X124520785Y-100607857D01*
X124568404Y-100512619D01*
X124616023Y-100465000D01*
X124711261Y-100417380D01*
X124901738Y-100417380D01*
X124996976Y-100465000D01*
X125044595Y-100512619D01*
X125092214Y-100607857D01*
X125092214Y-100655476D01*
X125044595Y-100750714D01*
X124996976Y-100798333D01*
X124901738Y-100845952D01*
X124711261Y-100845952D01*
X124616023Y-100893571D01*
X124568404Y-100941190D01*
X124520785Y-101036428D01*
X124520785Y-101226904D01*
X124568404Y-101322142D01*
X124616023Y-101369761D01*
X124711261Y-101417380D01*
X124901738Y-101417380D01*
X124996976Y-101369761D01*
X125044595Y-101322142D01*
X125092214Y-101226904D01*
X125092214Y-101036428D01*
X125044595Y-100941190D01*
X124996976Y-100893571D01*
X124901738Y-100845952D01*
X148026380Y-83192857D02*
X147550190Y-83526190D01*
X148026380Y-83764285D02*
X147026380Y-83764285D01*
X147026380Y-83383333D01*
X147074000Y-83288095D01*
X147121619Y-83240476D01*
X147216857Y-83192857D01*
X147359714Y-83192857D01*
X147454952Y-83240476D01*
X147502571Y-83288095D01*
X147550190Y-83383333D01*
X147550190Y-83764285D01*
X148026380Y-82240476D02*
X148026380Y-82811904D01*
X148026380Y-82526190D02*
X147026380Y-82526190D01*
X147169238Y-82621428D01*
X147264476Y-82716666D01*
X147312095Y-82811904D01*
X147026380Y-81621428D02*
X147026380Y-81526190D01*
X147074000Y-81430952D01*
X147121619Y-81383333D01*
X147216857Y-81335714D01*
X147407333Y-81288095D01*
X147645428Y-81288095D01*
X147835904Y-81335714D01*
X147931142Y-81383333D01*
X147978761Y-81430952D01*
X148026380Y-81526190D01*
X148026380Y-81621428D01*
X147978761Y-81716666D01*
X147931142Y-81764285D01*
X147835904Y-81811904D01*
X147645428Y-81859523D01*
X147407333Y-81859523D01*
X147216857Y-81811904D01*
X147121619Y-81764285D01*
X147074000Y-81716666D01*
X147026380Y-81621428D01*
X121880380Y-88233095D02*
X122689904Y-88233095D01*
X122785142Y-88185476D01*
X122832761Y-88137857D01*
X122880380Y-88042619D01*
X122880380Y-87852142D01*
X122832761Y-87756904D01*
X122785142Y-87709285D01*
X122689904Y-87661666D01*
X121880380Y-87661666D01*
X122880380Y-86661666D02*
X122880380Y-87233095D01*
X122880380Y-86947380D02*
X121880380Y-86947380D01*
X122023238Y-87042619D01*
X122118476Y-87137857D01*
X122166095Y-87233095D01*
X121880380Y-86042619D02*
X121880380Y-85947380D01*
X121928000Y-85852142D01*
X121975619Y-85804523D01*
X122070857Y-85756904D01*
X122261333Y-85709285D01*
X122499428Y-85709285D01*
X122689904Y-85756904D01*
X122785142Y-85804523D01*
X122832761Y-85852142D01*
X122880380Y-85947380D01*
X122880380Y-86042619D01*
X122832761Y-86137857D01*
X122785142Y-86185476D01*
X122689904Y-86233095D01*
X122499428Y-86280714D01*
X122261333Y-86280714D01*
X122070857Y-86233095D01*
X121975619Y-86185476D01*
X121928000Y-86137857D01*
X121880380Y-86042619D01*
%LPC*%
D20*
X101105000Y-96099000D03*
X101105000Y-98639000D03*
X101105000Y-101179000D03*
X101105000Y-103719000D03*
X101105000Y-106259000D03*
X101105000Y-108799000D03*
X101105000Y-111339000D03*
X101105000Y-113879000D03*
X101105000Y-116419000D03*
X101105000Y-118959000D03*
X101105000Y-121499000D03*
X101105000Y-124039000D03*
D21*
X101105000Y-126579000D03*
D22*
X106934000Y-138049000D03*
D23*
X112014000Y-138049000D03*
D24*
X132304000Y-88138000D03*
X132954000Y-88138000D03*
X133604000Y-88138000D03*
X133604000Y-85478000D03*
X132304000Y-85478000D03*
D25*
X140013000Y-89474000D03*
X140013000Y-91374000D03*
X136593000Y-91374000D03*
X136593000Y-90424000D03*
X136593000Y-89474000D03*
X140013000Y-85918000D03*
X140013000Y-87818000D03*
X136593000Y-87818000D03*
X136593000Y-86868000D03*
X136593000Y-85918000D03*
D26*
X136953000Y-83185000D03*
X136953000Y-84135000D03*
X136953000Y-82235000D03*
X139653000Y-82235000D03*
X139653000Y-83185000D03*
X139653000Y-84135000D03*
D27*
X107890000Y-91455000D03*
X107890000Y-90155000D03*
X110550000Y-90155000D03*
X110550000Y-90805000D03*
X110550000Y-91455000D03*
D28*
X108483400Y-127760600D03*
X109753400Y-130760600D03*
X107213400Y-130760600D03*
G36*
G01*
X101616500Y-92500000D02*
X102091500Y-92500000D01*
G75*
G02*
X102329000Y-92737500I0J-237500D01*
G01*
X102329000Y-93237500D01*
G75*
G02*
X102091500Y-93475000I-237500J0D01*
G01*
X101616500Y-93475000D01*
G75*
G02*
X101379000Y-93237500I0J237500D01*
G01*
X101379000Y-92737500D01*
G75*
G02*
X101616500Y-92500000I237500J0D01*
G01*
G37*
G36*
G01*
X101616500Y-90675000D02*
X102091500Y-90675000D01*
G75*
G02*
X102329000Y-90912500I0J-237500D01*
G01*
X102329000Y-91412500D01*
G75*
G02*
X102091500Y-91650000I-237500J0D01*
G01*
X101616500Y-91650000D01*
G75*
G02*
X101379000Y-91412500I0J237500D01*
G01*
X101379000Y-90912500D01*
G75*
G02*
X101616500Y-90675000I237500J0D01*
G01*
G37*
G36*
G01*
X101616500Y-88182000D02*
X102091500Y-88182000D01*
G75*
G02*
X102329000Y-88419500I0J-237500D01*
G01*
X102329000Y-88919500D01*
G75*
G02*
X102091500Y-89157000I-237500J0D01*
G01*
X101616500Y-89157000D01*
G75*
G02*
X101379000Y-88919500I0J237500D01*
G01*
X101379000Y-88419500D01*
G75*
G02*
X101616500Y-88182000I237500J0D01*
G01*
G37*
G36*
G01*
X101616500Y-86357000D02*
X102091500Y-86357000D01*
G75*
G02*
X102329000Y-86594500I0J-237500D01*
G01*
X102329000Y-87094500D01*
G75*
G02*
X102091500Y-87332000I-237500J0D01*
G01*
X101616500Y-87332000D01*
G75*
G02*
X101379000Y-87094500I0J237500D01*
G01*
X101379000Y-86594500D01*
G75*
G02*
X101616500Y-86357000I237500J0D01*
G01*
G37*
G36*
G01*
X100092500Y-92461800D02*
X100567500Y-92461800D01*
G75*
G02*
X100805000Y-92699300I0J-237500D01*
G01*
X100805000Y-93274300D01*
G75*
G02*
X100567500Y-93511800I-237500J0D01*
G01*
X100092500Y-93511800D01*
G75*
G02*
X99855000Y-93274300I0J237500D01*
G01*
X99855000Y-92699300D01*
G75*
G02*
X100092500Y-92461800I237500J0D01*
G01*
G37*
G36*
G01*
X100092500Y-90711800D02*
X100567500Y-90711800D01*
G75*
G02*
X100805000Y-90949300I0J-237500D01*
G01*
X100805000Y-91524300D01*
G75*
G02*
X100567500Y-91761800I-237500J0D01*
G01*
X100092500Y-91761800D01*
G75*
G02*
X99855000Y-91524300I0J237500D01*
G01*
X99855000Y-90949300D01*
G75*
G02*
X100092500Y-90711800I237500J0D01*
G01*
G37*
G36*
G01*
X100092500Y-86371000D02*
X100567500Y-86371000D01*
G75*
G02*
X100805000Y-86608500I0J-237500D01*
G01*
X100805000Y-87183500D01*
G75*
G02*
X100567500Y-87421000I-237500J0D01*
G01*
X100092500Y-87421000D01*
G75*
G02*
X99855000Y-87183500I0J237500D01*
G01*
X99855000Y-86608500D01*
G75*
G02*
X100092500Y-86371000I237500J0D01*
G01*
G37*
G36*
G01*
X100092500Y-88121000D02*
X100567500Y-88121000D01*
G75*
G02*
X100805000Y-88358500I0J-237500D01*
G01*
X100805000Y-88933500D01*
G75*
G02*
X100567500Y-89171000I-237500J0D01*
G01*
X100092500Y-89171000D01*
G75*
G02*
X99855000Y-88933500I0J237500D01*
G01*
X99855000Y-88358500D01*
G75*
G02*
X100092500Y-88121000I237500J0D01*
G01*
G37*
D29*
X101092000Y-80846000D03*
D30*
X102092000Y-84096000D03*
X100092000Y-84096000D03*
D31*
X125349000Y-135128000D03*
X126299000Y-137128000D03*
X124399000Y-137128000D03*
D20*
X190005000Y-124039000D03*
X192545000Y-124039000D03*
X190005000Y-121499000D03*
X192545000Y-121499000D03*
X190005000Y-118959000D03*
X192545000Y-118959000D03*
X190005000Y-116419000D03*
X192545000Y-116419000D03*
X190005000Y-113879000D03*
D21*
X192545000Y-113879000D03*
D32*
X193925000Y-139827000D03*
X100925000Y-139827000D03*
D20*
X151130000Y-136017000D03*
X151130000Y-138557000D03*
X148590000Y-136017000D03*
X148590000Y-138557000D03*
X146050000Y-136017000D03*
X146050000Y-138557000D03*
X143510000Y-136017000D03*
D21*
X143510000Y-138557000D03*
X188214000Y-80010000D03*
D20*
X190754000Y-80010000D03*
X188214000Y-82550000D03*
X190754000Y-82550000D03*
X188214000Y-85090000D03*
X190754000Y-85090000D03*
X188214000Y-87630000D03*
X190754000Y-87630000D03*
X188214000Y-90170000D03*
X190754000Y-90170000D03*
X188214000Y-92710000D03*
X190754000Y-92710000D03*
D33*
X172720000Y-127127000D03*
D34*
X175260000Y-127127000D03*
X177800000Y-127127000D03*
X170180000Y-127127000D03*
X167640000Y-127127000D03*
X175260000Y-129667000D03*
X177800000Y-129667000D03*
X180340000Y-129667000D03*
X172720000Y-129667000D03*
X170180000Y-129667000D03*
X180340000Y-127127000D03*
X180340000Y-124587000D03*
X180340000Y-122047000D03*
X180340000Y-119507000D03*
X180340000Y-116967000D03*
X182880000Y-127127000D03*
X182880000Y-124587000D03*
X182880000Y-122047000D03*
X182880000Y-119507000D03*
X182880000Y-116967000D03*
X182880000Y-114427000D03*
X180340000Y-114427000D03*
X177800000Y-114427000D03*
X175260000Y-114427000D03*
X172720000Y-114427000D03*
X170180000Y-114427000D03*
X165100000Y-114427000D03*
X180340000Y-111887000D03*
X177800000Y-111887000D03*
X175260000Y-111887000D03*
X172720000Y-111887000D03*
X170180000Y-111887000D03*
X167640000Y-111887000D03*
X167640000Y-114427000D03*
X167640000Y-116967000D03*
X167640000Y-119507000D03*
X167640000Y-122047000D03*
X167640000Y-124587000D03*
X167640000Y-129667000D03*
X165100000Y-116967000D03*
X165100000Y-119507000D03*
X165100000Y-122047000D03*
X165100000Y-124587000D03*
X165100000Y-127127000D03*
D20*
X171831000Y-140208000D03*
X174371000Y-140208000D03*
X176911000Y-140208000D03*
X179451000Y-140208000D03*
X181991000Y-140208000D03*
X184531000Y-140208000D03*
X187071000Y-140208000D03*
D21*
X189611000Y-140208000D03*
D34*
X165100000Y-102489000D03*
X165100000Y-99949000D03*
X165100000Y-97409000D03*
X165100000Y-94869000D03*
X165100000Y-92329000D03*
X167640000Y-105029000D03*
X167640000Y-99949000D03*
X167640000Y-97409000D03*
X167640000Y-94869000D03*
X167640000Y-92329000D03*
X167640000Y-89789000D03*
X167640000Y-87249000D03*
X170180000Y-87249000D03*
X172720000Y-87249000D03*
X175260000Y-87249000D03*
X177800000Y-87249000D03*
X180340000Y-87249000D03*
X165100000Y-89789000D03*
X170180000Y-89789000D03*
X172720000Y-89789000D03*
X175260000Y-89789000D03*
X177800000Y-89789000D03*
X180340000Y-89789000D03*
X182880000Y-89789000D03*
X182880000Y-92329000D03*
X182880000Y-94869000D03*
X182880000Y-97409000D03*
X182880000Y-99949000D03*
X182880000Y-102489000D03*
X180340000Y-92329000D03*
X180340000Y-94869000D03*
X180340000Y-97409000D03*
X180340000Y-99949000D03*
X180340000Y-102489000D03*
X170180000Y-105029000D03*
X172720000Y-105029000D03*
X180340000Y-105029000D03*
X177800000Y-105029000D03*
X175260000Y-105029000D03*
X167640000Y-102489000D03*
X170180000Y-102489000D03*
X177800000Y-102489000D03*
X175260000Y-102489000D03*
D33*
X172720000Y-102489000D03*
D35*
X116332000Y-79248000D03*
X144272000Y-94488000D03*
X118872000Y-79248000D03*
X141732000Y-94488000D03*
X121412000Y-79248000D03*
X139192000Y-94488000D03*
X123952000Y-79248000D03*
X136652000Y-94488000D03*
X126492000Y-79248000D03*
X134112000Y-94488000D03*
X129032000Y-79248000D03*
X131572000Y-94488000D03*
X131572000Y-79248000D03*
X129032000Y-94488000D03*
X134112000Y-79248000D03*
X126492000Y-94488000D03*
X136652000Y-79248000D03*
X123952000Y-94488000D03*
X139192000Y-79248000D03*
X121412000Y-94488000D03*
X141732000Y-79248000D03*
X118872000Y-94488000D03*
X144272000Y-79248000D03*
D36*
X116332000Y-94488000D03*
D29*
X121285000Y-134493000D03*
D30*
X122285000Y-137743000D03*
X120285000Y-137743000D03*
D23*
X116463000Y-136906000D03*
X129663000Y-136906000D03*
D20*
X171831000Y-137668000D03*
X174371000Y-137668000D03*
X176911000Y-137668000D03*
X179451000Y-137668000D03*
X181991000Y-137668000D03*
X184531000Y-137668000D03*
X187071000Y-137668000D03*
D21*
X189611000Y-137668000D03*
D20*
X171831000Y-135128000D03*
X174371000Y-135128000D03*
X176911000Y-135128000D03*
X179451000Y-135128000D03*
X181991000Y-135128000D03*
X184531000Y-135128000D03*
X187071000Y-135128000D03*
D21*
X189611000Y-135128000D03*
D36*
X133959600Y-98425000D03*
D35*
X149199600Y-131445000D03*
X133959600Y-100965000D03*
X149199600Y-128905000D03*
X133959600Y-103505000D03*
X149199600Y-126365000D03*
X133959600Y-106045000D03*
X149199600Y-123825000D03*
X133959600Y-108585000D03*
X149199600Y-121285000D03*
X133959600Y-111125000D03*
X149199600Y-118745000D03*
X133959600Y-113665000D03*
X149199600Y-116205000D03*
X133959600Y-116205000D03*
X149199600Y-113665000D03*
X133959600Y-118745000D03*
X149199600Y-111125000D03*
X133959600Y-121285000D03*
X149199600Y-108585000D03*
X133959600Y-123825000D03*
X149199600Y-106045000D03*
X133959600Y-126365000D03*
X149199600Y-103505000D03*
X133959600Y-128905000D03*
X149199600Y-100965000D03*
X133959600Y-131445000D03*
X149199600Y-98425000D03*
D37*
X133178000Y-135128000D03*
D38*
X134438000Y-137618000D03*
X138938000Y-137618000D03*
D37*
X140188000Y-135128000D03*
D21*
X188214000Y-96520000D03*
D20*
X190754000Y-96520000D03*
X188214000Y-99060000D03*
X190754000Y-99060000D03*
X188214000Y-101600000D03*
X190754000Y-101600000D03*
X188214000Y-104140000D03*
X190754000Y-104140000D03*
X188214000Y-106680000D03*
X190754000Y-106680000D03*
X188214000Y-109220000D03*
X190754000Y-109220000D03*
G36*
G01*
X128373500Y-100727500D02*
X128373500Y-101202500D01*
G75*
G02*
X128136000Y-101440000I-237500J0D01*
G01*
X127536000Y-101440000D01*
G75*
G02*
X127298500Y-101202500I0J237500D01*
G01*
X127298500Y-100727500D01*
G75*
G02*
X127536000Y-100490000I237500J0D01*
G01*
X128136000Y-100490000D01*
G75*
G02*
X128373500Y-100727500I0J-237500D01*
G01*
G37*
G36*
G01*
X126648500Y-100727500D02*
X126648500Y-101202500D01*
G75*
G02*
X126411000Y-101440000I-237500J0D01*
G01*
X125811000Y-101440000D01*
G75*
G02*
X125573500Y-101202500I0J237500D01*
G01*
X125573500Y-100727500D01*
G75*
G02*
X125811000Y-100490000I237500J0D01*
G01*
X126411000Y-100490000D01*
G75*
G02*
X126648500Y-100727500I0J-237500D01*
G01*
G37*
D35*
X147574000Y-86360000D03*
D39*
X147574000Y-78740000D03*
D21*
X151905000Y-75779000D03*
D20*
X154445000Y-75779000D03*
X156985000Y-75779000D03*
X159525000Y-75779000D03*
X162065000Y-75779000D03*
X164605000Y-75779000D03*
X167145000Y-75779000D03*
X169685000Y-75779000D03*
X172225000Y-75779000D03*
X174765000Y-75779000D03*
X177305000Y-75779000D03*
X179845000Y-75779000D03*
D35*
X130683000Y-98425000D03*
X115443000Y-131445000D03*
X130683000Y-100965000D03*
X115443000Y-128905000D03*
X130683000Y-103505000D03*
X115443000Y-126365000D03*
X130683000Y-106045000D03*
X115443000Y-123825000D03*
X130683000Y-108585000D03*
X115443000Y-121285000D03*
X130683000Y-111125000D03*
X115443000Y-118745000D03*
X130683000Y-113665000D03*
X115443000Y-116205000D03*
X130683000Y-116205000D03*
X115443000Y-113665000D03*
X130683000Y-118745000D03*
X115443000Y-111125000D03*
X130683000Y-121285000D03*
X115443000Y-108585000D03*
X130683000Y-123825000D03*
X115443000Y-106045000D03*
X130683000Y-126365000D03*
X115443000Y-103505000D03*
X130683000Y-128905000D03*
X115443000Y-100965000D03*
X130683000Y-131445000D03*
D36*
X115443000Y-98425000D03*
D35*
X104648000Y-123444000D03*
X112268000Y-100584000D03*
X104648000Y-120904000D03*
X112268000Y-103124000D03*
X104648000Y-118364000D03*
X112268000Y-105664000D03*
X104648000Y-115824000D03*
X112268000Y-108204000D03*
X104648000Y-113284000D03*
X112268000Y-110744000D03*
X104648000Y-110744000D03*
X112268000Y-113284000D03*
X104648000Y-108204000D03*
X112268000Y-115824000D03*
X104648000Y-105664000D03*
X112268000Y-118364000D03*
X104648000Y-103124000D03*
X112268000Y-120904000D03*
X104648000Y-100584000D03*
D36*
X112268000Y-123444000D03*
G36*
G01*
X128374000Y-81320000D02*
X128674000Y-81320000D01*
G75*
G02*
X128824000Y-81470000I0J-150000D01*
G01*
X128824000Y-83220000D01*
G75*
G02*
X128674000Y-83370000I-150000J0D01*
G01*
X128374000Y-83370000D01*
G75*
G02*
X128224000Y-83220000I0J150000D01*
G01*
X128224000Y-81470000D01*
G75*
G02*
X128374000Y-81320000I150000J0D01*
G01*
G37*
G36*
G01*
X127104000Y-81320000D02*
X127404000Y-81320000D01*
G75*
G02*
X127554000Y-81470000I0J-150000D01*
G01*
X127554000Y-83220000D01*
G75*
G02*
X127404000Y-83370000I-150000J0D01*
G01*
X127104000Y-83370000D01*
G75*
G02*
X126954000Y-83220000I0J150000D01*
G01*
X126954000Y-81470000D01*
G75*
G02*
X127104000Y-81320000I150000J0D01*
G01*
G37*
G36*
G01*
X125834000Y-81320000D02*
X126134000Y-81320000D01*
G75*
G02*
X126284000Y-81470000I0J-150000D01*
G01*
X126284000Y-83220000D01*
G75*
G02*
X126134000Y-83370000I-150000J0D01*
G01*
X125834000Y-83370000D01*
G75*
G02*
X125684000Y-83220000I0J150000D01*
G01*
X125684000Y-81470000D01*
G75*
G02*
X125834000Y-81320000I150000J0D01*
G01*
G37*
G36*
G01*
X124564000Y-81320000D02*
X124864000Y-81320000D01*
G75*
G02*
X125014000Y-81470000I0J-150000D01*
G01*
X125014000Y-83220000D01*
G75*
G02*
X124864000Y-83370000I-150000J0D01*
G01*
X124564000Y-83370000D01*
G75*
G02*
X124414000Y-83220000I0J150000D01*
G01*
X124414000Y-81470000D01*
G75*
G02*
X124564000Y-81320000I150000J0D01*
G01*
G37*
G36*
G01*
X123294000Y-81320000D02*
X123594000Y-81320000D01*
G75*
G02*
X123744000Y-81470000I0J-150000D01*
G01*
X123744000Y-83220000D01*
G75*
G02*
X123594000Y-83370000I-150000J0D01*
G01*
X123294000Y-83370000D01*
G75*
G02*
X123144000Y-83220000I0J150000D01*
G01*
X123144000Y-81470000D01*
G75*
G02*
X123294000Y-81320000I150000J0D01*
G01*
G37*
G36*
G01*
X122024000Y-81320000D02*
X122324000Y-81320000D01*
G75*
G02*
X122474000Y-81470000I0J-150000D01*
G01*
X122474000Y-83220000D01*
G75*
G02*
X122324000Y-83370000I-150000J0D01*
G01*
X122024000Y-83370000D01*
G75*
G02*
X121874000Y-83220000I0J150000D01*
G01*
X121874000Y-81470000D01*
G75*
G02*
X122024000Y-81320000I150000J0D01*
G01*
G37*
G36*
G01*
X120754000Y-81320000D02*
X121054000Y-81320000D01*
G75*
G02*
X121204000Y-81470000I0J-150000D01*
G01*
X121204000Y-83220000D01*
G75*
G02*
X121054000Y-83370000I-150000J0D01*
G01*
X120754000Y-83370000D01*
G75*
G02*
X120604000Y-83220000I0J150000D01*
G01*
X120604000Y-81470000D01*
G75*
G02*
X120754000Y-81320000I150000J0D01*
G01*
G37*
G36*
G01*
X119484000Y-81320000D02*
X119784000Y-81320000D01*
G75*
G02*
X119934000Y-81470000I0J-150000D01*
G01*
X119934000Y-83220000D01*
G75*
G02*
X119784000Y-83370000I-150000J0D01*
G01*
X119484000Y-83370000D01*
G75*
G02*
X119334000Y-83220000I0J150000D01*
G01*
X119334000Y-81470000D01*
G75*
G02*
X119484000Y-81320000I150000J0D01*
G01*
G37*
G36*
G01*
X119484000Y-90620000D02*
X119784000Y-90620000D01*
G75*
G02*
X119934000Y-90770000I0J-150000D01*
G01*
X119934000Y-92520000D01*
G75*
G02*
X119784000Y-92670000I-150000J0D01*
G01*
X119484000Y-92670000D01*
G75*
G02*
X119334000Y-92520000I0J150000D01*
G01*
X119334000Y-90770000D01*
G75*
G02*
X119484000Y-90620000I150000J0D01*
G01*
G37*
G36*
G01*
X120754000Y-90620000D02*
X121054000Y-90620000D01*
G75*
G02*
X121204000Y-90770000I0J-150000D01*
G01*
X121204000Y-92520000D01*
G75*
G02*
X121054000Y-92670000I-150000J0D01*
G01*
X120754000Y-92670000D01*
G75*
G02*
X120604000Y-92520000I0J150000D01*
G01*
X120604000Y-90770000D01*
G75*
G02*
X120754000Y-90620000I150000J0D01*
G01*
G37*
G36*
G01*
X122024000Y-90620000D02*
X122324000Y-90620000D01*
G75*
G02*
X122474000Y-90770000I0J-150000D01*
G01*
X122474000Y-92520000D01*
G75*
G02*
X122324000Y-92670000I-150000J0D01*
G01*
X122024000Y-92670000D01*
G75*
G02*
X121874000Y-92520000I0J150000D01*
G01*
X121874000Y-90770000D01*
G75*
G02*
X122024000Y-90620000I150000J0D01*
G01*
G37*
G36*
G01*
X123294000Y-90620000D02*
X123594000Y-90620000D01*
G75*
G02*
X123744000Y-90770000I0J-150000D01*
G01*
X123744000Y-92520000D01*
G75*
G02*
X123594000Y-92670000I-150000J0D01*
G01*
X123294000Y-92670000D01*
G75*
G02*
X123144000Y-92520000I0J150000D01*
G01*
X123144000Y-90770000D01*
G75*
G02*
X123294000Y-90620000I150000J0D01*
G01*
G37*
G36*
G01*
X124564000Y-90620000D02*
X124864000Y-90620000D01*
G75*
G02*
X125014000Y-90770000I0J-150000D01*
G01*
X125014000Y-92520000D01*
G75*
G02*
X124864000Y-92670000I-150000J0D01*
G01*
X124564000Y-92670000D01*
G75*
G02*
X124414000Y-92520000I0J150000D01*
G01*
X124414000Y-90770000D01*
G75*
G02*
X124564000Y-90620000I150000J0D01*
G01*
G37*
G36*
G01*
X125834000Y-90620000D02*
X126134000Y-90620000D01*
G75*
G02*
X126284000Y-90770000I0J-150000D01*
G01*
X126284000Y-92520000D01*
G75*
G02*
X126134000Y-92670000I-150000J0D01*
G01*
X125834000Y-92670000D01*
G75*
G02*
X125684000Y-92520000I0J150000D01*
G01*
X125684000Y-90770000D01*
G75*
G02*
X125834000Y-90620000I150000J0D01*
G01*
G37*
G36*
G01*
X127104000Y-90620000D02*
X127404000Y-90620000D01*
G75*
G02*
X127554000Y-90770000I0J-150000D01*
G01*
X127554000Y-92520000D01*
G75*
G02*
X127404000Y-92670000I-150000J0D01*
G01*
X127104000Y-92670000D01*
G75*
G02*
X126954000Y-92520000I0J150000D01*
G01*
X126954000Y-90770000D01*
G75*
G02*
X127104000Y-90620000I150000J0D01*
G01*
G37*
G36*
G01*
X128374000Y-90620000D02*
X128674000Y-90620000D01*
G75*
G02*
X128824000Y-90770000I0J-150000D01*
G01*
X128824000Y-92520000D01*
G75*
G02*
X128674000Y-92670000I-150000J0D01*
G01*
X128374000Y-92670000D01*
G75*
G02*
X128224000Y-92520000I0J150000D01*
G01*
X128224000Y-90770000D01*
G75*
G02*
X128374000Y-90620000I150000J0D01*
G01*
G37*
D32*
X100925000Y-75779000D03*
D36*
X152450800Y-108585000D03*
D35*
X160070800Y-131445000D03*
X152450800Y-111125000D03*
X160070800Y-128905000D03*
X152450800Y-113665000D03*
X160070800Y-126365000D03*
X152450800Y-116205000D03*
X160070800Y-123825000D03*
X152450800Y-118745000D03*
X160070800Y-121285000D03*
X152450800Y-121285000D03*
X160070800Y-118745000D03*
X152450800Y-123825000D03*
X160070800Y-116205000D03*
X152450800Y-126365000D03*
X160070800Y-113665000D03*
X152450800Y-128905000D03*
X160070800Y-111125000D03*
X152450800Y-131445000D03*
X160070800Y-108585000D03*
D36*
X113030000Y-94615000D03*
D35*
X105410000Y-79375000D03*
X113030000Y-92075000D03*
X105410000Y-81915000D03*
X113030000Y-89535000D03*
X105410000Y-84455000D03*
X113030000Y-86995000D03*
X105410000Y-86995000D03*
X113030000Y-84455000D03*
X105410000Y-89535000D03*
X113030000Y-81915000D03*
X105410000Y-92075000D03*
X113030000Y-79375000D03*
X105410000Y-94615000D03*
D32*
X193925000Y-75779000D03*
X100925000Y-130779000D03*
D40*
X193925000Y-130879000D03*
D20*
X146825000Y-75779000D03*
X144285000Y-75779000D03*
X141745000Y-75779000D03*
X139205000Y-75779000D03*
X136665000Y-75779000D03*
X134125000Y-75779000D03*
X131585000Y-75779000D03*
X129045000Y-75779000D03*
X126505000Y-75779000D03*
X123965000Y-75779000D03*
X121425000Y-75779000D03*
X118885000Y-75779000D03*
X116345000Y-75779000D03*
X113805000Y-75779000D03*
X111265000Y-75779000D03*
D21*
X108725000Y-75779000D03*
D36*
X152400000Y-87376000D03*
D35*
X160020000Y-105156000D03*
X152400000Y-89916000D03*
X160020000Y-102616000D03*
X152400000Y-92456000D03*
X160020000Y-100076000D03*
X152400000Y-94996000D03*
X160020000Y-97536000D03*
X152400000Y-97536000D03*
X160020000Y-94996000D03*
X152400000Y-100076000D03*
X160020000Y-92456000D03*
X152400000Y-102616000D03*
X160020000Y-89916000D03*
X152400000Y-105156000D03*
X160020000Y-87376000D03*
M02*
