%FSLAX45Y45*%
G04 Gerber Fmt 4.5, Leading zero omitted, Abs format (unit mm)*
G04 Created by KiCad (PCBNEW 5.1.9) date 2021-05-01 23:48:07*
%MOMM*%
%LPD*%
G01*
G04 APERTURE LIST*
%TA.AperFunction,Profile*%
%ADD10C,0.050000*%
%TD*%
%ADD11C,0.200000*%
%ADD12C,0.300000*%
G04 APERTURE END LIST*
D10*
X19646900Y-7327900D02*
X9842500Y-7327900D01*
X9842500Y-14211300D02*
X9944100Y-14211300D01*
X9842500Y-13335000D02*
X9842500Y-14211300D01*
X11391900Y-14211300D02*
X9944100Y-14211300D01*
X16522700Y-14211300D02*
X11391900Y-14211300D01*
X19062700Y-14211300D02*
X16522700Y-14211300D01*
X19646900Y-14211300D02*
X19062700Y-14211300D01*
X19646900Y-13335000D02*
X19646900Y-14211300D01*
X9842500Y-7327900D02*
X9842500Y-13335000D01*
X19646900Y-7327900D02*
X19646900Y-13335000D01*
D11*
D12*
X10126428Y-14679514D02*
X10126428Y-14379514D01*
X10197857Y-14379514D01*
X10240714Y-14393800D01*
X10269286Y-14422371D01*
X10283571Y-14450943D01*
X10297857Y-14508086D01*
X10297857Y-14550943D01*
X10283571Y-14608086D01*
X10269286Y-14636657D01*
X10240714Y-14665229D01*
X10197857Y-14679514D01*
X10126428Y-14679514D01*
X10426428Y-14679514D02*
X10426428Y-14479514D01*
X10426428Y-14536657D02*
X10440714Y-14508086D01*
X10455000Y-14493800D01*
X10483571Y-14479514D01*
X10512143Y-14479514D01*
X10612143Y-14679514D02*
X10612143Y-14479514D01*
X10612143Y-14379514D02*
X10597857Y-14393800D01*
X10612143Y-14408086D01*
X10626428Y-14393800D01*
X10612143Y-14379514D01*
X10612143Y-14408086D01*
X10797857Y-14679514D02*
X10769286Y-14665229D01*
X10755000Y-14636657D01*
X10755000Y-14379514D01*
X10955000Y-14679514D02*
X10926428Y-14665229D01*
X10912143Y-14636657D01*
X10912143Y-14379514D01*
X11297857Y-14679514D02*
X11297857Y-14379514D01*
X11397857Y-14593800D01*
X11497857Y-14379514D01*
X11497857Y-14679514D01*
X11769286Y-14679514D02*
X11769286Y-14522371D01*
X11755000Y-14493800D01*
X11726428Y-14479514D01*
X11669286Y-14479514D01*
X11640714Y-14493800D01*
X11769286Y-14665229D02*
X11740714Y-14679514D01*
X11669286Y-14679514D01*
X11640714Y-14665229D01*
X11626428Y-14636657D01*
X11626428Y-14608086D01*
X11640714Y-14579514D01*
X11669286Y-14565229D01*
X11740714Y-14565229D01*
X11769286Y-14550943D01*
X11912143Y-14479514D02*
X11912143Y-14779514D01*
X11912143Y-14493800D02*
X11940714Y-14479514D01*
X11997857Y-14479514D01*
X12026428Y-14493800D01*
X12040714Y-14508086D01*
X12055000Y-14536657D01*
X12055000Y-14622371D01*
X12040714Y-14650943D01*
X12026428Y-14665229D01*
X11997857Y-14679514D01*
X11940714Y-14679514D01*
X11912143Y-14665229D01*
X12183571Y-14650943D02*
X12197857Y-14665229D01*
X12183571Y-14679514D01*
X12169286Y-14665229D01*
X12183571Y-14650943D01*
X12183571Y-14679514D01*
X12183571Y-14493800D02*
X12197857Y-14508086D01*
X12183571Y-14522371D01*
X12169286Y-14508086D01*
X12183571Y-14493800D01*
X12183571Y-14522371D01*
M02*
