G04 #@! TF.GenerationSoftware,KiCad,Pcbnew,5.1.9*
G04 #@! TF.CreationDate,2021-05-01T23:47:32-07:00*
G04 #@! TF.ProjectId,P80C550-EVN,50383043-3535-4302-9d45-564e2e6b6963,rev?*
G04 #@! TF.SameCoordinates,Original*
G04 #@! TF.FileFunction,Soldermask,Top*
G04 #@! TF.FilePolarity,Negative*
%FSLAX46Y46*%
G04 Gerber Fmt 4.6, Leading zero omitted, Abs format (unit mm)*
G04 Created by KiCad (PCBNEW 5.1.9) date 2021-05-01 23:47:32*
%MOMM*%
%LPD*%
G01*
G04 APERTURE LIST*
%ADD10O,1.700000X1.700000*%
%ADD11R,1.700000X1.700000*%
%ADD12R,3.000000X3.000000*%
%ADD13C,3.000000*%
%ADD14R,0.400000X1.500000*%
%ADD15R,2.000000X0.650000*%
%ADD16R,1.560000X0.650000*%
%ADD17R,1.500000X0.400000*%
%ADD18R,0.650000X3.000000*%
%ADD19R,1.600000X1.500000*%
%ADD20R,1.200000X1.200000*%
%ADD21R,0.800000X0.900000*%
%ADD22R,4.100000X4.100000*%
%ADD23R,1.422400X1.422400*%
%ADD24C,1.422400*%
%ADD25O,1.600000X1.600000*%
%ADD26R,1.600000X1.600000*%
%ADD27C,2.100000*%
%ADD28C,1.750000*%
%ADD29C,1.600000*%
%ADD30R,4.099999X4.099999*%
G04 APERTURE END LIST*
D10*
X101105000Y-96099000D03*
X101105000Y-98639000D03*
X101105000Y-101179000D03*
X101105000Y-103719000D03*
X101105000Y-106259000D03*
X101105000Y-108799000D03*
X101105000Y-111339000D03*
X101105000Y-113879000D03*
X101105000Y-116419000D03*
X101105000Y-118959000D03*
X101105000Y-121499000D03*
X101105000Y-124039000D03*
D11*
X101105000Y-126579000D03*
D12*
X106934000Y-138049000D03*
D13*
X112014000Y-138049000D03*
D14*
X132304000Y-88138000D03*
X132954000Y-88138000D03*
X133604000Y-88138000D03*
X133604000Y-85478000D03*
X132304000Y-85478000D03*
D15*
X140013000Y-89474000D03*
X140013000Y-91374000D03*
X136593000Y-91374000D03*
X136593000Y-90424000D03*
X136593000Y-89474000D03*
X140013000Y-85918000D03*
X140013000Y-87818000D03*
X136593000Y-87818000D03*
X136593000Y-86868000D03*
X136593000Y-85918000D03*
D16*
X136953000Y-83185000D03*
X136953000Y-84135000D03*
X136953000Y-82235000D03*
X139653000Y-82235000D03*
X139653000Y-83185000D03*
X139653000Y-84135000D03*
D17*
X107890000Y-91455000D03*
X107890000Y-90155000D03*
X110550000Y-90155000D03*
X110550000Y-90805000D03*
X110550000Y-91455000D03*
D18*
X108483400Y-127760600D03*
X109753400Y-130760600D03*
X107213400Y-130760600D03*
G36*
G01*
X101616500Y-92500000D02*
X102091500Y-92500000D01*
G75*
G02*
X102329000Y-92737500I0J-237500D01*
G01*
X102329000Y-93237500D01*
G75*
G02*
X102091500Y-93475000I-237500J0D01*
G01*
X101616500Y-93475000D01*
G75*
G02*
X101379000Y-93237500I0J237500D01*
G01*
X101379000Y-92737500D01*
G75*
G02*
X101616500Y-92500000I237500J0D01*
G01*
G37*
G36*
G01*
X101616500Y-90675000D02*
X102091500Y-90675000D01*
G75*
G02*
X102329000Y-90912500I0J-237500D01*
G01*
X102329000Y-91412500D01*
G75*
G02*
X102091500Y-91650000I-237500J0D01*
G01*
X101616500Y-91650000D01*
G75*
G02*
X101379000Y-91412500I0J237500D01*
G01*
X101379000Y-90912500D01*
G75*
G02*
X101616500Y-90675000I237500J0D01*
G01*
G37*
G36*
G01*
X101616500Y-88182000D02*
X102091500Y-88182000D01*
G75*
G02*
X102329000Y-88419500I0J-237500D01*
G01*
X102329000Y-88919500D01*
G75*
G02*
X102091500Y-89157000I-237500J0D01*
G01*
X101616500Y-89157000D01*
G75*
G02*
X101379000Y-88919500I0J237500D01*
G01*
X101379000Y-88419500D01*
G75*
G02*
X101616500Y-88182000I237500J0D01*
G01*
G37*
G36*
G01*
X101616500Y-86357000D02*
X102091500Y-86357000D01*
G75*
G02*
X102329000Y-86594500I0J-237500D01*
G01*
X102329000Y-87094500D01*
G75*
G02*
X102091500Y-87332000I-237500J0D01*
G01*
X101616500Y-87332000D01*
G75*
G02*
X101379000Y-87094500I0J237500D01*
G01*
X101379000Y-86594500D01*
G75*
G02*
X101616500Y-86357000I237500J0D01*
G01*
G37*
G36*
G01*
X100092500Y-92461800D02*
X100567500Y-92461800D01*
G75*
G02*
X100805000Y-92699300I0J-237500D01*
G01*
X100805000Y-93274300D01*
G75*
G02*
X100567500Y-93511800I-237500J0D01*
G01*
X100092500Y-93511800D01*
G75*
G02*
X99855000Y-93274300I0J237500D01*
G01*
X99855000Y-92699300D01*
G75*
G02*
X100092500Y-92461800I237500J0D01*
G01*
G37*
G36*
G01*
X100092500Y-90711800D02*
X100567500Y-90711800D01*
G75*
G02*
X100805000Y-90949300I0J-237500D01*
G01*
X100805000Y-91524300D01*
G75*
G02*
X100567500Y-91761800I-237500J0D01*
G01*
X100092500Y-91761800D01*
G75*
G02*
X99855000Y-91524300I0J237500D01*
G01*
X99855000Y-90949300D01*
G75*
G02*
X100092500Y-90711800I237500J0D01*
G01*
G37*
G36*
G01*
X100092500Y-86371000D02*
X100567500Y-86371000D01*
G75*
G02*
X100805000Y-86608500I0J-237500D01*
G01*
X100805000Y-87183500D01*
G75*
G02*
X100567500Y-87421000I-237500J0D01*
G01*
X100092500Y-87421000D01*
G75*
G02*
X99855000Y-87183500I0J237500D01*
G01*
X99855000Y-86608500D01*
G75*
G02*
X100092500Y-86371000I237500J0D01*
G01*
G37*
G36*
G01*
X100092500Y-88121000D02*
X100567500Y-88121000D01*
G75*
G02*
X100805000Y-88358500I0J-237500D01*
G01*
X100805000Y-88933500D01*
G75*
G02*
X100567500Y-89171000I-237500J0D01*
G01*
X100092500Y-89171000D01*
G75*
G02*
X99855000Y-88933500I0J237500D01*
G01*
X99855000Y-88358500D01*
G75*
G02*
X100092500Y-88121000I237500J0D01*
G01*
G37*
D19*
X101092000Y-80846000D03*
D20*
X102092000Y-84096000D03*
X100092000Y-84096000D03*
D21*
X125349000Y-135128000D03*
X126299000Y-137128000D03*
X124399000Y-137128000D03*
D10*
X190005000Y-124039000D03*
X192545000Y-124039000D03*
X190005000Y-121499000D03*
X192545000Y-121499000D03*
X190005000Y-118959000D03*
X192545000Y-118959000D03*
X190005000Y-116419000D03*
X192545000Y-116419000D03*
X190005000Y-113879000D03*
D11*
X192545000Y-113879000D03*
D22*
X193925000Y-139827000D03*
X100925000Y-139827000D03*
D10*
X151130000Y-136017000D03*
X151130000Y-138557000D03*
X148590000Y-136017000D03*
X148590000Y-138557000D03*
X146050000Y-136017000D03*
X146050000Y-138557000D03*
X143510000Y-136017000D03*
D11*
X143510000Y-138557000D03*
X188214000Y-80010000D03*
D10*
X190754000Y-80010000D03*
X188214000Y-82550000D03*
X190754000Y-82550000D03*
X188214000Y-85090000D03*
X190754000Y-85090000D03*
X188214000Y-87630000D03*
X190754000Y-87630000D03*
X188214000Y-90170000D03*
X190754000Y-90170000D03*
X188214000Y-92710000D03*
X190754000Y-92710000D03*
D23*
X172720000Y-127127000D03*
D24*
X175260000Y-127127000D03*
X177800000Y-127127000D03*
X170180000Y-127127000D03*
X167640000Y-127127000D03*
X175260000Y-129667000D03*
X177800000Y-129667000D03*
X180340000Y-129667000D03*
X172720000Y-129667000D03*
X170180000Y-129667000D03*
X180340000Y-127127000D03*
X180340000Y-124587000D03*
X180340000Y-122047000D03*
X180340000Y-119507000D03*
X180340000Y-116967000D03*
X182880000Y-127127000D03*
X182880000Y-124587000D03*
X182880000Y-122047000D03*
X182880000Y-119507000D03*
X182880000Y-116967000D03*
X182880000Y-114427000D03*
X180340000Y-114427000D03*
X177800000Y-114427000D03*
X175260000Y-114427000D03*
X172720000Y-114427000D03*
X170180000Y-114427000D03*
X165100000Y-114427000D03*
X180340000Y-111887000D03*
X177800000Y-111887000D03*
X175260000Y-111887000D03*
X172720000Y-111887000D03*
X170180000Y-111887000D03*
X167640000Y-111887000D03*
X167640000Y-114427000D03*
X167640000Y-116967000D03*
X167640000Y-119507000D03*
X167640000Y-122047000D03*
X167640000Y-124587000D03*
X167640000Y-129667000D03*
X165100000Y-116967000D03*
X165100000Y-119507000D03*
X165100000Y-122047000D03*
X165100000Y-124587000D03*
X165100000Y-127127000D03*
D10*
X171831000Y-140208000D03*
X174371000Y-140208000D03*
X176911000Y-140208000D03*
X179451000Y-140208000D03*
X181991000Y-140208000D03*
X184531000Y-140208000D03*
X187071000Y-140208000D03*
D11*
X189611000Y-140208000D03*
D24*
X165100000Y-102489000D03*
X165100000Y-99949000D03*
X165100000Y-97409000D03*
X165100000Y-94869000D03*
X165100000Y-92329000D03*
X167640000Y-105029000D03*
X167640000Y-99949000D03*
X167640000Y-97409000D03*
X167640000Y-94869000D03*
X167640000Y-92329000D03*
X167640000Y-89789000D03*
X167640000Y-87249000D03*
X170180000Y-87249000D03*
X172720000Y-87249000D03*
X175260000Y-87249000D03*
X177800000Y-87249000D03*
X180340000Y-87249000D03*
X165100000Y-89789000D03*
X170180000Y-89789000D03*
X172720000Y-89789000D03*
X175260000Y-89789000D03*
X177800000Y-89789000D03*
X180340000Y-89789000D03*
X182880000Y-89789000D03*
X182880000Y-92329000D03*
X182880000Y-94869000D03*
X182880000Y-97409000D03*
X182880000Y-99949000D03*
X182880000Y-102489000D03*
X180340000Y-92329000D03*
X180340000Y-94869000D03*
X180340000Y-97409000D03*
X180340000Y-99949000D03*
X180340000Y-102489000D03*
X170180000Y-105029000D03*
X172720000Y-105029000D03*
X180340000Y-105029000D03*
X177800000Y-105029000D03*
X175260000Y-105029000D03*
X167640000Y-102489000D03*
X170180000Y-102489000D03*
X177800000Y-102489000D03*
X175260000Y-102489000D03*
D23*
X172720000Y-102489000D03*
D25*
X116332000Y-79248000D03*
X144272000Y-94488000D03*
X118872000Y-79248000D03*
X141732000Y-94488000D03*
X121412000Y-79248000D03*
X139192000Y-94488000D03*
X123952000Y-79248000D03*
X136652000Y-94488000D03*
X126492000Y-79248000D03*
X134112000Y-94488000D03*
X129032000Y-79248000D03*
X131572000Y-94488000D03*
X131572000Y-79248000D03*
X129032000Y-94488000D03*
X134112000Y-79248000D03*
X126492000Y-94488000D03*
X136652000Y-79248000D03*
X123952000Y-94488000D03*
X139192000Y-79248000D03*
X121412000Y-94488000D03*
X141732000Y-79248000D03*
X118872000Y-94488000D03*
X144272000Y-79248000D03*
D26*
X116332000Y-94488000D03*
D19*
X121285000Y-134493000D03*
D20*
X122285000Y-137743000D03*
X120285000Y-137743000D03*
D13*
X116463000Y-136906000D03*
X129663000Y-136906000D03*
D10*
X171831000Y-137668000D03*
X174371000Y-137668000D03*
X176911000Y-137668000D03*
X179451000Y-137668000D03*
X181991000Y-137668000D03*
X184531000Y-137668000D03*
X187071000Y-137668000D03*
D11*
X189611000Y-137668000D03*
D10*
X171831000Y-135128000D03*
X174371000Y-135128000D03*
X176911000Y-135128000D03*
X179451000Y-135128000D03*
X181991000Y-135128000D03*
X184531000Y-135128000D03*
X187071000Y-135128000D03*
D11*
X189611000Y-135128000D03*
D26*
X133959600Y-98425000D03*
D25*
X149199600Y-131445000D03*
X133959600Y-100965000D03*
X149199600Y-128905000D03*
X133959600Y-103505000D03*
X149199600Y-126365000D03*
X133959600Y-106045000D03*
X149199600Y-123825000D03*
X133959600Y-108585000D03*
X149199600Y-121285000D03*
X133959600Y-111125000D03*
X149199600Y-118745000D03*
X133959600Y-113665000D03*
X149199600Y-116205000D03*
X133959600Y-116205000D03*
X149199600Y-113665000D03*
X133959600Y-118745000D03*
X149199600Y-111125000D03*
X133959600Y-121285000D03*
X149199600Y-108585000D03*
X133959600Y-123825000D03*
X149199600Y-106045000D03*
X133959600Y-126365000D03*
X149199600Y-103505000D03*
X133959600Y-128905000D03*
X149199600Y-100965000D03*
X133959600Y-131445000D03*
X149199600Y-98425000D03*
D27*
X133178000Y-135128000D03*
D28*
X134438000Y-137618000D03*
X138938000Y-137618000D03*
D27*
X140188000Y-135128000D03*
D11*
X188214000Y-96520000D03*
D10*
X190754000Y-96520000D03*
X188214000Y-99060000D03*
X190754000Y-99060000D03*
X188214000Y-101600000D03*
X190754000Y-101600000D03*
X188214000Y-104140000D03*
X190754000Y-104140000D03*
X188214000Y-106680000D03*
X190754000Y-106680000D03*
X188214000Y-109220000D03*
X190754000Y-109220000D03*
G36*
G01*
X128373500Y-100727500D02*
X128373500Y-101202500D01*
G75*
G02*
X128136000Y-101440000I-237500J0D01*
G01*
X127536000Y-101440000D01*
G75*
G02*
X127298500Y-101202500I0J237500D01*
G01*
X127298500Y-100727500D01*
G75*
G02*
X127536000Y-100490000I237500J0D01*
G01*
X128136000Y-100490000D01*
G75*
G02*
X128373500Y-100727500I0J-237500D01*
G01*
G37*
G36*
G01*
X126648500Y-100727500D02*
X126648500Y-101202500D01*
G75*
G02*
X126411000Y-101440000I-237500J0D01*
G01*
X125811000Y-101440000D01*
G75*
G02*
X125573500Y-101202500I0J237500D01*
G01*
X125573500Y-100727500D01*
G75*
G02*
X125811000Y-100490000I237500J0D01*
G01*
X126411000Y-100490000D01*
G75*
G02*
X126648500Y-100727500I0J-237500D01*
G01*
G37*
D25*
X147574000Y-86360000D03*
D29*
X147574000Y-78740000D03*
D11*
X151905000Y-75779000D03*
D10*
X154445000Y-75779000D03*
X156985000Y-75779000D03*
X159525000Y-75779000D03*
X162065000Y-75779000D03*
X164605000Y-75779000D03*
X167145000Y-75779000D03*
X169685000Y-75779000D03*
X172225000Y-75779000D03*
X174765000Y-75779000D03*
X177305000Y-75779000D03*
X179845000Y-75779000D03*
D25*
X130683000Y-98425000D03*
X115443000Y-131445000D03*
X130683000Y-100965000D03*
X115443000Y-128905000D03*
X130683000Y-103505000D03*
X115443000Y-126365000D03*
X130683000Y-106045000D03*
X115443000Y-123825000D03*
X130683000Y-108585000D03*
X115443000Y-121285000D03*
X130683000Y-111125000D03*
X115443000Y-118745000D03*
X130683000Y-113665000D03*
X115443000Y-116205000D03*
X130683000Y-116205000D03*
X115443000Y-113665000D03*
X130683000Y-118745000D03*
X115443000Y-111125000D03*
X130683000Y-121285000D03*
X115443000Y-108585000D03*
X130683000Y-123825000D03*
X115443000Y-106045000D03*
X130683000Y-126365000D03*
X115443000Y-103505000D03*
X130683000Y-128905000D03*
X115443000Y-100965000D03*
X130683000Y-131445000D03*
D26*
X115443000Y-98425000D03*
D25*
X104648000Y-123444000D03*
X112268000Y-100584000D03*
X104648000Y-120904000D03*
X112268000Y-103124000D03*
X104648000Y-118364000D03*
X112268000Y-105664000D03*
X104648000Y-115824000D03*
X112268000Y-108204000D03*
X104648000Y-113284000D03*
X112268000Y-110744000D03*
X104648000Y-110744000D03*
X112268000Y-113284000D03*
X104648000Y-108204000D03*
X112268000Y-115824000D03*
X104648000Y-105664000D03*
X112268000Y-118364000D03*
X104648000Y-103124000D03*
X112268000Y-120904000D03*
X104648000Y-100584000D03*
D26*
X112268000Y-123444000D03*
G36*
G01*
X128374000Y-81320000D02*
X128674000Y-81320000D01*
G75*
G02*
X128824000Y-81470000I0J-150000D01*
G01*
X128824000Y-83220000D01*
G75*
G02*
X128674000Y-83370000I-150000J0D01*
G01*
X128374000Y-83370000D01*
G75*
G02*
X128224000Y-83220000I0J150000D01*
G01*
X128224000Y-81470000D01*
G75*
G02*
X128374000Y-81320000I150000J0D01*
G01*
G37*
G36*
G01*
X127104000Y-81320000D02*
X127404000Y-81320000D01*
G75*
G02*
X127554000Y-81470000I0J-150000D01*
G01*
X127554000Y-83220000D01*
G75*
G02*
X127404000Y-83370000I-150000J0D01*
G01*
X127104000Y-83370000D01*
G75*
G02*
X126954000Y-83220000I0J150000D01*
G01*
X126954000Y-81470000D01*
G75*
G02*
X127104000Y-81320000I150000J0D01*
G01*
G37*
G36*
G01*
X125834000Y-81320000D02*
X126134000Y-81320000D01*
G75*
G02*
X126284000Y-81470000I0J-150000D01*
G01*
X126284000Y-83220000D01*
G75*
G02*
X126134000Y-83370000I-150000J0D01*
G01*
X125834000Y-83370000D01*
G75*
G02*
X125684000Y-83220000I0J150000D01*
G01*
X125684000Y-81470000D01*
G75*
G02*
X125834000Y-81320000I150000J0D01*
G01*
G37*
G36*
G01*
X124564000Y-81320000D02*
X124864000Y-81320000D01*
G75*
G02*
X125014000Y-81470000I0J-150000D01*
G01*
X125014000Y-83220000D01*
G75*
G02*
X124864000Y-83370000I-150000J0D01*
G01*
X124564000Y-83370000D01*
G75*
G02*
X124414000Y-83220000I0J150000D01*
G01*
X124414000Y-81470000D01*
G75*
G02*
X124564000Y-81320000I150000J0D01*
G01*
G37*
G36*
G01*
X123294000Y-81320000D02*
X123594000Y-81320000D01*
G75*
G02*
X123744000Y-81470000I0J-150000D01*
G01*
X123744000Y-83220000D01*
G75*
G02*
X123594000Y-83370000I-150000J0D01*
G01*
X123294000Y-83370000D01*
G75*
G02*
X123144000Y-83220000I0J150000D01*
G01*
X123144000Y-81470000D01*
G75*
G02*
X123294000Y-81320000I150000J0D01*
G01*
G37*
G36*
G01*
X122024000Y-81320000D02*
X122324000Y-81320000D01*
G75*
G02*
X122474000Y-81470000I0J-150000D01*
G01*
X122474000Y-83220000D01*
G75*
G02*
X122324000Y-83370000I-150000J0D01*
G01*
X122024000Y-83370000D01*
G75*
G02*
X121874000Y-83220000I0J150000D01*
G01*
X121874000Y-81470000D01*
G75*
G02*
X122024000Y-81320000I150000J0D01*
G01*
G37*
G36*
G01*
X120754000Y-81320000D02*
X121054000Y-81320000D01*
G75*
G02*
X121204000Y-81470000I0J-150000D01*
G01*
X121204000Y-83220000D01*
G75*
G02*
X121054000Y-83370000I-150000J0D01*
G01*
X120754000Y-83370000D01*
G75*
G02*
X120604000Y-83220000I0J150000D01*
G01*
X120604000Y-81470000D01*
G75*
G02*
X120754000Y-81320000I150000J0D01*
G01*
G37*
G36*
G01*
X119484000Y-81320000D02*
X119784000Y-81320000D01*
G75*
G02*
X119934000Y-81470000I0J-150000D01*
G01*
X119934000Y-83220000D01*
G75*
G02*
X119784000Y-83370000I-150000J0D01*
G01*
X119484000Y-83370000D01*
G75*
G02*
X119334000Y-83220000I0J150000D01*
G01*
X119334000Y-81470000D01*
G75*
G02*
X119484000Y-81320000I150000J0D01*
G01*
G37*
G36*
G01*
X119484000Y-90620000D02*
X119784000Y-90620000D01*
G75*
G02*
X119934000Y-90770000I0J-150000D01*
G01*
X119934000Y-92520000D01*
G75*
G02*
X119784000Y-92670000I-150000J0D01*
G01*
X119484000Y-92670000D01*
G75*
G02*
X119334000Y-92520000I0J150000D01*
G01*
X119334000Y-90770000D01*
G75*
G02*
X119484000Y-90620000I150000J0D01*
G01*
G37*
G36*
G01*
X120754000Y-90620000D02*
X121054000Y-90620000D01*
G75*
G02*
X121204000Y-90770000I0J-150000D01*
G01*
X121204000Y-92520000D01*
G75*
G02*
X121054000Y-92670000I-150000J0D01*
G01*
X120754000Y-92670000D01*
G75*
G02*
X120604000Y-92520000I0J150000D01*
G01*
X120604000Y-90770000D01*
G75*
G02*
X120754000Y-90620000I150000J0D01*
G01*
G37*
G36*
G01*
X122024000Y-90620000D02*
X122324000Y-90620000D01*
G75*
G02*
X122474000Y-90770000I0J-150000D01*
G01*
X122474000Y-92520000D01*
G75*
G02*
X122324000Y-92670000I-150000J0D01*
G01*
X122024000Y-92670000D01*
G75*
G02*
X121874000Y-92520000I0J150000D01*
G01*
X121874000Y-90770000D01*
G75*
G02*
X122024000Y-90620000I150000J0D01*
G01*
G37*
G36*
G01*
X123294000Y-90620000D02*
X123594000Y-90620000D01*
G75*
G02*
X123744000Y-90770000I0J-150000D01*
G01*
X123744000Y-92520000D01*
G75*
G02*
X123594000Y-92670000I-150000J0D01*
G01*
X123294000Y-92670000D01*
G75*
G02*
X123144000Y-92520000I0J150000D01*
G01*
X123144000Y-90770000D01*
G75*
G02*
X123294000Y-90620000I150000J0D01*
G01*
G37*
G36*
G01*
X124564000Y-90620000D02*
X124864000Y-90620000D01*
G75*
G02*
X125014000Y-90770000I0J-150000D01*
G01*
X125014000Y-92520000D01*
G75*
G02*
X124864000Y-92670000I-150000J0D01*
G01*
X124564000Y-92670000D01*
G75*
G02*
X124414000Y-92520000I0J150000D01*
G01*
X124414000Y-90770000D01*
G75*
G02*
X124564000Y-90620000I150000J0D01*
G01*
G37*
G36*
G01*
X125834000Y-90620000D02*
X126134000Y-90620000D01*
G75*
G02*
X126284000Y-90770000I0J-150000D01*
G01*
X126284000Y-92520000D01*
G75*
G02*
X126134000Y-92670000I-150000J0D01*
G01*
X125834000Y-92670000D01*
G75*
G02*
X125684000Y-92520000I0J150000D01*
G01*
X125684000Y-90770000D01*
G75*
G02*
X125834000Y-90620000I150000J0D01*
G01*
G37*
G36*
G01*
X127104000Y-90620000D02*
X127404000Y-90620000D01*
G75*
G02*
X127554000Y-90770000I0J-150000D01*
G01*
X127554000Y-92520000D01*
G75*
G02*
X127404000Y-92670000I-150000J0D01*
G01*
X127104000Y-92670000D01*
G75*
G02*
X126954000Y-92520000I0J150000D01*
G01*
X126954000Y-90770000D01*
G75*
G02*
X127104000Y-90620000I150000J0D01*
G01*
G37*
G36*
G01*
X128374000Y-90620000D02*
X128674000Y-90620000D01*
G75*
G02*
X128824000Y-90770000I0J-150000D01*
G01*
X128824000Y-92520000D01*
G75*
G02*
X128674000Y-92670000I-150000J0D01*
G01*
X128374000Y-92670000D01*
G75*
G02*
X128224000Y-92520000I0J150000D01*
G01*
X128224000Y-90770000D01*
G75*
G02*
X128374000Y-90620000I150000J0D01*
G01*
G37*
D22*
X100925000Y-75779000D03*
D26*
X152450800Y-108585000D03*
D25*
X160070800Y-131445000D03*
X152450800Y-111125000D03*
X160070800Y-128905000D03*
X152450800Y-113665000D03*
X160070800Y-126365000D03*
X152450800Y-116205000D03*
X160070800Y-123825000D03*
X152450800Y-118745000D03*
X160070800Y-121285000D03*
X152450800Y-121285000D03*
X160070800Y-118745000D03*
X152450800Y-123825000D03*
X160070800Y-116205000D03*
X152450800Y-126365000D03*
X160070800Y-113665000D03*
X152450800Y-128905000D03*
X160070800Y-111125000D03*
X152450800Y-131445000D03*
X160070800Y-108585000D03*
D26*
X113030000Y-94615000D03*
D25*
X105410000Y-79375000D03*
X113030000Y-92075000D03*
X105410000Y-81915000D03*
X113030000Y-89535000D03*
X105410000Y-84455000D03*
X113030000Y-86995000D03*
X105410000Y-86995000D03*
X113030000Y-84455000D03*
X105410000Y-89535000D03*
X113030000Y-81915000D03*
X105410000Y-92075000D03*
X113030000Y-79375000D03*
X105410000Y-94615000D03*
D22*
X193925000Y-75779000D03*
X100925000Y-130779000D03*
D30*
X193925000Y-130879000D03*
D10*
X146825000Y-75779000D03*
X144285000Y-75779000D03*
X141745000Y-75779000D03*
X139205000Y-75779000D03*
X136665000Y-75779000D03*
X134125000Y-75779000D03*
X131585000Y-75779000D03*
X129045000Y-75779000D03*
X126505000Y-75779000D03*
X123965000Y-75779000D03*
X121425000Y-75779000D03*
X118885000Y-75779000D03*
X116345000Y-75779000D03*
X113805000Y-75779000D03*
X111265000Y-75779000D03*
D11*
X108725000Y-75779000D03*
D26*
X152400000Y-87376000D03*
D25*
X160020000Y-105156000D03*
X152400000Y-89916000D03*
X160020000Y-102616000D03*
X152400000Y-92456000D03*
X160020000Y-100076000D03*
X152400000Y-94996000D03*
X160020000Y-97536000D03*
X152400000Y-97536000D03*
X160020000Y-94996000D03*
X152400000Y-100076000D03*
X160020000Y-92456000D03*
X152400000Y-102616000D03*
X160020000Y-89916000D03*
X152400000Y-105156000D03*
X160020000Y-87376000D03*
M02*
