G04 #@! TF.GenerationSoftware,KiCad,Pcbnew,5.1.9*
G04 #@! TF.CreationDate,2021-05-01T23:47:32-07:00*
G04 #@! TF.ProjectId,P80C550-EVN,50383043-3535-4302-9d45-564e2e6b6963,rev?*
G04 #@! TF.SameCoordinates,Original*
G04 #@! TF.FileFunction,Soldermask,Bot*
G04 #@! TF.FilePolarity,Negative*
%FSLAX46Y46*%
G04 Gerber Fmt 4.6, Leading zero omitted, Abs format (unit mm)*
G04 Created by KiCad (PCBNEW 5.1.9) date 2021-05-01 23:47:32*
%MOMM*%
%LPD*%
G01*
G04 APERTURE LIST*
%ADD10O,1.700000X1.700000*%
%ADD11R,1.700000X1.700000*%
%ADD12R,0.900000X0.800000*%
%ADD13R,3.000000X3.000000*%
%ADD14C,3.000000*%
%ADD15R,1.220000X0.650000*%
%ADD16R,2.000000X0.650000*%
%ADD17R,4.100000X4.100000*%
%ADD18R,1.422400X1.422400*%
%ADD19C,1.422400*%
%ADD20R,0.800000X0.900000*%
%ADD21R,1.980000X3.000000*%
%ADD22R,0.900000X1.750000*%
%ADD23O,1.600000X1.600000*%
%ADD24R,1.600000X1.600000*%
%ADD25C,9.000000*%
%ADD26C,2.100000*%
%ADD27C,1.750000*%
%ADD28C,1.600000*%
%ADD29R,4.099999X4.099999*%
G04 APERTURE END LIST*
G36*
G01*
X107298500Y-120478500D02*
X106823500Y-120478500D01*
G75*
G02*
X106586000Y-120241000I0J237500D01*
G01*
X106586000Y-119641000D01*
G75*
G02*
X106823500Y-119403500I237500J0D01*
G01*
X107298500Y-119403500D01*
G75*
G02*
X107536000Y-119641000I0J-237500D01*
G01*
X107536000Y-120241000D01*
G75*
G02*
X107298500Y-120478500I-237500J0D01*
G01*
G37*
G36*
G01*
X107298500Y-122203500D02*
X106823500Y-122203500D01*
G75*
G02*
X106586000Y-121966000I0J237500D01*
G01*
X106586000Y-121366000D01*
G75*
G02*
X106823500Y-121128500I237500J0D01*
G01*
X107298500Y-121128500D01*
G75*
G02*
X107536000Y-121366000I0J-237500D01*
G01*
X107536000Y-121966000D01*
G75*
G02*
X107298500Y-122203500I-237500J0D01*
G01*
G37*
D10*
X101105000Y-96099000D03*
X101105000Y-98639000D03*
X101105000Y-101179000D03*
X101105000Y-103719000D03*
X101105000Y-106259000D03*
X101105000Y-108799000D03*
X101105000Y-111339000D03*
X101105000Y-113879000D03*
X101105000Y-116419000D03*
X101105000Y-118959000D03*
X101105000Y-121499000D03*
X101105000Y-124039000D03*
D11*
X101105000Y-126579000D03*
D12*
X112109000Y-133893600D03*
X110109000Y-132943600D03*
X110109000Y-134843600D03*
G36*
G01*
X107911000Y-124238600D02*
X106211000Y-124238600D01*
G75*
G02*
X105961000Y-123988600I0J250000D01*
G01*
X105961000Y-123063600D01*
G75*
G02*
X106211000Y-122813600I250000J0D01*
G01*
X107911000Y-122813600D01*
G75*
G02*
X108161000Y-123063600I0J-250000D01*
G01*
X108161000Y-123988600D01*
G75*
G02*
X107911000Y-124238600I-250000J0D01*
G01*
G37*
G36*
G01*
X107911000Y-126563600D02*
X106211000Y-126563600D01*
G75*
G02*
X105961000Y-126313600I0J250000D01*
G01*
X105961000Y-125388600D01*
G75*
G02*
X106211000Y-125138600I250000J0D01*
G01*
X107911000Y-125138600D01*
G75*
G02*
X108161000Y-125388600I0J-250000D01*
G01*
X108161000Y-126313600D01*
G75*
G02*
X107911000Y-126563600I-250000J0D01*
G01*
G37*
G36*
G01*
X108372900Y-132416000D02*
X108847900Y-132416000D01*
G75*
G02*
X109085400Y-132653500I0J-237500D01*
G01*
X109085400Y-133228500D01*
G75*
G02*
X108847900Y-133466000I-237500J0D01*
G01*
X108372900Y-133466000D01*
G75*
G02*
X108135400Y-133228500I0J237500D01*
G01*
X108135400Y-132653500D01*
G75*
G02*
X108372900Y-132416000I237500J0D01*
G01*
G37*
G36*
G01*
X108372900Y-130666000D02*
X108847900Y-130666000D01*
G75*
G02*
X109085400Y-130903500I0J-237500D01*
G01*
X109085400Y-131478500D01*
G75*
G02*
X108847900Y-131716000I-237500J0D01*
G01*
X108372900Y-131716000D01*
G75*
G02*
X108135400Y-131478500I0J237500D01*
G01*
X108135400Y-130903500D01*
G75*
G02*
X108372900Y-130666000I237500J0D01*
G01*
G37*
G36*
G01*
X109062500Y-125142500D02*
X110012500Y-125142500D01*
G75*
G02*
X110262500Y-125392500I0J-250000D01*
G01*
X110262500Y-126067500D01*
G75*
G02*
X110012500Y-126317500I-250000J0D01*
G01*
X109062500Y-126317500D01*
G75*
G02*
X108812500Y-126067500I0J250000D01*
G01*
X108812500Y-125392500D01*
G75*
G02*
X109062500Y-125142500I250000J0D01*
G01*
G37*
G36*
G01*
X109062500Y-123067500D02*
X110012500Y-123067500D01*
G75*
G02*
X110262500Y-123317500I0J-250000D01*
G01*
X110262500Y-123992500D01*
G75*
G02*
X110012500Y-124242500I-250000J0D01*
G01*
X109062500Y-124242500D01*
G75*
G02*
X108812500Y-123992500I0J250000D01*
G01*
X108812500Y-123317500D01*
G75*
G02*
X109062500Y-123067500I250000J0D01*
G01*
G37*
G36*
G01*
X110876100Y-128344600D02*
X109926100Y-128344600D01*
G75*
G02*
X109676100Y-128094600I0J250000D01*
G01*
X109676100Y-127419600D01*
G75*
G02*
X109926100Y-127169600I250000J0D01*
G01*
X110876100Y-127169600D01*
G75*
G02*
X111126100Y-127419600I0J-250000D01*
G01*
X111126100Y-128094600D01*
G75*
G02*
X110876100Y-128344600I-250000J0D01*
G01*
G37*
G36*
G01*
X110876100Y-130419600D02*
X109926100Y-130419600D01*
G75*
G02*
X109676100Y-130169600I0J250000D01*
G01*
X109676100Y-129494600D01*
G75*
G02*
X109926100Y-129244600I250000J0D01*
G01*
X110876100Y-129244600D01*
G75*
G02*
X111126100Y-129494600I0J-250000D01*
G01*
X111126100Y-130169600D01*
G75*
G02*
X110876100Y-130419600I-250000J0D01*
G01*
G37*
G36*
G01*
X103940600Y-127109100D02*
X104415600Y-127109100D01*
G75*
G02*
X104653100Y-127346600I0J-237500D01*
G01*
X104653100Y-127946600D01*
G75*
G02*
X104415600Y-128184100I-237500J0D01*
G01*
X103940600Y-128184100D01*
G75*
G02*
X103703100Y-127946600I0J237500D01*
G01*
X103703100Y-127346600D01*
G75*
G02*
X103940600Y-127109100I237500J0D01*
G01*
G37*
G36*
G01*
X103940600Y-125384100D02*
X104415600Y-125384100D01*
G75*
G02*
X104653100Y-125621600I0J-237500D01*
G01*
X104653100Y-126221600D01*
G75*
G02*
X104415600Y-126459100I-237500J0D01*
G01*
X103940600Y-126459100D01*
G75*
G02*
X103703100Y-126221600I0J237500D01*
G01*
X103703100Y-125621600D01*
G75*
G02*
X103940600Y-125384100I237500J0D01*
G01*
G37*
D13*
X106934000Y-138049000D03*
D14*
X112014000Y-138049000D03*
D15*
X108472600Y-127675600D03*
X108472600Y-128625600D03*
X108472600Y-129575600D03*
X105852600Y-129575600D03*
X105852600Y-128625600D03*
X105852600Y-127675600D03*
G36*
G01*
X106155500Y-131629600D02*
X105680500Y-131629600D01*
G75*
G02*
X105443000Y-131392100I0J237500D01*
G01*
X105443000Y-130892100D01*
G75*
G02*
X105680500Y-130654600I237500J0D01*
G01*
X106155500Y-130654600D01*
G75*
G02*
X106393000Y-130892100I0J-237500D01*
G01*
X106393000Y-131392100D01*
G75*
G02*
X106155500Y-131629600I-237500J0D01*
G01*
G37*
G36*
G01*
X106155500Y-133454600D02*
X105680500Y-133454600D01*
G75*
G02*
X105443000Y-133217100I0J237500D01*
G01*
X105443000Y-132717100D01*
G75*
G02*
X105680500Y-132479600I237500J0D01*
G01*
X106155500Y-132479600D01*
G75*
G02*
X106393000Y-132717100I0J-237500D01*
G01*
X106393000Y-133217100D01*
G75*
G02*
X106155500Y-133454600I-237500J0D01*
G01*
G37*
G36*
G01*
X104156500Y-132481340D02*
X104631500Y-132481340D01*
G75*
G02*
X104869000Y-132718840I0J-237500D01*
G01*
X104869000Y-133218840D01*
G75*
G02*
X104631500Y-133456340I-237500J0D01*
G01*
X104156500Y-133456340D01*
G75*
G02*
X103919000Y-133218840I0J237500D01*
G01*
X103919000Y-132718840D01*
G75*
G02*
X104156500Y-132481340I237500J0D01*
G01*
G37*
G36*
G01*
X104156500Y-130656340D02*
X104631500Y-130656340D01*
G75*
G02*
X104869000Y-130893840I0J-237500D01*
G01*
X104869000Y-131393840D01*
G75*
G02*
X104631500Y-131631340I-237500J0D01*
G01*
X104156500Y-131631340D01*
G75*
G02*
X103919000Y-131393840I0J237500D01*
G01*
X103919000Y-130893840D01*
G75*
G02*
X104156500Y-130656340I237500J0D01*
G01*
G37*
G36*
G01*
X138096000Y-117605000D02*
X137621000Y-117605000D01*
G75*
G02*
X137383500Y-117367500I0J237500D01*
G01*
X137383500Y-116867500D01*
G75*
G02*
X137621000Y-116630000I237500J0D01*
G01*
X138096000Y-116630000D01*
G75*
G02*
X138333500Y-116867500I0J-237500D01*
G01*
X138333500Y-117367500D01*
G75*
G02*
X138096000Y-117605000I-237500J0D01*
G01*
G37*
G36*
G01*
X138096000Y-115780000D02*
X137621000Y-115780000D01*
G75*
G02*
X137383500Y-115542500I0J237500D01*
G01*
X137383500Y-115042500D01*
G75*
G02*
X137621000Y-114805000I237500J0D01*
G01*
X138096000Y-114805000D01*
G75*
G02*
X138333500Y-115042500I0J-237500D01*
G01*
X138333500Y-115542500D01*
G75*
G02*
X138096000Y-115780000I-237500J0D01*
G01*
G37*
G36*
G01*
X146181100Y-98187500D02*
X146181100Y-98662500D01*
G75*
G02*
X145943600Y-98900000I-237500J0D01*
G01*
X145343600Y-98900000D01*
G75*
G02*
X145106100Y-98662500I0J237500D01*
G01*
X145106100Y-98187500D01*
G75*
G02*
X145343600Y-97950000I237500J0D01*
G01*
X145943600Y-97950000D01*
G75*
G02*
X146181100Y-98187500I0J-237500D01*
G01*
G37*
G36*
G01*
X147906100Y-98187500D02*
X147906100Y-98662500D01*
G75*
G02*
X147668600Y-98900000I-237500J0D01*
G01*
X147068600Y-98900000D01*
G75*
G02*
X146831100Y-98662500I0J237500D01*
G01*
X146831100Y-98187500D01*
G75*
G02*
X147068600Y-97950000I237500J0D01*
G01*
X147668600Y-97950000D01*
G75*
G02*
X147906100Y-98187500I0J-237500D01*
G01*
G37*
D16*
X146613300Y-91803100D03*
X146613300Y-93703100D03*
X150033300Y-93703100D03*
X150033300Y-92753100D03*
X150033300Y-91803100D03*
X146630500Y-88140500D03*
X146630500Y-90040500D03*
X150050500Y-90040500D03*
X150050500Y-89090500D03*
X150050500Y-88140500D03*
D10*
X190005000Y-124039000D03*
X192545000Y-124039000D03*
X190005000Y-121499000D03*
X192545000Y-121499000D03*
X190005000Y-118959000D03*
X192545000Y-118959000D03*
X190005000Y-116419000D03*
X192545000Y-116419000D03*
X190005000Y-113879000D03*
D11*
X192545000Y-113879000D03*
D17*
X193925000Y-139827000D03*
X100925000Y-139827000D03*
G36*
G01*
X145562500Y-140699500D02*
X145562500Y-140224500D01*
G75*
G02*
X145800000Y-139987000I237500J0D01*
G01*
X146300000Y-139987000D01*
G75*
G02*
X146537500Y-140224500I0J-237500D01*
G01*
X146537500Y-140699500D01*
G75*
G02*
X146300000Y-140937000I-237500J0D01*
G01*
X145800000Y-140937000D01*
G75*
G02*
X145562500Y-140699500I0J237500D01*
G01*
G37*
G36*
G01*
X143737500Y-140699500D02*
X143737500Y-140224500D01*
G75*
G02*
X143975000Y-139987000I237500J0D01*
G01*
X144475000Y-139987000D01*
G75*
G02*
X144712500Y-140224500I0J-237500D01*
G01*
X144712500Y-140699500D01*
G75*
G02*
X144475000Y-140937000I-237500J0D01*
G01*
X143975000Y-140937000D01*
G75*
G02*
X143737500Y-140699500I0J237500D01*
G01*
G37*
G36*
G01*
X149054000Y-140224500D02*
X149054000Y-140699500D01*
G75*
G02*
X148816500Y-140937000I-237500J0D01*
G01*
X148316500Y-140937000D01*
G75*
G02*
X148079000Y-140699500I0J237500D01*
G01*
X148079000Y-140224500D01*
G75*
G02*
X148316500Y-139987000I237500J0D01*
G01*
X148816500Y-139987000D01*
G75*
G02*
X149054000Y-140224500I0J-237500D01*
G01*
G37*
G36*
G01*
X150879000Y-140224500D02*
X150879000Y-140699500D01*
G75*
G02*
X150641500Y-140937000I-237500J0D01*
G01*
X150141500Y-140937000D01*
G75*
G02*
X149904000Y-140699500I0J237500D01*
G01*
X149904000Y-140224500D01*
G75*
G02*
X150141500Y-139987000I237500J0D01*
G01*
X150641500Y-139987000D01*
G75*
G02*
X150879000Y-140224500I0J-237500D01*
G01*
G37*
D10*
X151130000Y-136017000D03*
X151130000Y-138557000D03*
X148590000Y-136017000D03*
X148590000Y-138557000D03*
X146050000Y-136017000D03*
X146050000Y-138557000D03*
X143510000Y-136017000D03*
D11*
X143510000Y-138557000D03*
X188214000Y-80010000D03*
D10*
X190754000Y-80010000D03*
X188214000Y-82550000D03*
X190754000Y-82550000D03*
X188214000Y-85090000D03*
X190754000Y-85090000D03*
X188214000Y-87630000D03*
X190754000Y-87630000D03*
X188214000Y-90170000D03*
X190754000Y-90170000D03*
X188214000Y-92710000D03*
X190754000Y-92710000D03*
D18*
X172720000Y-127127000D03*
D19*
X175260000Y-127127000D03*
X177800000Y-127127000D03*
X170180000Y-127127000D03*
X167640000Y-127127000D03*
X175260000Y-129667000D03*
X177800000Y-129667000D03*
X180340000Y-129667000D03*
X172720000Y-129667000D03*
X170180000Y-129667000D03*
X180340000Y-127127000D03*
X180340000Y-124587000D03*
X180340000Y-122047000D03*
X180340000Y-119507000D03*
X180340000Y-116967000D03*
X182880000Y-127127000D03*
X182880000Y-124587000D03*
X182880000Y-122047000D03*
X182880000Y-119507000D03*
X182880000Y-116967000D03*
X182880000Y-114427000D03*
X180340000Y-114427000D03*
X177800000Y-114427000D03*
X175260000Y-114427000D03*
X172720000Y-114427000D03*
X170180000Y-114427000D03*
X165100000Y-114427000D03*
X180340000Y-111887000D03*
X177800000Y-111887000D03*
X175260000Y-111887000D03*
X172720000Y-111887000D03*
X170180000Y-111887000D03*
X167640000Y-111887000D03*
X167640000Y-114427000D03*
X167640000Y-116967000D03*
X167640000Y-119507000D03*
X167640000Y-122047000D03*
X167640000Y-124587000D03*
X167640000Y-129667000D03*
X165100000Y-116967000D03*
X165100000Y-119507000D03*
X165100000Y-122047000D03*
X165100000Y-124587000D03*
X165100000Y-127127000D03*
D10*
X171831000Y-140208000D03*
X174371000Y-140208000D03*
X176911000Y-140208000D03*
X179451000Y-140208000D03*
X181991000Y-140208000D03*
X184531000Y-140208000D03*
X187071000Y-140208000D03*
D11*
X189611000Y-140208000D03*
D19*
X165100000Y-102489000D03*
X165100000Y-99949000D03*
X165100000Y-97409000D03*
X165100000Y-94869000D03*
X165100000Y-92329000D03*
X167640000Y-105029000D03*
X167640000Y-99949000D03*
X167640000Y-97409000D03*
X167640000Y-94869000D03*
X167640000Y-92329000D03*
X167640000Y-89789000D03*
X167640000Y-87249000D03*
X170180000Y-87249000D03*
X172720000Y-87249000D03*
X175260000Y-87249000D03*
X177800000Y-87249000D03*
X180340000Y-87249000D03*
X165100000Y-89789000D03*
X170180000Y-89789000D03*
X172720000Y-89789000D03*
X175260000Y-89789000D03*
X177800000Y-89789000D03*
X180340000Y-89789000D03*
X182880000Y-89789000D03*
X182880000Y-92329000D03*
X182880000Y-94869000D03*
X182880000Y-97409000D03*
X182880000Y-99949000D03*
X182880000Y-102489000D03*
X180340000Y-92329000D03*
X180340000Y-94869000D03*
X180340000Y-97409000D03*
X180340000Y-99949000D03*
X180340000Y-102489000D03*
X170180000Y-105029000D03*
X172720000Y-105029000D03*
X180340000Y-105029000D03*
X177800000Y-105029000D03*
X175260000Y-105029000D03*
X167640000Y-102489000D03*
X170180000Y-102489000D03*
X177800000Y-102489000D03*
X175260000Y-102489000D03*
D18*
X172720000Y-102489000D03*
D20*
X183515000Y-129302000D03*
X182565000Y-131302000D03*
X184465000Y-131302000D03*
G36*
G01*
X175839000Y-124189500D02*
X175839000Y-123714500D01*
G75*
G02*
X176076500Y-123477000I237500J0D01*
G01*
X176676500Y-123477000D01*
G75*
G02*
X176914000Y-123714500I0J-237500D01*
G01*
X176914000Y-124189500D01*
G75*
G02*
X176676500Y-124427000I-237500J0D01*
G01*
X176076500Y-124427000D01*
G75*
G02*
X175839000Y-124189500I0J237500D01*
G01*
G37*
G36*
G01*
X174114000Y-124189500D02*
X174114000Y-123714500D01*
G75*
G02*
X174351500Y-123477000I237500J0D01*
G01*
X174951500Y-123477000D01*
G75*
G02*
X175189000Y-123714500I0J-237500D01*
G01*
X175189000Y-124189500D01*
G75*
G02*
X174951500Y-124427000I-237500J0D01*
G01*
X174351500Y-124427000D01*
G75*
G02*
X174114000Y-124189500I0J237500D01*
G01*
G37*
G36*
G01*
X176613000Y-122190500D02*
X176613000Y-122665500D01*
G75*
G02*
X176375500Y-122903000I-237500J0D01*
G01*
X175875500Y-122903000D01*
G75*
G02*
X175638000Y-122665500I0J237500D01*
G01*
X175638000Y-122190500D01*
G75*
G02*
X175875500Y-121953000I237500J0D01*
G01*
X176375500Y-121953000D01*
G75*
G02*
X176613000Y-122190500I0J-237500D01*
G01*
G37*
G36*
G01*
X178438000Y-122190500D02*
X178438000Y-122665500D01*
G75*
G02*
X178200500Y-122903000I-237500J0D01*
G01*
X177700500Y-122903000D01*
G75*
G02*
X177463000Y-122665500I0J237500D01*
G01*
X177463000Y-122190500D01*
G75*
G02*
X177700500Y-121953000I237500J0D01*
G01*
X178200500Y-121953000D01*
G75*
G02*
X178438000Y-122190500I0J-237500D01*
G01*
G37*
G36*
G01*
X174481000Y-125713500D02*
X174481000Y-125238500D01*
G75*
G02*
X174718500Y-125001000I237500J0D01*
G01*
X175293500Y-125001000D01*
G75*
G02*
X175531000Y-125238500I0J-237500D01*
G01*
X175531000Y-125713500D01*
G75*
G02*
X175293500Y-125951000I-237500J0D01*
G01*
X174718500Y-125951000D01*
G75*
G02*
X174481000Y-125713500I0J237500D01*
G01*
G37*
G36*
G01*
X172731000Y-125713500D02*
X172731000Y-125238500D01*
G75*
G02*
X172968500Y-125001000I237500J0D01*
G01*
X173543500Y-125001000D01*
G75*
G02*
X173781000Y-125238500I0J-237500D01*
G01*
X173781000Y-125713500D01*
G75*
G02*
X173543500Y-125951000I-237500J0D01*
G01*
X172968500Y-125951000D01*
G75*
G02*
X172731000Y-125713500I0J237500D01*
G01*
G37*
D21*
X171360000Y-98291000D03*
X176620000Y-98291000D03*
X176620000Y-93091000D03*
X171360000Y-93091000D03*
D22*
X117830000Y-85365000D03*
X117830000Y-88265000D03*
X119380000Y-88265000D03*
X119380000Y-85365000D03*
G36*
G01*
X120717500Y-83168500D02*
X120717500Y-82693500D01*
G75*
G02*
X120955000Y-82456000I237500J0D01*
G01*
X121455000Y-82456000D01*
G75*
G02*
X121692500Y-82693500I0J-237500D01*
G01*
X121692500Y-83168500D01*
G75*
G02*
X121455000Y-83406000I-237500J0D01*
G01*
X120955000Y-83406000D01*
G75*
G02*
X120717500Y-83168500I0J237500D01*
G01*
G37*
G36*
G01*
X118892500Y-83168500D02*
X118892500Y-82693500D01*
G75*
G02*
X119130000Y-82456000I237500J0D01*
G01*
X119630000Y-82456000D01*
G75*
G02*
X119867500Y-82693500I0J-237500D01*
G01*
X119867500Y-83168500D01*
G75*
G02*
X119630000Y-83406000I-237500J0D01*
G01*
X119130000Y-83406000D01*
G75*
G02*
X118892500Y-83168500I0J237500D01*
G01*
G37*
G36*
G01*
X120618300Y-81644500D02*
X120618300Y-81169500D01*
G75*
G02*
X120855800Y-80932000I237500J0D01*
G01*
X121455800Y-80932000D01*
G75*
G02*
X121693300Y-81169500I0J-237500D01*
G01*
X121693300Y-81644500D01*
G75*
G02*
X121455800Y-81882000I-237500J0D01*
G01*
X120855800Y-81882000D01*
G75*
G02*
X120618300Y-81644500I0J237500D01*
G01*
G37*
G36*
G01*
X118893300Y-81644500D02*
X118893300Y-81169500D01*
G75*
G02*
X119130800Y-80932000I237500J0D01*
G01*
X119730800Y-80932000D01*
G75*
G02*
X119968300Y-81169500I0J-237500D01*
G01*
X119968300Y-81644500D01*
G75*
G02*
X119730800Y-81882000I-237500J0D01*
G01*
X119130800Y-81882000D01*
G75*
G02*
X118893300Y-81644500I0J237500D01*
G01*
G37*
D23*
X116332000Y-79248000D03*
X144272000Y-94488000D03*
X118872000Y-79248000D03*
X141732000Y-94488000D03*
X121412000Y-79248000D03*
X139192000Y-94488000D03*
X123952000Y-79248000D03*
X136652000Y-94488000D03*
X126492000Y-79248000D03*
X134112000Y-94488000D03*
X129032000Y-79248000D03*
X131572000Y-94488000D03*
X131572000Y-79248000D03*
X129032000Y-94488000D03*
X134112000Y-79248000D03*
X126492000Y-94488000D03*
X136652000Y-79248000D03*
X123952000Y-94488000D03*
X139192000Y-79248000D03*
X121412000Y-94488000D03*
X141732000Y-79248000D03*
X118872000Y-94488000D03*
X144272000Y-79248000D03*
D24*
X116332000Y-94488000D03*
D25*
X123063000Y-136906000D03*
D14*
X116463000Y-136906000D03*
X129663000Y-136906000D03*
D10*
X171831000Y-137668000D03*
X174371000Y-137668000D03*
X176911000Y-137668000D03*
X179451000Y-137668000D03*
X181991000Y-137668000D03*
X184531000Y-137668000D03*
X187071000Y-137668000D03*
D11*
X189611000Y-137668000D03*
D10*
X171831000Y-135128000D03*
X174371000Y-135128000D03*
X176911000Y-135128000D03*
X179451000Y-135128000D03*
X181991000Y-135128000D03*
X184531000Y-135128000D03*
X187071000Y-135128000D03*
D11*
X189611000Y-135128000D03*
D24*
X133959600Y-98425000D03*
D23*
X149199600Y-131445000D03*
X133959600Y-100965000D03*
X149199600Y-128905000D03*
X133959600Y-103505000D03*
X149199600Y-126365000D03*
X133959600Y-106045000D03*
X149199600Y-123825000D03*
X133959600Y-108585000D03*
X149199600Y-121285000D03*
X133959600Y-111125000D03*
X149199600Y-118745000D03*
X133959600Y-113665000D03*
X149199600Y-116205000D03*
X133959600Y-116205000D03*
X149199600Y-113665000D03*
X133959600Y-118745000D03*
X149199600Y-111125000D03*
X133959600Y-121285000D03*
X149199600Y-108585000D03*
X133959600Y-123825000D03*
X149199600Y-106045000D03*
X133959600Y-126365000D03*
X149199600Y-103505000D03*
X133959600Y-128905000D03*
X149199600Y-100965000D03*
X133959600Y-131445000D03*
X149199600Y-98425000D03*
D26*
X133178000Y-135128000D03*
D27*
X134438000Y-137618000D03*
X138938000Y-137618000D03*
D26*
X140188000Y-135128000D03*
G36*
G01*
X136327000Y-135017500D02*
X136327000Y-135492500D01*
G75*
G02*
X136089500Y-135730000I-237500J0D01*
G01*
X135489500Y-135730000D01*
G75*
G02*
X135252000Y-135492500I0J237500D01*
G01*
X135252000Y-135017500D01*
G75*
G02*
X135489500Y-134780000I237500J0D01*
G01*
X136089500Y-134780000D01*
G75*
G02*
X136327000Y-135017500I0J-237500D01*
G01*
G37*
G36*
G01*
X138052000Y-135017500D02*
X138052000Y-135492500D01*
G75*
G02*
X137814500Y-135730000I-237500J0D01*
G01*
X137214500Y-135730000D01*
G75*
G02*
X136977000Y-135492500I0J237500D01*
G01*
X136977000Y-135017500D01*
G75*
G02*
X137214500Y-134780000I237500J0D01*
G01*
X137814500Y-134780000D01*
G75*
G02*
X138052000Y-135017500I0J-237500D01*
G01*
G37*
D11*
X188214000Y-96520000D03*
D10*
X190754000Y-96520000D03*
X188214000Y-99060000D03*
X190754000Y-99060000D03*
X188214000Y-101600000D03*
X190754000Y-101600000D03*
X188214000Y-104140000D03*
X190754000Y-104140000D03*
X188214000Y-106680000D03*
X190754000Y-106680000D03*
X188214000Y-109220000D03*
X190754000Y-109220000D03*
G36*
G01*
X120920500Y-87166500D02*
X121395500Y-87166500D01*
G75*
G02*
X121633000Y-87404000I0J-237500D01*
G01*
X121633000Y-88004000D01*
G75*
G02*
X121395500Y-88241500I-237500J0D01*
G01*
X120920500Y-88241500D01*
G75*
G02*
X120683000Y-88004000I0J237500D01*
G01*
X120683000Y-87404000D01*
G75*
G02*
X120920500Y-87166500I237500J0D01*
G01*
G37*
G36*
G01*
X120920500Y-85441500D02*
X121395500Y-85441500D01*
G75*
G02*
X121633000Y-85679000I0J-237500D01*
G01*
X121633000Y-86279000D01*
G75*
G02*
X121395500Y-86516500I-237500J0D01*
G01*
X120920500Y-86516500D01*
G75*
G02*
X120683000Y-86279000I0J237500D01*
G01*
X120683000Y-85679000D01*
G75*
G02*
X120920500Y-85441500I237500J0D01*
G01*
G37*
G36*
G01*
X115840500Y-87219500D02*
X116315500Y-87219500D01*
G75*
G02*
X116553000Y-87457000I0J-237500D01*
G01*
X116553000Y-88057000D01*
G75*
G02*
X116315500Y-88294500I-237500J0D01*
G01*
X115840500Y-88294500D01*
G75*
G02*
X115603000Y-88057000I0J237500D01*
G01*
X115603000Y-87457000D01*
G75*
G02*
X115840500Y-87219500I237500J0D01*
G01*
G37*
G36*
G01*
X115840500Y-85494500D02*
X116315500Y-85494500D01*
G75*
G02*
X116553000Y-85732000I0J-237500D01*
G01*
X116553000Y-86332000D01*
G75*
G02*
X116315500Y-86569500I-237500J0D01*
G01*
X115840500Y-86569500D01*
G75*
G02*
X115603000Y-86332000I0J237500D01*
G01*
X115603000Y-85732000D01*
G75*
G02*
X115840500Y-85494500I237500J0D01*
G01*
G37*
G36*
G01*
X109518500Y-94852500D02*
X109518500Y-94377500D01*
G75*
G02*
X109756000Y-94140000I237500J0D01*
G01*
X110356000Y-94140000D01*
G75*
G02*
X110593500Y-94377500I0J-237500D01*
G01*
X110593500Y-94852500D01*
G75*
G02*
X110356000Y-95090000I-237500J0D01*
G01*
X109756000Y-95090000D01*
G75*
G02*
X109518500Y-94852500I0J237500D01*
G01*
G37*
G36*
G01*
X107793500Y-94852500D02*
X107793500Y-94377500D01*
G75*
G02*
X108031000Y-94140000I237500J0D01*
G01*
X108631000Y-94140000D01*
G75*
G02*
X108868500Y-94377500I0J-237500D01*
G01*
X108868500Y-94852500D01*
G75*
G02*
X108631000Y-95090000I-237500J0D01*
G01*
X108031000Y-95090000D01*
G75*
G02*
X107793500Y-94852500I0J237500D01*
G01*
G37*
G36*
G01*
X163012000Y-108949500D02*
X163012000Y-108474500D01*
G75*
G02*
X163249500Y-108237000I237500J0D01*
G01*
X163849500Y-108237000D01*
G75*
G02*
X164087000Y-108474500I0J-237500D01*
G01*
X164087000Y-108949500D01*
G75*
G02*
X163849500Y-109187000I-237500J0D01*
G01*
X163249500Y-109187000D01*
G75*
G02*
X163012000Y-108949500I0J237500D01*
G01*
G37*
G36*
G01*
X161287000Y-108949500D02*
X161287000Y-108474500D01*
G75*
G02*
X161524500Y-108237000I237500J0D01*
G01*
X162124500Y-108237000D01*
G75*
G02*
X162362000Y-108474500I0J-237500D01*
G01*
X162362000Y-108949500D01*
G75*
G02*
X162124500Y-109187000I-237500J0D01*
G01*
X161524500Y-109187000D01*
G75*
G02*
X161287000Y-108949500I0J237500D01*
G01*
G37*
G36*
G01*
X175585000Y-131682500D02*
X175585000Y-131207500D01*
G75*
G02*
X175822500Y-130970000I237500J0D01*
G01*
X176422500Y-130970000D01*
G75*
G02*
X176660000Y-131207500I0J-237500D01*
G01*
X176660000Y-131682500D01*
G75*
G02*
X176422500Y-131920000I-237500J0D01*
G01*
X175822500Y-131920000D01*
G75*
G02*
X175585000Y-131682500I0J237500D01*
G01*
G37*
G36*
G01*
X173860000Y-131682500D02*
X173860000Y-131207500D01*
G75*
G02*
X174097500Y-130970000I237500J0D01*
G01*
X174697500Y-130970000D01*
G75*
G02*
X174935000Y-131207500I0J-237500D01*
G01*
X174935000Y-131682500D01*
G75*
G02*
X174697500Y-131920000I-237500J0D01*
G01*
X174097500Y-131920000D01*
G75*
G02*
X173860000Y-131682500I0J237500D01*
G01*
G37*
D23*
X147574000Y-86360000D03*
D28*
X147574000Y-78740000D03*
G36*
G01*
X157877500Y-88590000D02*
X158352500Y-88590000D01*
G75*
G02*
X158590000Y-88827500I0J-237500D01*
G01*
X158590000Y-89427500D01*
G75*
G02*
X158352500Y-89665000I-237500J0D01*
G01*
X157877500Y-89665000D01*
G75*
G02*
X157640000Y-89427500I0J237500D01*
G01*
X157640000Y-88827500D01*
G75*
G02*
X157877500Y-88590000I237500J0D01*
G01*
G37*
G36*
G01*
X157877500Y-86865000D02*
X158352500Y-86865000D01*
G75*
G02*
X158590000Y-87102500I0J-237500D01*
G01*
X158590000Y-87702500D01*
G75*
G02*
X158352500Y-87940000I-237500J0D01*
G01*
X157877500Y-87940000D01*
G75*
G02*
X157640000Y-87702500I0J237500D01*
G01*
X157640000Y-87102500D01*
G75*
G02*
X157877500Y-86865000I237500J0D01*
G01*
G37*
G36*
G01*
X169053500Y-97633500D02*
X169528500Y-97633500D01*
G75*
G02*
X169766000Y-97871000I0J-237500D01*
G01*
X169766000Y-98471000D01*
G75*
G02*
X169528500Y-98708500I-237500J0D01*
G01*
X169053500Y-98708500D01*
G75*
G02*
X168816000Y-98471000I0J237500D01*
G01*
X168816000Y-97871000D01*
G75*
G02*
X169053500Y-97633500I237500J0D01*
G01*
G37*
G36*
G01*
X169053500Y-95908500D02*
X169528500Y-95908500D01*
G75*
G02*
X169766000Y-96146000I0J-237500D01*
G01*
X169766000Y-96746000D01*
G75*
G02*
X169528500Y-96983500I-237500J0D01*
G01*
X169053500Y-96983500D01*
G75*
G02*
X168816000Y-96746000I0J237500D01*
G01*
X168816000Y-96146000D01*
G75*
G02*
X169053500Y-95908500I237500J0D01*
G01*
G37*
G36*
G01*
X178926500Y-96983500D02*
X178451500Y-96983500D01*
G75*
G02*
X178214000Y-96746000I0J237500D01*
G01*
X178214000Y-96146000D01*
G75*
G02*
X178451500Y-95908500I237500J0D01*
G01*
X178926500Y-95908500D01*
G75*
G02*
X179164000Y-96146000I0J-237500D01*
G01*
X179164000Y-96746000D01*
G75*
G02*
X178926500Y-96983500I-237500J0D01*
G01*
G37*
G36*
G01*
X178926500Y-98708500D02*
X178451500Y-98708500D01*
G75*
G02*
X178214000Y-98471000I0J237500D01*
G01*
X178214000Y-97871000D01*
G75*
G02*
X178451500Y-97633500I237500J0D01*
G01*
X178926500Y-97633500D01*
G75*
G02*
X179164000Y-97871000I0J-237500D01*
G01*
X179164000Y-98471000D01*
G75*
G02*
X178926500Y-98708500I-237500J0D01*
G01*
G37*
G36*
G01*
X125111500Y-86457500D02*
X125586500Y-86457500D01*
G75*
G02*
X125824000Y-86695000I0J-237500D01*
G01*
X125824000Y-87295000D01*
G75*
G02*
X125586500Y-87532500I-237500J0D01*
G01*
X125111500Y-87532500D01*
G75*
G02*
X124874000Y-87295000I0J237500D01*
G01*
X124874000Y-86695000D01*
G75*
G02*
X125111500Y-86457500I237500J0D01*
G01*
G37*
G36*
G01*
X125111500Y-84732500D02*
X125586500Y-84732500D01*
G75*
G02*
X125824000Y-84970000I0J-237500D01*
G01*
X125824000Y-85570000D01*
G75*
G02*
X125586500Y-85807500I-237500J0D01*
G01*
X125111500Y-85807500D01*
G75*
G02*
X124874000Y-85570000I0J237500D01*
G01*
X124874000Y-84970000D01*
G75*
G02*
X125111500Y-84732500I237500J0D01*
G01*
G37*
D11*
X151905000Y-75779000D03*
D10*
X154445000Y-75779000D03*
X156985000Y-75779000D03*
X159525000Y-75779000D03*
X162065000Y-75779000D03*
X164605000Y-75779000D03*
X167145000Y-75779000D03*
X169685000Y-75779000D03*
X172225000Y-75779000D03*
X174765000Y-75779000D03*
X177305000Y-75779000D03*
X179845000Y-75779000D03*
D23*
X130683000Y-98425000D03*
X115443000Y-131445000D03*
X130683000Y-100965000D03*
X115443000Y-128905000D03*
X130683000Y-103505000D03*
X115443000Y-126365000D03*
X130683000Y-106045000D03*
X115443000Y-123825000D03*
X130683000Y-108585000D03*
X115443000Y-121285000D03*
X130683000Y-111125000D03*
X115443000Y-118745000D03*
X130683000Y-113665000D03*
X115443000Y-116205000D03*
X130683000Y-116205000D03*
X115443000Y-113665000D03*
X130683000Y-118745000D03*
X115443000Y-111125000D03*
X130683000Y-121285000D03*
X115443000Y-108585000D03*
X130683000Y-123825000D03*
X115443000Y-106045000D03*
X130683000Y-126365000D03*
X115443000Y-103505000D03*
X130683000Y-128905000D03*
X115443000Y-100965000D03*
X130683000Y-131445000D03*
D24*
X115443000Y-98425000D03*
D23*
X104648000Y-123444000D03*
X112268000Y-100584000D03*
X104648000Y-120904000D03*
X112268000Y-103124000D03*
X104648000Y-118364000D03*
X112268000Y-105664000D03*
X104648000Y-115824000D03*
X112268000Y-108204000D03*
X104648000Y-113284000D03*
X112268000Y-110744000D03*
X104648000Y-110744000D03*
X112268000Y-113284000D03*
X104648000Y-108204000D03*
X112268000Y-115824000D03*
X104648000Y-105664000D03*
X112268000Y-118364000D03*
X104648000Y-103124000D03*
X112268000Y-120904000D03*
X104648000Y-100584000D03*
D24*
X112268000Y-123444000D03*
D17*
X100925000Y-75779000D03*
D24*
X152450800Y-108585000D03*
D23*
X160070800Y-131445000D03*
X152450800Y-111125000D03*
X160070800Y-128905000D03*
X152450800Y-113665000D03*
X160070800Y-126365000D03*
X152450800Y-116205000D03*
X160070800Y-123825000D03*
X152450800Y-118745000D03*
X160070800Y-121285000D03*
X152450800Y-121285000D03*
X160070800Y-118745000D03*
X152450800Y-123825000D03*
X160070800Y-116205000D03*
X152450800Y-126365000D03*
X160070800Y-113665000D03*
X152450800Y-128905000D03*
X160070800Y-111125000D03*
X152450800Y-131445000D03*
X160070800Y-108585000D03*
D24*
X113030000Y-94615000D03*
D23*
X105410000Y-79375000D03*
X113030000Y-92075000D03*
X105410000Y-81915000D03*
X113030000Y-89535000D03*
X105410000Y-84455000D03*
X113030000Y-86995000D03*
X105410000Y-86995000D03*
X113030000Y-84455000D03*
X105410000Y-89535000D03*
X113030000Y-81915000D03*
X105410000Y-92075000D03*
X113030000Y-79375000D03*
X105410000Y-94615000D03*
D17*
X193925000Y-75779000D03*
X100925000Y-130779000D03*
D29*
X193925000Y-130879000D03*
D10*
X146825000Y-75779000D03*
X144285000Y-75779000D03*
X141745000Y-75779000D03*
X139205000Y-75779000D03*
X136665000Y-75779000D03*
X134125000Y-75779000D03*
X131585000Y-75779000D03*
X129045000Y-75779000D03*
X126505000Y-75779000D03*
X123965000Y-75779000D03*
X121425000Y-75779000D03*
X118885000Y-75779000D03*
X116345000Y-75779000D03*
X113805000Y-75779000D03*
X111265000Y-75779000D03*
D11*
X108725000Y-75779000D03*
D24*
X152400000Y-87376000D03*
D23*
X160020000Y-105156000D03*
X152400000Y-89916000D03*
X160020000Y-102616000D03*
X152400000Y-92456000D03*
X160020000Y-100076000D03*
X152400000Y-94996000D03*
X160020000Y-97536000D03*
X152400000Y-97536000D03*
X160020000Y-94996000D03*
X152400000Y-100076000D03*
X160020000Y-92456000D03*
X152400000Y-102616000D03*
X160020000Y-89916000D03*
X152400000Y-105156000D03*
X160020000Y-87376000D03*
M02*
