M48
; DRILL file {KiCad 5.1.9} date Sat May  1 23:47:59 2021
; FORMAT={-:-/ absolute / metric / decimal}
; #@! TF.CreationDate,2021-05-01T23:47:59-07:00
; #@! TF.GenerationSoftware,Kicad,Pcbnew,5.1.9
; #@! TF.FileFunction,Plated,1,4,PTH
FMAT,2
METRIC
T1C0.300
T2C0.400
T3C0.800
T4C0.990
T5C1.000
T6C1.300
T7C1.520
T8C1.900
T9C3.500
T10C3.500
%
G90
G05
T1
X100.076Y-85.344
X102.108Y-85.344
X102.489Y-112.649
X103.378Y-117.094
X104.14Y-129.007
X104.394Y-133.985
X105.791Y-119.634
X106.426Y-105.156
X106.87Y-132.969
X108.267Y-122.301
X109.093Y-122.301
X109.918Y-122.301
X110.045Y-93.408
X110.49Y-89.281
X110.82Y-126.619
X110.833Y-125.755
X111.887Y-129.794
X116.459Y-89.535
X118.11Y-81.407
X119.126Y-125.095
X119.126Y-128.905
X120.142Y-93.345
X120.142Y-113.665
X120.142Y-128.905
X121.158Y-88.773
X121.285Y-141.588
X121.412Y-111.125
X122.276Y-136.601
X122.682Y-108.585
X122.682Y-126.365
X122.682Y-128.905
X123.952Y-125.095
X124.384Y-138.1
X124.714Y-83.947
X124.841Y-100.965
X124.841Y-141.588
X125.222Y-106.045
X125.222Y-123.825
X125.349Y-88.138
X125.984Y-83.947
X126.492Y-118.364
X126.492Y-127.635
X127.186Y-97.604
X127.186Y-110.237
X127.381Y-93.345
X127.762Y-103.505
X127.762Y-121.285
X128.181Y-93.345
X128.27Y-123.19
X129.032Y-116.205
X129.032Y-130.175
X130.302Y-83.49
X130.937Y-81.915
X130.937Y-88.773
X132.08Y-119.888
X132.182Y-84.226
X132.842Y-91.465
X132.842Y-130.302
X133.477Y-82.245
X133.477Y-89.56
X134.737Y-87.818
X134.747Y-83.185
X134.747Y-84.15
X134.747Y-91.389
X135.382Y-128.016
X136.017Y-96.901
X136.017Y-113.665
X136.652Y-126.365
X137.858Y-114.241
X137.871Y-118.135
X139.192Y-123.825
X140.462Y-100.965
X141.097Y-83.185
X141.732Y-82.245
X141.732Y-87.808
X141.732Y-121.285
X142.367Y-85.928
X142.367Y-89.484
X143.002Y-102.235
X143.002Y-120.65
X143.662Y-86.919
X144.323Y-84.15
X144.526Y-99.695
X144.526Y-122.555
X144.907Y-88.138
X145.034Y-91.821
X145.102Y-102.653
X145.161Y-118.745
X145.644Y-97.477
X146.304Y-110.363
X146.907Y-104.616
X146.939Y-101.854
X147.447Y-112.777
X148.463Y-89.916
X148.539Y-89.103
X148.539Y-92.761
X150.038Y-90.881
X150.038Y-94.539
X151.638Y-140.462
X153.67Y-100.076
X154.178Y-97.536
X154.178Y-118.618
X154.246Y-116.205
X154.813Y-94.996
X154.822Y-104.131
X155.254Y-115.129
X155.448Y-92.456
X155.448Y-98.552
X155.448Y-113.665
X155.448Y-132.461
X156.083Y-89.916
X156.083Y-111.125
X156.21Y-117.729
X156.337Y-130.557
X156.718Y-87.376
X156.718Y-107.569
X157.294Y-103.691
X157.87Y-101.736
X157.87Y-105.274
X157.87Y-113.665
X157.988Y-116.205
X157.988Y-118.745
X158.115Y-90.424
X161.798Y-106.934
X162.306Y-111.887
X162.306Y-113.157
X162.306Y-118.999
X162.496Y-106.236
X163.195Y-88.392
X163.195Y-105.029
X163.576Y-107.696
X163.957Y-91.186
X163.957Y-104.394
X168.91Y-85.979
X169.291Y-99.314
X170.18Y-85.344
X171.36Y-95.086
X171.36Y-96.229
X171.45Y-84.709
X172.72Y-84.074
X178.689Y-94.615
X179.07Y-115.697
X184.404Y-132.461
T2
X102.946Y-91.186
T3
X104.648Y-100.584
X104.648Y-103.124
X104.648Y-105.664
X104.648Y-108.204
X104.648Y-110.744
X104.648Y-113.284
X104.648Y-115.824
X104.648Y-118.364
X104.648Y-120.904
X104.648Y-123.444
X105.41Y-79.375
X105.41Y-81.915
X105.41Y-84.455
X105.41Y-86.995
X105.41Y-89.535
X105.41Y-92.075
X105.41Y-94.615
X112.268Y-100.584
X112.268Y-103.124
X112.268Y-105.664
X112.268Y-108.204
X112.268Y-110.744
X112.268Y-113.284
X112.268Y-115.824
X112.268Y-118.364
X112.268Y-120.904
X112.268Y-123.444
X113.03Y-79.375
X113.03Y-81.915
X113.03Y-84.455
X113.03Y-86.995
X113.03Y-89.535
X113.03Y-92.075
X113.03Y-94.615
X115.443Y-98.425
X115.443Y-100.965
X115.443Y-103.505
X115.443Y-106.045
X115.443Y-108.585
X115.443Y-111.125
X115.443Y-113.665
X115.443Y-116.205
X115.443Y-118.745
X115.443Y-121.285
X115.443Y-123.825
X115.443Y-126.365
X115.443Y-128.905
X115.443Y-131.445
X116.332Y-79.248
X116.332Y-94.488
X118.872Y-79.248
X118.872Y-94.488
X121.412Y-79.248
X121.412Y-94.488
X123.952Y-79.248
X123.952Y-94.488
X126.492Y-79.248
X126.492Y-94.488
X129.032Y-79.248
X129.032Y-94.488
X130.683Y-98.425
X130.683Y-100.965
X130.683Y-103.505
X130.683Y-106.045
X130.683Y-108.585
X130.683Y-111.125
X130.683Y-113.665
X130.683Y-116.205
X130.683Y-118.745
X130.683Y-121.285
X130.683Y-123.825
X130.683Y-126.365
X130.683Y-128.905
X130.683Y-131.445
X131.572Y-79.248
X131.572Y-94.488
X133.96Y-98.425
X133.96Y-100.965
X133.96Y-103.505
X133.96Y-106.045
X133.96Y-108.585
X133.96Y-111.125
X133.96Y-113.665
X133.96Y-116.205
X133.96Y-118.745
X133.96Y-121.285
X133.96Y-123.825
X133.96Y-126.365
X133.96Y-128.905
X133.96Y-131.445
X134.112Y-79.248
X134.112Y-94.488
X136.652Y-79.248
X136.652Y-94.488
X139.192Y-79.248
X139.192Y-94.488
X141.732Y-79.248
X141.732Y-94.488
X144.272Y-79.248
X144.272Y-94.488
X147.574Y-78.74
X147.574Y-86.36
X149.2Y-98.425
X149.2Y-100.965
X149.2Y-103.505
X149.2Y-106.045
X149.2Y-108.585
X149.2Y-111.125
X149.2Y-113.665
X149.2Y-116.205
X149.2Y-118.745
X149.2Y-121.285
X149.2Y-123.825
X149.2Y-126.365
X149.2Y-128.905
X149.2Y-131.445
X152.4Y-87.376
X152.4Y-89.916
X152.4Y-92.456
X152.4Y-94.996
X152.4Y-97.536
X152.4Y-100.076
X152.4Y-102.616
X152.4Y-105.156
X152.451Y-108.585
X152.451Y-111.125
X152.451Y-113.665
X152.451Y-116.205
X152.451Y-118.745
X152.451Y-121.285
X152.451Y-123.825
X152.451Y-126.365
X152.451Y-128.905
X152.451Y-131.445
X160.02Y-87.376
X160.02Y-89.916
X160.02Y-92.456
X160.02Y-94.996
X160.02Y-97.536
X160.02Y-100.076
X160.02Y-102.616
X160.02Y-105.156
X160.071Y-108.585
X160.071Y-111.125
X160.071Y-113.665
X160.071Y-116.205
X160.071Y-118.745
X160.071Y-121.285
X160.071Y-123.825
X160.071Y-126.365
X160.071Y-128.905
X160.071Y-131.445
X165.1Y-89.789
X165.1Y-92.329
X165.1Y-94.869
X165.1Y-97.409
X165.1Y-99.949
X165.1Y-102.489
X165.1Y-114.427
X165.1Y-116.967
X165.1Y-119.507
X165.1Y-122.047
X165.1Y-124.587
X165.1Y-127.127
X167.64Y-87.249
X167.64Y-89.789
X167.64Y-92.329
X167.64Y-94.869
X167.64Y-97.409
X167.64Y-99.949
X167.64Y-102.489
X167.64Y-105.029
X167.64Y-111.887
X167.64Y-114.427
X167.64Y-116.967
X167.64Y-119.507
X167.64Y-122.047
X167.64Y-124.587
X167.64Y-127.127
X167.64Y-129.667
X170.18Y-87.249
X170.18Y-89.789
X170.18Y-102.489
X170.18Y-105.029
X170.18Y-111.887
X170.18Y-114.427
X170.18Y-127.127
X170.18Y-129.667
X172.72Y-87.249
X172.72Y-89.789
X172.72Y-102.489
X172.72Y-105.029
X172.72Y-111.887
X172.72Y-114.427
X172.72Y-127.127
X172.72Y-129.667
X175.26Y-87.249
X175.26Y-89.789
X175.26Y-102.489
X175.26Y-105.029
X175.26Y-111.887
X175.26Y-114.427
X175.26Y-127.127
X175.26Y-129.667
X177.8Y-87.249
X177.8Y-89.789
X177.8Y-102.489
X177.8Y-105.029
X177.8Y-111.887
X177.8Y-114.427
X177.8Y-127.127
X177.8Y-129.667
X180.34Y-87.249
X180.34Y-89.789
X180.34Y-92.329
X180.34Y-94.869
X180.34Y-97.409
X180.34Y-99.949
X180.34Y-102.489
X180.34Y-105.029
X180.34Y-111.887
X180.34Y-114.427
X180.34Y-116.967
X180.34Y-119.507
X180.34Y-122.047
X180.34Y-124.587
X180.34Y-127.127
X180.34Y-129.667
X182.88Y-89.789
X182.88Y-92.329
X182.88Y-94.869
X182.88Y-97.409
X182.88Y-99.949
X182.88Y-102.489
X182.88Y-114.427
X182.88Y-116.967
X182.88Y-119.507
X182.88Y-122.047
X182.88Y-124.587
X182.88Y-127.127
T4
X134.438Y-137.618
X138.938Y-137.618
T5
X101.105Y-96.099
X101.105Y-98.639
X101.105Y-101.179
X101.105Y-103.719
X101.105Y-106.259
X101.105Y-108.799
X101.105Y-111.339
X101.105Y-113.879
X101.105Y-116.419
X101.105Y-118.959
X101.105Y-121.499
X101.105Y-124.039
X101.105Y-126.579
X108.725Y-75.779
X111.265Y-75.779
X113.805Y-75.779
X116.345Y-75.779
X118.885Y-75.779
X121.425Y-75.779
X123.965Y-75.779
X126.505Y-75.779
X129.045Y-75.779
X131.585Y-75.779
X134.125Y-75.779
X136.665Y-75.779
X139.205Y-75.779
X141.745Y-75.779
X143.51Y-136.017
X143.51Y-138.557
X144.285Y-75.779
X146.05Y-136.017
X146.05Y-138.557
X146.825Y-75.779
X148.59Y-136.017
X148.59Y-138.557
X151.13Y-136.017
X151.13Y-138.557
X151.905Y-75.779
X154.445Y-75.779
X156.985Y-75.779
X159.525Y-75.779
X162.065Y-75.779
X164.605Y-75.779
X167.145Y-75.779
X169.685Y-75.779
X171.831Y-135.128
X171.831Y-137.668
X171.831Y-140.208
X172.225Y-75.779
X174.371Y-135.128
X174.371Y-137.668
X174.371Y-140.208
X174.765Y-75.779
X176.911Y-135.128
X176.911Y-137.668
X176.911Y-140.208
X177.305Y-75.779
X179.451Y-135.128
X179.451Y-137.668
X179.451Y-140.208
X179.845Y-75.779
X181.991Y-135.128
X181.991Y-137.668
X181.991Y-140.208
X184.531Y-135.128
X184.531Y-137.668
X184.531Y-140.208
X187.071Y-135.128
X187.071Y-137.668
X187.071Y-140.208
X188.214Y-80.01
X188.214Y-82.55
X188.214Y-85.09
X188.214Y-87.63
X188.214Y-90.17
X188.214Y-92.71
X188.214Y-96.52
X188.214Y-99.06
X188.214Y-101.6
X188.214Y-104.14
X188.214Y-106.68
X188.214Y-109.22
X189.611Y-135.128
X189.611Y-137.668
X189.611Y-140.208
X190.005Y-113.879
X190.005Y-116.419
X190.005Y-118.959
X190.005Y-121.499
X190.005Y-124.039
X190.754Y-80.01
X190.754Y-82.55
X190.754Y-85.09
X190.754Y-87.63
X190.754Y-90.17
X190.754Y-92.71
X190.754Y-96.52
X190.754Y-99.06
X190.754Y-101.6
X190.754Y-104.14
X190.754Y-106.68
X190.754Y-109.22
X192.545Y-113.879
X192.545Y-116.419
X192.545Y-118.959
X192.545Y-121.499
X192.545Y-124.039
T6
X133.178Y-135.128
X140.188Y-135.128
T7
X106.934Y-138.049
X112.014Y-138.049
T8
X116.463Y-136.906
X129.663Y-136.906
T9
X100.925Y-75.779
X100.925Y-130.779
X100.925Y-139.827
X193.925Y-75.779
X193.925Y-139.827
T10
X193.925Y-130.879
T0
M30
